<svg width="3" height="5" viewBox="0 0 3 5" fill="none" xmlns="http://www.w3.org/2000/svg">
<path d="M0.516908 0C0.558776 0 0.610306 0.0308342 0.671498 0.0925027L2.93237 2.36611C2.93559 2.37261 2.94686 2.38883 2.96618 2.4148C2.98873 2.44077 3 2.46835 3 2.49757C3 2.54301 2.97746 2.58844 2.93237 2.63388L0.671498 4.9075C0.610306 4.96917 0.558776 5 0.516908 5C0.494364 5 0.47343 4.99513 0.454106 4.98539C0.438003 4.97566 0.42029 4.96267 0.400966 4.94645C0.384863 4.92697 0.373591 4.91399 0.36715 4.9075L0.0917874 4.62025L0.0338164 4.55209C0.0112721 4.52937 0 4.50016 0 4.46446C0 4.42876 0.00483092 4.40279 0.0144927 4.38656C0.0241546 4.36709 0.0434783 4.34275 0.0724638 4.31353L1.87923 2.50243L0.0724638 0.686466C0.0434783 0.657254 0.0241546 0.634534 0.0144927 0.618306C0.00483092 0.598832 0 0.571243 0 0.53554C0 0.499838 0.0112721 0.470627 0.0338164 0.447907L0.0917874 0.379747L0.36715 0.0925027C0.373591 0.086011 0.383253 0.0746509 0.396135 0.0584224C0.412238 0.0421939 0.428341 0.0292111 0.444444 0.0194739C0.463768 0.00649132 0.487923 0 0.516908 0Z" fill="black" fill-opacity="0.4"/>
</svg>
