<svg width="28" height="28" viewBox="0 0 28 28" fill="none" xmlns="http://www.w3.org/2000/svg">
<path d="M3.09351 0.0820312C2.78726 0.191406 2.50835 0.4375 2.34976 0.74375L2.21304 1.00625L2.19663 12.0477C2.19116 19.5289 2.2021 23.1602 2.24038 23.3023C2.32788 23.625 2.61226 23.9641 2.94585 24.1281L3.24663 24.2812H4.57007H5.89898L5.91538 25.6648C5.93179 26.9555 5.93726 27.0594 6.0521 27.2617C6.18882 27.5188 6.4021 27.7266 6.67007 27.8687C6.85601 27.9672 7.11851 27.9727 13.0685 27.9727H19.2755L19.7568 27.8031C20.0193 27.7047 20.3748 27.5461 20.5443 27.4477C20.8615 27.2563 24.7005 23.6961 25.0396 23.2805C25.3021 22.9523 25.581 22.3617 25.7068 21.8859C25.8052 21.4867 25.8107 21.1969 25.8107 13.1852C25.8107 7.63984 25.7888 4.82891 25.756 4.69219C25.663 4.36953 25.3787 4.03594 25.0505 3.86641L24.7498 3.71875H23.4263H22.0974L22.081 2.33516C22.0646 1.11563 22.0537 0.935156 21.9607 0.765625C21.8185 0.497656 21.6107 0.284376 21.3537 0.147657L21.1349 0.0273438L12.2209 0.016407C4.7396 0.00546837 3.27398 0.016407 3.09351 0.0820312ZM21.0037 1.13203C21.0638 1.19766 21.0802 1.4875 21.0802 2.45547V3.69141L13.9709 3.71875L6.86148 3.74609L6.64273 3.86641C6.35835 4.01953 6.15601 4.23828 6.01929 4.53906C5.90991 4.78516 5.90445 4.84531 5.90445 14.0437V23.3023L4.65757 23.2859C3.69507 23.275 3.38335 23.2531 3.31773 23.193C3.23023 23.1273 3.22476 22.2797 3.22476 12.1625C3.22476 2.28047 3.2357 1.20312 3.31226 1.12656C3.38882 1.05 4.26382 1.03906 12.1607 1.03906C20.249 1.03906 20.938 1.04453 21.0037 1.13203ZM24.6076 4.77422L24.7443 4.84531V13.207V21.5742L22.5841 21.6016L20.424 21.6289L20.1177 21.782C19.7732 21.9461 19.4341 22.2852 19.2373 22.6516C19.1115 22.8812 19.1115 22.925 19.0841 24.9102L19.0568 26.9336H13.0412H7.03101L6.95991 26.7969C6.90523 26.6875 6.89429 24.4836 6.90523 15.7883L6.91616 4.91094L7.04741 4.80703C7.1732 4.70312 7.38648 4.70312 15.8248 4.70312C22.688 4.70312 24.4982 4.71953 24.6076 4.77422ZM24.1919 22.7063C23.9623 22.9633 20.1615 26.5234 20.1123 26.5234C20.0849 26.5234 20.0685 25.8508 20.0794 24.8336C20.0959 22.9141 20.0904 22.9523 20.5607 22.7063C20.7959 22.5914 20.8451 22.5859 22.5513 22.5859H24.2959L24.1919 22.7063Z" fill="#556CC0"/>
<path d="M10.7235 8.49844C10.4227 8.66797 10.368 8.99062 10.6032 9.25312L10.7618 9.43359H15.8532H20.9446L21.0922 9.28594C21.3055 9.06719 21.3001 8.78828 21.0649 8.58047L20.8899 8.42188H15.8696C11.8118 8.42734 10.8274 8.43828 10.7235 8.49844Z" fill="#556CC0"/>
<path d="M10.6989 11.8727C10.6497 11.9 10.5677 12.0039 10.5184 12.0914C10.4091 12.3047 10.4583 12.5398 10.6442 12.6875C10.7809 12.7969 10.8575 12.7969 15.8395 12.7969C19.3559 12.7969 20.9255 12.7805 21.0075 12.7367C21.0677 12.7039 21.1497 12.5945 21.1934 12.4906C21.2591 12.332 21.2591 12.2773 21.1934 12.1188C21.1497 12.0148 21.0677 11.9055 21.0075 11.8727C20.8544 11.7906 10.8411 11.7906 10.6989 11.8727Z" fill="#556CC0"/>
<path d="M10.647 15.3125C10.5704 15.3727 10.4939 15.493 10.472 15.5805C10.4337 15.7664 10.554 16.0453 10.7126 16.1328C10.8658 16.2094 20.8572 16.2094 21.0103 16.1274C21.1525 16.0508 21.2728 15.7609 21.2345 15.5695C21.2181 15.4875 21.1415 15.3727 21.065 15.3125C20.9337 15.2031 20.8298 15.2031 15.8587 15.2031C10.8603 15.2031 10.7837 15.2031 10.647 15.3125Z" fill="#556CC0"/>
<path d="M10.7953 18.5937C10.6422 18.6539 10.4453 18.9109 10.4453 19.0422C10.4453 19.2172 10.5984 19.4523 10.757 19.518C10.8719 19.5617 11.6812 19.5781 13.7484 19.5672L16.5812 19.5508L16.7125 19.3977C16.8875 19.1953 16.8875 18.9219 16.7125 18.7195L16.5812 18.5664L13.743 18.5555C12.1844 18.55 10.8555 18.5664 10.7953 18.5937Z" fill="#556CC0"/>
</svg>
