<svg width="162" height="120" viewBox="0 0 162 120" fill="none" xmlns="http://www.w3.org/2000/svg">
<path d="M151.131 0.795501C149.458 0.829181 146.955 1.88202 143.903 3.93205C137.677 7.53684 133.297 12.1782 129.08 16.8831C127.447 18.7005 124.916 21.9189 123.456 24.0345C116.772 33.4531 111.265 41.9917 107.05 53.0877C105.721 56.6642 105.325 57.1439 98.7052 63.2112C94.8833 66.7143 90.5824 70.7094 89.1477 72.0891C83.9106 76.0107 71.6127 88.0398 64.8027 88.2495C64.4929 88.0575 64.2394 87.4829 64.2394 86.9727C64.2394 85.728 63.2077 84.7653 61.8765 84.7685C60.55 84.7717 59.2037 85.6516 53.8863 89.9854C50.1997 92.9901 49.681 93.2576 48.9063 92.5558C47.8376 91.5876 44.223 91.8315 43.111 92.9471C41.9062 94.1559 42.6897 96.2769 44.5861 96.9401C45.4641 97.2472 46.1814 97.8105 46.1793 98.192C42.3756 107.466 32.4895 110.206 33.2226 96.5415C35.0052 93.7173 34.7796 93.4154 37.0523 91.1957L46.2353 79.4383C52.6232 70.6194 59.4962 61.7052 64.4033 51.4653C66.1217 47.2909 69.8198 36.3802 65.4406 35.0978C62.7061 34.392 59.0196 36.7129 56.2399 40.8901C51.1029 47.8924 47.097 54.8123 42.8714 61.8553C38.6459 68.8982 36.4485 75.4549 34.262 81.9411C33.2556 84.9102 32.0558 89.3328 31.5951 91.7691C31.2471 93.6095 31.2494 93.9432 30.8006 96.195C27.0513 101.9 22.5994 107.958 18.4808 112.34C16.9109 114.005 15.9328 114.604 14.7839 114.604C12.7837 114.604 12.4975 113.798 12.9116 109.328C13.3736 104.341 14.1086 102.458 16.6728 99.6854C19.534 96.5919 23.3309 91.9323 24.9213 89.5618C27.1275 86.7403 29.2808 83.5778 30.7726 80.7703C33.7123 75.4751 36.688 70.9164 38.1871 65.8347C38.8424 63.0548 40.4543 57.4793 37.2514 57.1567C35.7459 57.0117 35.1255 57.3598 32.9758 59.5544C28.5656 64.0565 28.8453 65.8486 33.3699 62.079C44.1844 55.0708 28.8411 80.036 26.5384 83.2866C25.6351 84.5401 23.7297 87.4016 22.3042 89.6461C20.8787 91.8906 18.8291 94.7079 17.7495 95.9067C16.6699 97.1056 15.1785 98.6087 15.0412 98.345C14.6644 97.6214 15.1311 94.7311 16.7786 89.0592L17.4757 85.368C17.4757 85.368 20.9956 82.3453 22.0179 81.6694C23.0403 80.9936 26.5946 78.3054 28.2354 76.9272C29.8761 75.5489 30.869 74.1907 32.2521 71.4991C33.6352 68.8074 30.2185 66.188 26.0467 68.758C23.7696 70.1608 21.5929 72.3237 18.7961 77.9106C16.995 81.5085 16.5571 82.5022 15.7994 84.3158L4.1964 90.2809C0.302614 91.7396 0.188849 93.3734 1.96935 92.7619C2.45297 92.5957 5.58099 91.3993 8.85898 89.7283C12.137 88.0574 15.1268 86.7174 15.3451 86.598C15.3451 86.598 14.9754 89.2117 14.3856 91.5099C13.7958 93.8082 13.1653 97.0546 12.9842 98.7238C12.674 101.584 12.4646 101.944 9.35583 104.972C7.5414 106.739 5.58492 108.551 5.00859 108.997C4.07203 109.723 4.04874 109.88 4.78765 110.475C6.19862 111.675 13.6942 123.788 13.7861 118.068C13.7861 116.648 14.0077 116.202 14.7155 116.201C17.7879 117.677 27.1663 104.818 30.8722 99.8477C31.7271 102.207 31.8241 106.076 34.5244 107.691C35.8255 108.39 39.0791 108.348 40.5085 107.615C43.0242 106.325 46.1236 102.692 47.2249 99.7437C48.2236 97.07 48.7383 96.4877 52.096 94.224C55.5161 91.9181 57.8399 91.0622 57.883 92.0927C57.8922 92.3125 58.4743 92.9105 59.1765 93.4227C60.4146 94.3258 60.5622 94.3035 64.0724 92.6776C73.308 88.3997 78.7599 84.8717 85.7423 78.6547C87.7903 76.8311 90.0537 74.8824 90.772 74.3245C91.4904 73.7666 93.0792 72.327 94.3029 71.1255C97.7838 67.7079 100.825 64.9397 102.74 63.5719C102.059 65.739 101.356 67.4593 100.393 69.7247C96.6446 78.5394 93.5034 86.2276 93.6754 93.1656C93.7881 97.7128 93.7397 96.7943 88.4039 97.2554C82.5834 97.7585 75.5851 100.341 74.493 101.626C73.2126 103.133 75.2467 103.613 80.8152 102.223C83.8206 101.472 87.6825 100.649 89.3593 100.228C93.1101 99.2859 93.7351 99.99 95.6141 103.206C96.6766 105.025 97.7685 105.661 99.8358 106.35C103.551 108.008 112.076 102.221 112.568 99.1817C112.568 98.6704 112.065 97.795 111.449 97.2367C110.496 96.3729 109.409 95.4861 104.147 95.4163C100.746 95.3711 96.6344 96.1382 96.2693 96.11C96.8691 83.304 100.946 75.7126 104.13 67.2886C105.278 64.1837 106.79 60.672 107.488 59.4846C108.615 57.5683 117.27 49.0099 125.226 41.9443C134.554 33.6142 144.988 19.4516 148.948 12.5571C153.072 5.37601 153.41 4.67142 153.437 3.17654C153.465 1.67425 152.751 0.887622 151.455 0.802796C151.351 0.795982 151.243 0.793253 151.131 0.795501ZM149.776 3.83319C150.453 9.83429 138.999 22.6738 134.788 27.6945C130.897 32.3479 121.736 41.6215 115.709 47.0071C113.786 48.7264 113.629 49.2708 110.447 51.9584C112.398 47.7203 113.055 44.9738 119.096 36.0136C126.28 25.3582 129.752 20.8979 135.48 14.9662C139.293 11.0177 145.933 5.40426 147.908 4.45967C148.751 4.05595 149.375 3.83546 149.776 3.83319ZM64.7902 38.0543C66.1152 38.1744 66.1104 39.9526 65.0329 44.1026C61.1436 54.1854 57.4191 62.0068 50.4249 70.498C45.9245 76.6856 41.9798 82.7759 37.2421 88.389C35.6555 90.3947 33.9674 91.3299 33.9674 90.2039C33.9674 89.0359 36.9246 79.785 38.5812 75.7699C42.3122 66.7276 44.635 61.4287 47.5858 57.3076C50.5367 53.1865 58.4968 38.3237 64.7902 38.0543ZM159.47 66.8869C147.485 66.7231 134.991 72.6114 125.072 77.2414C122.682 78.3022 120.711 80.5614 121.317 81.5456C121.931 82.5429 123.939 82.1299 126.377 80.5039C138.04 73.8675 150.984 70.6153 159.703 69.527C161.435 69.3132 161.96 69.0223 161.96 68.273C161.96 67.3302 161.504 66.9166 159.47 66.8869ZM29.5673 69.8475C30.0702 69.8475 30.2645 70.3163 30.1523 71.2576C30.0415 72.187 28.9525 73.4867 27.0633 75.1924C22.8943 78.9563 20.6147 80.4851 19.0367 81.4594C20.1841 79.154 20.9328 77.7702 23.5012 74.5565C25.3962 72.1856 28.292 69.8475 29.5673 69.8475ZM61.3319 86.7312C61.5733 86.7204 61.7959 86.7868 61.9813 86.9248C62.7504 88.1828 62.4065 88.7368 61.6922 89.8126C61 90.5941 60.1527 90.7166 59.6671 90.0957C59.1817 89.475 59.6285 88.728 60.2269 87.8274C60.6227 87.2318 60.8144 86.7543 61.3319 86.7312ZM45.9584 93.3342C46.0281 93.3326 46.0978 93.3353 46.1669 93.3415C46.7802 93.3994 47.224 93.7455 47.1917 94.1408L47.0807 94.4259C46.8187 94.784 46.1736 94.9564 45.5901 94.8245C45.0067 94.6926 44.6754 94.2995 44.8246 93.916C44.9551 93.5815 45.4187 93.3436 45.9584 93.3342ZM104.528 98.0869C107.578 98.0869 108.851 98.4667 108.851 99.3763C108.851 100.445 105.968 102.869 104.035 103.426C103.036 103.713 101.656 103.948 100.967 103.948C99.5186 103.948 95.6906 100.396 96.4232 99.7312C97.2271 99.0016 101.736 98.0869 104.528 98.0869ZM11.531 105.546C11.7904 105.546 11.9003 107.644 11.7748 110.209C11.5397 115.011 12.3482 117.484 10.2759 115.247C9.00921 113.757 6.87989 110.491 6.89125 109.686C6.90143 108.967 10.7351 105.546 11.531 105.546Z" fill="#3D3D3D"/>
</svg>
