<svg width="256" height="82" viewBox="0 0 256 82" fill="none" xmlns="http://www.w3.org/2000/svg">
<path d="M255.989 31.9356C255.935 32.4692 255.748 32.8694 255.428 33.1362C255.162 33.403 254.948 33.5097 254.788 33.4563C254.681 33.403 254.548 33.3229 254.388 33.2162C254.228 33.0561 254.041 32.9227 253.828 32.816C253.454 32.6026 253.134 32.4692 252.867 32.4158C252.654 32.3091 252.28 32.2291 251.747 32.1757C250.946 32.1223 249.932 32.3891 248.705 32.9761C247.478 33.563 246.171 34.3368 244.783 35.2972C243.396 36.2577 241.955 37.3516 240.461 38.5788C238.967 39.8061 237.553 41.06 236.219 42.3407C234.939 43.5679 233.872 44.6084 233.018 45.4622C232.217 46.2626 231.47 47.063 230.777 47.8633C230.136 48.6104 229.469 49.4375 228.776 50.3446C228.029 51.2517 227.122 52.3722 226.055 53.7062C225.788 53.7062 225.601 53.5728 225.494 53.306C225.334 53.0926 225.228 52.8258 225.174 52.5056C225.121 52.1321 225.121 51.7853 225.174 51.4651C225.174 51.0916 225.228 50.7981 225.334 50.5847C226.401 48.557 227.869 46.396 229.736 44.1015C231.55 41.7537 233.525 39.4593 235.659 37.2182C236.94 35.8308 238.22 34.5769 239.501 33.4563C240.835 32.2824 241.982 31.402 242.942 30.815C243.583 30.3882 244.41 30.068 245.424 29.8546C246.491 29.5878 247.531 29.4544 248.545 29.4544C246.891 30.5216 245.023 31.9889 242.942 33.8565C240.861 35.6707 238.967 37.5917 237.26 39.6193L237.5 39.9395C238.62 38.979 239.928 37.8585 241.422 36.5778C242.916 35.2972 244.436 34.1233 245.984 33.0561C247.531 31.9356 249.025 31.0285 250.466 30.3348C251.96 29.6411 253.187 29.3743 254.148 29.5344C254.841 29.6411 255.322 29.9346 255.588 30.4148C255.909 30.8417 256.042 31.3486 255.989 31.9356Z" fill="#434343"/>
<path d="M235.143 29.7745C233.435 31.3219 231.754 32.8961 230.1 34.4968C228.446 36.0443 226.899 37.5383 225.458 38.979C224.071 40.4197 222.79 41.7537 221.616 42.981C220.496 44.2082 219.589 45.2221 218.895 46.0225C217.668 47.5699 216.707 48.8772 216.014 49.9444C215.373 50.9582 215.347 51.5985 215.934 51.8653C216.254 52.0254 216.707 51.972 217.294 51.7052C217.935 51.4384 218.628 51.0916 219.375 50.6647C220.176 50.1845 220.949 49.6776 221.696 49.144C222.443 48.557 223.11 48.0501 223.697 47.6232C224.978 46.6094 226.312 45.4889 227.699 44.2616C229.14 43.0343 230.34 41.9938 231.301 41.1401C231.407 41.0334 231.568 40.9533 231.781 40.9C231.994 40.7932 232.154 40.8466 232.261 41.06C232.368 41.3268 232.368 41.5403 232.261 41.7003C232.154 41.8071 232.021 41.9405 231.861 42.1005C230.687 43.1144 229.38 44.2349 227.939 45.4622C226.552 46.6361 225.378 47.6232 224.418 48.4236C223.831 48.9039 223.137 49.4375 222.337 50.0244C221.59 50.558 220.816 51.0649 220.015 51.5451C219.215 52.0254 218.441 52.4256 217.694 52.7457C217.001 53.0659 216.387 53.226 215.854 53.226C215.16 53.226 214.573 53.0659 214.093 52.7457C213.612 52.4789 213.266 52.0521 213.052 51.4651C212.892 50.8782 212.919 50.1845 213.132 49.3841C213.346 48.5303 213.826 47.5432 214.573 46.4226C212.225 48.3969 210.037 50.0244 208.01 51.305C205.982 52.5857 204.328 53.226 203.048 53.226C201.66 53.226 200.806 52.7724 200.486 51.8653C200.166 50.9582 200.246 49.811 200.726 48.4236C201.153 47.0363 201.9 45.5422 202.967 43.9414C203.981 42.2873 205.182 40.7666 206.569 39.3792C208.17 37.7784 209.957 36.2577 211.932 34.817C213.959 33.3763 215.934 32.1757 217.854 31.2152C219.829 30.2548 221.643 29.5878 223.297 29.2143C224.951 28.8407 226.205 28.8941 227.059 29.3743C227.592 29.6945 227.806 30.3081 227.699 31.2152C227.646 32.1223 226.845 33.3229 225.298 34.817C226.899 33.483 228.233 32.4425 229.3 31.6955C230.42 30.8951 231.327 30.3615 232.021 30.0947C232.982 29.7745 234.022 29.6678 235.143 29.7745ZM226.418 30.4148C225.671 29.8279 223.857 30.4949 220.976 32.4158C218.095 34.2834 214.52 37.2448 210.251 41.3001C209.024 42.4741 207.876 43.6746 206.809 44.9019C205.795 46.0758 204.968 47.1697 204.328 48.1835C203.634 49.144 203.181 49.971 202.967 50.6647C202.754 51.3584 202.887 51.8119 203.368 52.0254C203.741 52.1855 204.408 52.0254 205.369 51.5451C206.382 51.0116 207.583 50.2645 208.97 49.3041C210.411 48.2902 211.958 47.063 213.612 45.6223C215.267 44.1816 216.947 42.5808 218.655 40.8199C219.455 40.0195 220.362 39.0857 221.376 38.0185C222.443 36.9514 223.404 35.9109 224.257 34.897C225.165 33.8832 225.858 32.9761 226.338 32.1757C226.819 31.3219 226.845 30.735 226.418 30.4148Z" fill="#434343"/>
<path d="M205.607 41.6203C205.82 41.8337 205.82 42.0472 205.607 42.2606C205.447 42.4741 205.26 42.6608 205.047 42.8209C203.819 43.9948 202.405 45.2487 200.805 46.5827C199.204 47.8634 197.656 49.0106 196.162 50.0244C194.562 51.1983 192.961 52.0787 191.36 52.6657C189.813 53.306 188.586 53.5194 187.678 53.306C187.198 53.1993 186.771 52.9325 186.398 52.5056C186.078 52.0787 185.864 51.5451 185.758 50.9048C185.704 50.2645 185.784 49.5442 185.998 48.7438C186.264 47.9434 186.718 47.063 187.358 46.1025C187.839 45.4088 188.319 44.7952 188.799 44.2616C189.279 43.6746 189.786 43.1144 190.32 42.5808C190.853 41.9938 191.44 41.4069 192.081 40.8199C192.721 40.233 193.441 39.566 194.242 38.8189C194.935 38.1786 195.789 37.4316 196.803 36.5778C197.87 35.7241 198.857 34.897 199.764 34.0966C200.671 33.2429 201.365 32.4959 201.845 31.8555C202.379 31.1619 202.485 30.6816 202.165 30.4148C201.898 30.2014 201.098 30.3882 199.764 30.9751C198.43 31.5087 196.856 32.3091 195.042 33.3763C193.281 34.3901 191.414 35.564 189.439 36.898C187.518 38.232 185.811 39.566 184.317 40.9C182.823 42.1806 181.569 43.3278 180.555 44.3416C179.541 45.3555 178.608 46.3426 177.754 47.3031C176.953 48.2635 176.153 49.2507 175.353 50.2645C174.552 51.2784 173.619 52.4256 172.551 53.7062C172.285 53.7062 172.071 53.5728 171.911 53.306C171.804 53.0926 171.724 52.8258 171.671 52.5056C171.671 52.1321 171.671 51.7853 171.671 51.4651C171.724 51.0916 171.804 50.7981 171.911 50.5847C172.445 49.5709 173.005 48.6104 173.592 47.7033C174.232 46.7428 174.899 45.809 175.593 44.9019C176.34 43.9948 177.167 43.061 178.074 42.1005C178.981 41.0867 179.968 39.9928 181.035 38.8189C181.676 38.1786 182.503 37.4049 183.517 36.4978C184.584 35.5907 185.571 34.7103 186.478 33.8565C187.438 33.0028 188.185 32.2557 188.719 31.6154C189.253 30.9751 189.333 30.5749 188.959 30.4148C188.479 30.2014 187.465 30.4682 185.918 31.2152C184.37 31.9089 182.609 32.8694 180.635 34.0966C178.661 35.2705 176.66 36.6045 174.632 38.0986C172.605 39.5927 170.897 41.0067 169.51 42.3407C168.229 43.5679 167.162 44.6084 166.308 45.4622C165.508 46.2626 164.761 47.063 164.067 47.8633C163.427 48.6104 162.76 49.4375 162.066 50.3446C161.319 51.2517 160.412 52.3722 159.345 53.7062C159.078 53.7062 158.892 53.5728 158.785 53.306C158.625 53.0926 158.518 52.8258 158.465 52.5056C158.411 52.1321 158.411 51.7853 158.465 51.4651C158.465 51.0916 158.518 50.7981 158.625 50.5847C159.639 48.7171 161.026 46.6628 162.787 44.4217C164.494 42.1806 166.549 39.7794 168.95 37.2182C170.23 35.8308 171.538 34.5769 172.872 33.4563C174.259 32.2824 175.433 31.3753 176.393 30.735C177.087 30.3081 177.914 29.988 178.874 29.7745C179.888 29.5611 180.902 29.4544 181.916 29.4544C181.169 29.9346 180.342 30.5749 179.435 31.3753C178.528 32.1223 177.567 32.9761 176.553 33.9366C175.539 34.8437 174.499 35.8308 173.432 36.898C172.418 37.9118 171.458 38.9523 170.55 40.0195C171.991 38.8456 173.645 37.5917 175.513 36.2577C177.38 34.9237 179.221 33.6964 181.035 32.5759C182.85 31.4553 184.557 30.5749 186.158 29.9346C187.812 29.2943 189.119 29.0542 190.08 29.2143C190.72 29.321 191.147 29.5878 191.36 30.0146C191.627 30.3882 191.734 30.8684 191.68 31.4553C191.627 32.0423 191.44 32.6826 191.12 33.3763C190.853 34.0166 190.48 34.6569 190 35.2972C191.28 34.4435 192.587 33.6164 193.921 32.816C195.255 32.0156 196.509 31.3219 197.683 30.735C198.91 30.0947 200.004 29.6411 200.965 29.3743C201.979 29.0542 202.752 29.0008 203.286 29.2143C204.566 29.6945 205.153 30.4415 205.047 31.4553C204.993 32.4158 204.566 33.4563 203.766 34.5769C203.019 35.6974 202.059 36.8446 200.885 38.0185C199.711 39.1391 198.644 40.1262 197.683 40.98C196.403 42.1539 195.229 43.2744 194.161 44.3416C193.094 45.3555 192.134 46.3159 191.28 47.223C190.16 48.4503 189.333 49.4641 188.799 50.2645C188.265 51.0116 188.239 51.5985 188.719 52.0254C188.932 52.1855 189.279 52.2121 189.759 52.1054C190.24 51.9987 190.8 51.8119 191.44 51.5451C192.081 51.225 192.774 50.8515 193.521 50.4246C194.322 49.9444 195.122 49.4108 195.922 48.8238C197.63 47.5966 199.231 46.3693 200.725 45.142C202.219 43.8614 203.419 42.8209 204.326 42.0205C204.54 41.8071 204.753 41.647 204.967 41.5403C205.18 41.3802 205.393 41.4069 205.607 41.6203Z" fill="#434343"/>
<path d="M177.257 13.5266C177.364 15.1807 177.151 16.8349 176.617 18.489C176.083 20.0898 175.31 21.5839 174.296 22.9712C173.282 24.3586 172.055 25.5325 170.614 26.4929C169.174 27.4534 167.573 28.067 165.812 28.3338C164.425 30.5749 162.851 32.7893 161.09 34.9771C159.382 37.1648 157.541 39.1658 155.567 40.98C152.953 43.3812 150.098 45.6223 147.003 47.7033C143.962 49.7843 140.84 51.5985 137.639 53.1459C134.437 54.7467 131.262 56.0007 128.114 56.9078C125.02 57.8682 122.085 58.4018 119.31 58.5085C117.656 58.5619 115.922 58.4285 114.108 58.1083C112.347 57.8416 110.72 57.2546 109.225 56.3475C107.731 55.4937 106.478 54.2932 105.464 52.7457C104.45 51.1983 103.916 49.1973 103.863 46.7428C103.756 44.6084 104.156 42.2073 105.064 39.5393C106.024 36.8713 107.385 34.1233 109.145 31.2953C110.96 28.4139 113.147 25.5858 115.709 22.8111C118.323 19.9831 121.258 17.3151 124.513 14.8072C128.194 12.0325 131.849 9.76476 135.478 8.00391C139.106 6.18969 142.628 4.77567 146.043 3.76184C149.458 2.74801 152.659 2.08102 155.647 1.76086C158.635 1.4407 161.33 1.38735 163.731 1.60078C165.492 1.76086 167.173 2.13438 168.773 2.72133C170.374 3.25492 171.761 4.02863 172.935 5.04246C174.163 6.00293 175.15 7.20352 175.897 8.64422C176.644 10.0316 177.097 11.659 177.257 13.5266ZM175.256 13.4466C174.99 10.0316 173.789 7.47031 171.655 5.76281C169.52 4.05531 166.933 3.06817 163.891 2.80137C159.249 2.32113 153.753 3.25492 147.403 5.60274C141.107 7.89719 134.437 11.8191 127.394 17.3685C124.246 19.8764 121.311 22.4376 118.59 25.0522C115.922 27.6135 113.628 30.1747 111.707 32.736C109.786 35.2439 108.265 37.6717 107.145 40.0195C106.077 42.3673 105.57 44.5818 105.624 46.6628C105.624 49.4908 106.211 51.6252 107.385 53.0659C108.612 54.56 110.026 55.6271 111.627 56.2675C113.281 56.9078 114.935 57.2279 116.589 57.2279C118.243 57.2813 119.524 57.2813 120.431 57.2279C118.51 56.8544 117.069 56.0807 116.109 54.9068C115.148 53.7862 114.535 52.4789 114.268 50.9849C114.054 49.4908 114.108 47.9167 114.428 46.2626C114.801 44.6084 115.335 43.061 116.029 41.6203C118.056 37.1915 120.564 33.2696 123.552 29.8546C126.594 26.4396 129.822 23.4248 133.237 20.8102C135.851 18.8359 138.546 17.1284 141.321 15.6877C144.149 14.247 146.896 13.073 149.564 12.1659C152.286 11.2055 154.847 10.5652 157.248 10.245C159.702 9.87148 161.89 9.79145 163.811 10.0049C164.825 10.1116 165.785 10.4051 166.692 10.8853C167.599 11.3655 168.346 12.0059 168.933 12.8062C169.52 13.6066 169.894 14.5671 170.054 15.6877C170.267 16.8082 170.187 18.0355 169.814 19.3695C169.067 21.9841 167.893 24.7054 166.292 27.5334C167.733 27.0532 169.013 26.3062 170.134 25.2923C171.308 24.2785 172.295 23.1313 173.095 21.8507C173.896 20.5167 174.483 19.1293 174.856 17.6886C175.23 16.1946 175.363 14.7805 175.256 13.4466ZM168.693 18.9693C169.013 17.742 169.094 16.6748 168.933 15.7677C168.827 14.8072 168.533 13.9802 168.053 13.2865C167.573 12.5928 166.933 12.0592 166.132 11.6857C165.385 11.3122 164.558 11.0721 163.651 10.9654C161.783 10.7519 159.729 10.912 157.488 11.4456C155.247 11.9258 152.899 12.6995 150.445 13.7667C147.99 14.8339 145.456 16.1679 142.841 17.7687C140.28 19.3161 137.719 21.0503 135.158 22.9712C133.504 24.2518 131.796 25.6392 130.035 27.1332C128.328 28.5739 126.674 30.1214 125.073 31.7755C123.472 33.3763 121.978 35.0571 120.591 36.818C119.257 38.5788 118.136 40.393 117.229 42.2606C116.536 43.5946 115.975 45.1153 115.548 46.8228C115.175 48.477 115.148 50.0511 115.468 51.5451C115.789 52.9858 116.562 54.2131 117.79 55.2269C119.07 56.2408 121.018 56.7477 123.632 56.7477C126.087 56.2675 128.595 55.4671 131.156 54.3465C133.77 53.2793 136.385 51.972 138.999 50.4246C141.614 48.8772 144.175 47.143 146.683 45.2221C149.244 43.2478 151.699 41.1668 154.046 38.979C155.647 37.485 157.221 35.8842 158.769 34.1767C160.316 32.4692 161.757 30.7617 163.091 29.0542C164.425 27.2933 165.572 25.5591 166.532 23.8516C167.493 22.1441 168.213 20.5167 168.693 18.9693Z" fill="#434343"/>
<path d="M95.3015 51.0649C95.3015 51.6519 95.1147 52.1588 94.7412 52.5857C94.3143 52.9592 93.8074 53.1459 93.2205 53.1459C92.6336 53.1459 92.1267 52.9592 91.6998 52.5857C91.2729 52.1588 91.0595 51.6519 91.0595 51.0649C91.0595 50.478 91.2729 49.971 91.6998 49.5442C92.1267 49.0639 92.6336 48.8238 93.2205 48.8238C93.8074 48.8238 94.3143 49.0639 94.7412 49.5442C95.1147 49.971 95.3015 50.478 95.3015 51.0649Z" fill="#898989"/>
<path d="M105.356 31.9356C105.302 32.4692 105.115 32.8694 104.795 33.1362C104.529 33.403 104.315 33.5097 104.155 33.4563C104.048 33.403 103.915 33.3229 103.755 33.2162C103.595 33.0561 103.408 32.9227 103.195 32.816C102.821 32.6026 102.501 32.4692 102.234 32.4158C102.021 32.3091 101.647 32.2291 101.114 32.1757C100.313 32.1223 99.2994 32.3891 98.0722 32.9761C96.8449 33.563 95.5376 34.3368 94.1503 35.2972C92.763 36.2577 91.3223 37.3516 89.8283 38.5788C88.3343 39.8061 86.9203 41.06 85.5863 42.3407C84.3057 43.5679 83.2385 44.6084 82.3848 45.4622C81.5844 46.2626 80.8374 47.063 80.1438 47.8633C79.5035 48.6104 78.8365 49.4375 78.1428 50.3446C77.3958 51.2517 76.4887 52.3722 75.4215 53.7062C75.1548 53.7062 74.968 53.5728 74.8613 53.306C74.7012 53.0926 74.5945 52.8258 74.5411 52.5056C74.4878 52.1321 74.4878 51.7853 74.5411 51.4651C74.5411 51.0916 74.5945 50.7981 74.7012 50.5847C75.7684 48.557 77.2357 46.396 79.1033 44.1015C80.9175 41.7537 82.8917 39.4593 85.026 37.2182C86.3066 35.8308 87.5872 34.5769 88.8679 33.4563C90.2018 32.2824 91.349 31.402 92.3095 30.815C92.9498 30.3882 93.7768 30.068 94.7906 29.8546C95.8578 29.5878 96.8983 29.4544 97.9121 29.4544C96.258 30.5216 94.3904 31.9889 92.3095 33.8565C90.2285 35.6707 88.3343 37.5917 86.6268 39.6193L86.8669 39.9395C87.9874 38.979 89.2947 37.8585 90.7887 36.5778C92.2828 35.2972 93.8035 34.1233 95.3509 33.0561C96.8983 31.9356 98.3923 31.0285 99.833 30.3348C101.327 29.6411 102.554 29.3743 103.515 29.5344C104.208 29.6411 104.689 29.9346 104.955 30.4148C105.276 30.8417 105.409 31.3486 105.356 31.9356Z" fill="#898989"/>
<path d="M84.8597 0.800394C84.8064 1.01383 84.5663 1.12055 84.1394 1.12055C83.7125 1.12055 83.0722 1.22727 82.2185 1.4407C80.8312 1.76086 79.3371 2.40117 77.7364 3.36164C76.189 4.32211 74.9351 5.2559 73.9746 6.16301C75.5754 7.60371 76.8827 9.20449 77.8965 10.9654C78.9636 12.7262 79.764 14.5137 80.2976 16.328C80.8845 18.1422 81.2314 19.9297 81.3381 21.6906C81.4448 23.3981 81.3648 24.9455 81.098 26.3328C80.5644 29.0008 79.844 31.3753 78.937 33.4563C78.0299 35.484 76.9894 37.3249 75.8155 38.979C74.6416 40.5798 73.3877 42.0205 72.0537 43.3011C70.7198 44.5817 69.3858 45.7823 68.0519 46.9029C64.9571 49.2507 61.0352 51.1716 56.2864 52.6657C51.5375 54.2131 45.9348 54.9068 39.4785 54.7467C36.8639 54.6934 34.276 54.5333 31.7148 54.2665C29.207 53.9997 26.7525 53.7062 24.3514 53.386C22.0036 53.0659 19.7626 52.7457 17.6283 52.4256C15.5473 52.1054 13.6531 51.8653 11.9456 51.7052C13.493 55.5471 16.0008 58.5085 19.4691 60.5896C22.9374 62.7239 27.3395 63.7911 32.6753 63.7911C34.4361 63.7911 36.0902 63.5243 37.6376 62.9907C39.2384 62.4571 40.4923 61.8969 41.3994 61.3099C41.6662 61.0965 41.933 60.883 42.1998 60.6696C42.4665 60.4562 42.6533 60.4028 42.76 60.5095C43.0268 60.723 43.0535 60.9364 42.8401 61.1498C42.68 61.4166 42.4665 61.6567 42.1998 61.8702C41.7729 62.2437 41.2126 62.5905 40.519 62.9107C39.8253 63.2842 39.0249 63.6044 38.1178 63.8712C37.2641 64.1913 36.3303 64.4314 35.3165 64.5915C34.3027 64.7516 33.2889 64.8316 32.2751 64.8316C26.7792 64.8316 22.2171 63.6844 18.5887 61.3899C14.9603 59.1489 12.3191 56.054 10.665 52.1054C10.0247 52.3189 9.06424 52.5857 7.78364 52.9058C6.50304 53.226 5.19577 53.4394 3.86181 53.5461C3.06143 53.6528 2.31442 53.5728 1.62076 53.306C0.927101 53.0392 0.606951 52.6924 0.660309 52.2655C0.660309 51.4651 1.16721 50.8782 2.18102 50.5046C3.14147 50.1311 4.10192 49.891 5.06237 49.7843C5.9161 49.6776 6.79651 49.6776 7.70361 49.7843C8.6107 49.8376 9.35771 49.9177 9.94465 50.0244C9.09092 47.3031 8.66406 44.2349 8.66406 40.8199C8.66406 35.0037 9.94465 29.5611 12.5059 24.4919C15.1204 19.4228 18.8288 14.9406 23.6311 11.0454C27.5796 7.84383 32.115 5.20254 37.2374 3.12153C42.3598 1.04051 47.9358 0 53.9653 0C56.3664 0 58.5007 0.133398 60.3683 0.400195C62.2892 0.666995 63.9966 1.04051 65.4907 1.52074C66.9847 2.00098 68.3186 2.56125 69.4925 3.20156C70.6664 3.78852 71.7336 4.42883 72.694 5.1225C73.1742 4.74899 73.7612 4.34879 74.4548 3.92191C75.2019 3.44168 75.9756 2.98813 76.7759 2.56125C77.5763 2.08102 78.4034 1.68082 79.2571 1.36067C80.1108 1.04051 80.9112 0.800393 81.6582 0.640314C82.4052 0.533596 83.1256 0.480238 83.8192 0.480238C84.5663 0.426876 84.9131 0.533595 84.8597 0.800394ZM77.6563 24.8121C78.0299 22.8378 78.1633 20.9702 78.0565 19.2094C77.9498 17.3952 77.6563 15.741 77.1761 14.247C76.7493 12.6995 76.1623 11.3122 75.4153 10.0849C74.6683 8.85766 73.8679 7.79047 73.0142 6.88336C70.8265 8.75094 68.7989 10.6719 66.9313 12.6462C65.0638 14.6205 63.303 16.5948 61.6489 18.5691C60.0481 20.5434 58.5274 22.4376 57.0867 24.2518C55.646 26.066 54.2854 27.6935 53.0048 29.1342C49.1097 33.5097 45.4279 37.0848 41.9596 39.8594C38.5447 42.5808 35.3165 44.7418 32.2751 46.3426C29.2337 47.9434 26.3523 49.0639 23.6311 49.7042C20.9098 50.3446 18.3486 50.7448 15.9475 50.9048C17.3881 51.225 19.0689 51.5451 20.9898 51.8653C22.9641 52.1321 24.9917 52.3989 27.0727 52.6657C29.207 52.8791 31.3413 53.0392 33.4757 53.1459C35.61 53.306 37.6376 53.386 39.5585 53.386C43.1335 53.386 46.335 53.0659 49.163 52.4256C51.991 51.7319 54.4988 50.9048 56.6865 49.9444C58.8742 48.9305 60.7418 47.8633 62.2892 46.7428C63.8365 45.5689 65.1438 44.5017 66.211 43.5412C67.3849 42.4207 68.5854 41.1668 69.8127 39.7794C71.0399 38.3387 72.1604 36.818 73.1743 35.2172C74.2414 33.563 75.1752 31.8555 75.9756 30.0947C76.7759 28.3338 77.3362 26.573 77.6563 24.8121ZM71.7336 5.84285C70.1862 4.61559 68.1052 3.57508 65.4907 2.72133C62.8761 1.81422 59.5679 1.36067 55.566 1.36067C52.5246 1.36067 49.5632 1.7075 46.6819 2.40117C43.8005 3.04148 41.0792 3.92191 38.518 5.04246C35.9568 6.10965 33.5824 7.33691 31.3947 8.72426C29.207 10.1116 27.2594 11.5256 25.552 12.9663C23.3109 14.8339 21.2299 16.8616 19.309 19.0493C17.4415 21.1837 15.8141 23.4514 14.4268 25.8526C13.0928 28.2538 12.0523 30.7617 11.3053 33.3763C10.5583 35.9909 10.1848 38.6855 10.1848 41.4602C10.1848 44.7685 10.6116 47.6766 11.4654 50.1845C14.7736 50.0778 17.8684 49.6242 20.7497 48.8238C23.6311 47.9701 26.4591 46.7161 29.2337 45.062C32.0617 43.3545 34.943 41.1667 37.8777 38.4988C40.8124 35.8308 44.0406 32.6026 47.5623 28.8141C49.5365 26.6797 51.5375 24.5453 53.5651 22.4109C55.646 20.2766 57.7003 18.2222 59.728 16.2479C61.7556 14.2203 63.7832 12.326 65.8108 10.5652C67.8384 8.8043 69.8127 7.2302 71.7336 5.84285Z" fill="#898989"/>
<path d="M225.945 72.3286V73.169H221.929V79.3454H220.982V72.3286H225.945Z" fill="#898989"/>
<path d="M212.918 72.2753C214.919 72.2753 216.413 73.716 216.413 75.837C216.413 77.9714 214.919 79.4121 212.918 79.4121C211.797 79.4121 210.837 78.9318 210.25 78.0247V81.9333H209.303V72.3286H210.21V73.716C210.784 72.7822 211.757 72.2753 212.918 72.2753ZM212.851 78.5717C214.332 78.5717 215.466 77.4778 215.466 75.837C215.466 74.2095 214.332 73.1023 212.851 73.1023C211.357 73.1023 210.237 74.2095 210.237 75.837C210.237 77.4778 211.357 78.5717 212.851 78.5717Z" fill="#898989"/>
<path d="M204.359 72.3286H205.293L201.785 80.1858C201.198 81.5598 200.451 82 199.45 82C198.796 82 198.17 81.7866 197.743 81.3597L198.183 80.6527C198.53 80.9995 198.957 81.1863 199.463 81.1863C200.09 81.1863 200.517 80.8928 200.917 80.0124L201.224 79.332L198.089 72.3286H199.077L201.718 78.2915L204.359 72.3286Z" fill="#898989"/>
<path d="M191.461 72.2753C193.462 72.2753 194.956 73.716 194.956 75.837C194.956 77.9714 193.462 79.4121 191.461 79.4121C190.341 79.4121 189.38 78.9318 188.793 78.0247V81.9333H187.846V72.3286H188.753V73.716C189.327 72.7822 190.301 72.2753 191.461 72.2753ZM191.394 78.5717C192.875 78.5717 194.009 77.4778 194.009 75.837C194.009 74.2095 192.875 73.1023 191.394 73.1023C189.9 73.1023 188.78 74.2095 188.78 75.837C188.78 77.4778 189.9 78.5717 191.394 78.5717Z" fill="#898989"/>
<path d="M176.128 79.3454V72.3286H177.075V77.9047L181.757 72.3286H182.597V79.3454H181.65V73.7693L176.981 79.3454H176.128Z" fill="#898989"/>
<path d="M172.041 79.3454H170.96L168.733 76.4106L166.491 79.3454H165.424L168.199 75.7436L165.558 72.3286H166.625L168.733 75.0766L170.84 72.3286H171.881L169.239 75.7436L172.041 79.3454Z" fill="#898989"/>
<path d="M152.015 71.3281C150.828 71.3281 150.055 70.7145 150.028 69.5939H150.708C150.721 70.301 151.255 70.7412 152.015 70.7412C152.776 70.7412 153.309 70.301 153.336 69.5939H154.016C153.99 70.7145 153.203 71.3281 152.015 71.3281ZM148.827 79.3454V72.3286H149.774V77.9047L154.457 72.3286H155.297V79.3454H154.35V73.7693L149.681 79.3454H148.827Z" fill="#898989"/>
<path d="M137.109 79.3454V72.3286H138.056V77.9047L142.738 72.3286H143.578V79.3454H142.631V73.7693L137.962 79.3454H137.109Z" fill="#898989"/>
<path d="M131.959 79.3454L129.371 76.2238H127.77V79.3454H126.823V72.3286H127.77V75.4101H129.384L131.852 72.3286H132.879L130.118 75.7303L133.079 79.3454H131.959Z" fill="#898989"/>
<path d="M119.707 79.4121C117.613 79.4121 116.092 77.9313 116.092 75.837C116.092 73.7426 117.613 72.2753 119.707 72.2753C120.894 72.2753 121.895 72.7421 122.455 73.6626L121.748 74.1428C121.268 73.4358 120.521 73.1023 119.707 73.1023C118.173 73.1023 117.052 74.1962 117.052 75.837C117.052 77.4911 118.173 78.5717 119.707 78.5717C120.521 78.5717 121.268 78.2515 121.748 77.5445L122.455 78.0247C121.895 78.9318 120.894 79.4121 119.707 79.4121Z" fill="#898989"/>
<path d="M112.141 75.837C112.141 75.917 112.128 76.0238 112.128 76.1305H106.258C106.365 77.5979 107.486 78.5717 109.02 78.5717C109.873 78.5717 110.634 78.2648 111.167 77.6512L111.701 78.2648C111.074 79.0119 110.1 79.4121 108.993 79.4121C106.805 79.4121 105.311 77.918 105.311 75.837C105.311 73.756 106.765 72.2753 108.74 72.2753C110.714 72.2753 112.141 73.7293 112.141 75.837ZM108.74 73.089C107.379 73.089 106.378 74.0495 106.258 75.4235H111.234C111.114 74.0495 110.114 73.089 108.74 73.089Z" fill="#898989"/>
<path d="M99.8203 72.3286H100.767V79.3454H99.8203V76.4239C99.0332 76.7708 98.2195 76.9575 97.4325 76.9575C95.7917 76.9575 94.7512 76.2238 94.7512 74.6364V72.3286H95.6983V74.5831C95.6983 75.6502 96.432 76.1838 97.6059 76.1838C98.2862 76.1838 99.0332 75.9971 99.8203 75.6636V72.3286Z" fill="#898989"/>
<path d="M83.7531 79.3454V72.3286H84.7002V77.9047L89.3824 72.3286H90.2227V79.3454H89.2756V73.7693L84.6068 79.3454H83.7531Z" fill="#898989"/>
<path d="M79.8491 72.3286V73.169H77.1946V79.3454H76.2475V73.169H73.5929V72.3286H79.8491Z" fill="#898989"/>
<path d="M67.9274 79.4121C65.8331 79.4121 64.3124 77.9313 64.3124 75.837C64.3124 73.7426 65.8331 72.2753 67.9274 72.2753C69.1146 72.2753 70.1151 72.7421 70.6754 73.6626L69.9684 74.1428C69.4881 73.4358 68.7411 73.1023 67.9274 73.1023C66.3934 73.1023 65.2728 74.1962 65.2728 75.837C65.2728 77.4911 66.3934 78.5717 67.9274 78.5717C68.7411 78.5717 69.4881 78.2515 69.9684 77.5445L70.6754 78.0247C70.1151 78.9318 69.1146 79.4121 67.9274 79.4121Z" fill="#898989"/>
<path d="M57.0956 72.2753C58.9098 72.2753 59.9369 73.1824 59.9369 74.9966V79.3454H59.0298V78.2515C58.603 78.9719 57.7759 79.4121 56.6154 79.4121C55.0279 79.4121 54.0542 78.585 54.0542 77.3711C54.0542 76.2906 54.7478 75.3834 56.7621 75.3834H58.9898V74.9566C58.9898 73.756 58.3095 73.1023 57.0022 73.1023C56.0951 73.1023 55.2414 73.4225 54.6678 73.9294L54.2409 73.2224C54.9479 72.6221 55.9884 72.2753 57.0956 72.2753ZM56.7621 78.665C57.8293 78.665 58.6163 78.1581 58.9898 77.2377V76.0904H56.7888C55.4281 76.0904 54.9879 76.624 54.9879 77.3444C54.9879 78.1581 55.6416 78.665 56.7621 78.665Z" fill="#898989"/>
<path d="M44.3185 72.3286H49.4542V79.3454H48.5071V73.169H45.1455L45.0521 74.9032C44.9321 77.3577 44.6253 79.4388 43.1179 79.4388C42.9045 79.4388 42.691 79.3987 42.4376 79.332L42.5043 78.5183C42.6243 78.545 42.7444 78.5717 42.8378 78.5717C43.9983 78.5717 44.105 76.6907 44.1984 74.8365L44.3185 72.3286Z" fill="#898989"/>
<path d="M32.1951 72.3286H38.4913V79.3454H37.5442V73.169H33.1422V79.3454H32.1951V72.3286Z" fill="#898989"/>
<path d="M0 75.1767V74.3429H20.8431V75.1767H0Z" fill="#898989"/>
<path d="M235.11 76.8442V76.0104H255.953V76.8442H235.11Z" fill="#898989"/>
</svg>
