<svg width="771" height="196" viewBox="0 0 771 196" fill="none" xmlns="http://www.w3.org/2000/svg">
<g opacity="0.1">
<path d="M770.965 96.5482C770.804 98.1613 770.24 99.3712 769.274 100.178C768.468 100.984 767.824 101.307 767.34 101.146C767.018 100.984 766.615 100.742 766.132 100.42C765.649 99.9358 765.085 99.5325 764.44 99.2099C763.313 98.5646 762.346 98.1613 761.54 98C760.896 97.6774 759.768 97.4354 758.157 97.2741C755.74 97.1128 752.679 97.9193 748.974 99.6938C745.268 101.468 741.321 103.807 737.132 106.711C732.943 109.615 728.593 112.922 724.082 116.632C719.571 120.342 715.301 124.133 711.273 128.005C707.407 131.715 704.184 134.861 701.607 137.442C699.19 139.862 696.934 142.281 694.84 144.701C692.907 146.96 690.893 149.46 688.798 152.202C686.543 154.945 683.804 158.333 680.582 162.365C679.776 162.365 679.212 161.962 678.89 161.156C678.407 160.51 678.084 159.704 677.923 158.736C677.762 157.607 677.762 156.558 677.923 155.59C677.923 154.461 678.084 153.574 678.406 152.928C681.629 146.798 686.059 140.265 691.698 133.328C697.176 126.23 703.137 119.294 709.582 112.519C713.448 108.324 717.315 104.533 721.182 101.146C725.21 97.5967 728.674 94.935 731.574 93.1605C733.507 91.87 736.004 90.9021 739.065 90.2568C742.288 89.4502 745.429 89.0469 748.49 89.0469C743.496 92.2732 737.857 96.7095 731.574 102.356C725.29 107.84 719.571 113.648 714.415 119.778L715.14 120.746C718.523 117.842 722.471 114.454 726.982 110.583C731.493 106.711 736.085 103.162 740.757 99.9358C745.429 96.5481 749.94 93.8058 754.29 91.7086C758.802 89.6115 762.507 88.8049 765.407 89.2889C767.502 89.6115 768.952 90.4988 769.757 91.9506C770.724 93.2411 771.127 94.7737 770.965 96.5482Z" fill="#434343"/>
<path d="M708.022 90.0148C702.867 94.693 697.792 99.4519 692.797 104.291C687.803 108.97 683.13 113.486 678.78 117.842C674.591 122.198 670.725 126.23 667.18 129.941C663.797 133.651 661.058 136.716 658.964 139.136C655.258 143.814 652.358 147.766 650.263 150.993C648.33 154.058 648.25 155.993 650.022 156.8C650.988 157.284 652.358 157.123 654.13 156.316C656.064 155.509 658.158 154.461 660.414 153.17C662.83 151.719 665.166 150.186 667.422 148.573C669.678 146.798 671.691 145.266 673.464 143.975C677.33 140.91 681.358 137.523 685.547 133.812C689.897 130.102 693.522 126.956 696.422 124.375C696.744 124.053 697.228 123.811 697.872 123.649C698.517 123.327 699 123.488 699.322 124.133C699.644 124.94 699.644 125.585 699.322 126.069C699 126.392 698.597 126.795 698.114 127.279C694.569 130.344 690.622 133.732 686.272 137.442C682.083 140.991 678.539 143.975 675.639 146.395C673.866 147.847 671.772 149.46 669.355 151.235C667.1 152.848 664.764 154.38 662.347 155.832C659.93 157.284 657.594 158.494 655.339 159.462C653.244 160.43 651.391 160.914 649.78 160.914C647.686 160.914 645.913 160.43 644.463 159.462C643.013 158.655 641.966 157.365 641.322 155.59C640.838 153.816 640.919 151.719 641.563 149.299C642.208 146.718 643.658 143.733 645.913 140.346C638.825 146.314 632.219 151.235 626.097 155.106C619.974 158.978 614.98 160.914 611.113 160.914C606.924 160.914 604.347 159.542 603.38 156.8C602.413 154.058 602.655 150.589 604.105 146.395C605.394 142.201 607.649 137.684 610.872 132.844C613.933 127.844 617.558 123.246 621.747 119.052C626.58 114.212 631.977 109.615 637.938 105.259C644.061 100.904 650.022 97.2741 655.822 94.3704C661.783 91.4667 667.261 89.4502 672.255 88.321C677.25 87.1918 681.036 87.3531 683.614 88.8049C685.225 89.7728 685.869 91.628 685.547 94.3704C685.386 97.1128 682.969 100.742 678.297 105.259C683.13 101.226 687.158 98.0807 690.38 95.8222C693.764 93.4025 696.503 91.7893 698.597 90.9827C701.497 90.0148 704.639 89.6922 708.022 90.0148ZM681.68 91.9506C679.425 90.1761 673.947 92.1926 665.247 98C656.547 103.646 645.752 112.599 632.863 124.859C629.158 128.408 625.694 132.038 622.472 135.748C619.411 139.297 616.913 142.604 614.98 145.669C612.885 148.573 611.516 151.073 610.872 153.17C610.227 155.267 610.63 156.639 612.08 157.284C613.208 157.768 615.222 157.284 618.122 155.832C621.183 154.219 624.808 151.96 628.997 149.057C633.347 145.992 638.019 142.281 643.013 137.926C648.008 133.57 653.083 128.731 658.239 123.407C660.655 120.988 663.394 118.165 666.455 114.938C669.677 111.712 672.578 108.566 675.155 105.501C677.894 102.436 679.989 99.6938 681.439 97.2741C682.889 94.693 682.969 92.9185 681.68 91.9506Z" fill="#434343"/>
<path d="M618.841 125.827C619.485 126.472 619.485 127.118 618.841 127.763C618.358 128.408 617.794 128.973 617.149 129.457C613.444 133.006 609.174 136.797 604.341 140.83C599.508 144.701 594.835 148.17 590.324 151.235C585.491 154.784 580.657 157.445 575.824 159.22C571.152 161.156 567.446 161.801 564.707 161.156C563.257 160.833 561.968 160.026 560.841 158.736C559.874 157.445 559.229 155.832 558.907 153.896C558.746 151.96 558.988 149.783 559.632 147.363C560.438 144.943 561.807 142.281 563.741 139.378C565.191 137.281 566.641 135.426 568.091 133.812C569.541 132.038 571.071 130.344 572.682 128.731C574.293 126.956 576.066 125.182 577.999 123.407C579.932 121.633 582.107 119.616 584.524 117.358C586.619 115.422 589.196 113.164 592.257 110.583C595.48 108.002 598.46 105.501 601.199 103.081C603.938 100.5 606.033 98.242 607.483 96.3062C609.094 94.2091 609.416 92.7572 608.449 91.9506C607.644 91.3054 605.227 91.87 601.199 93.6444C597.171 95.2576 592.419 97.6774 586.941 100.904C581.624 103.969 575.985 107.518 570.024 111.551C564.224 115.584 559.068 119.616 554.557 123.649C550.046 127.521 546.26 130.989 543.199 134.054C540.138 137.119 537.318 140.104 534.74 143.007C532.324 145.911 529.907 148.895 527.49 151.96C525.074 155.026 522.254 158.494 519.032 162.365C518.226 162.365 517.582 161.962 517.099 161.156C516.776 160.51 516.535 159.704 516.374 158.736C516.374 157.607 516.374 156.558 516.374 155.59C516.535 154.461 516.776 153.574 517.099 152.928C518.71 149.863 520.401 146.96 522.174 144.217C524.107 141.314 526.121 138.491 528.215 135.748C530.471 133.006 532.968 130.183 535.707 127.279C538.446 124.214 541.427 120.907 544.649 117.358C546.582 115.422 549.079 113.083 552.141 110.341C555.363 107.598 558.343 104.937 561.082 102.356C563.982 99.7745 566.238 97.5161 567.849 95.5802C569.46 93.6444 569.702 92.4346 568.574 91.9506C567.124 91.3054 564.063 92.1119 559.391 94.3704C554.718 96.4675 549.402 99.3712 543.44 103.081C537.479 106.63 531.438 110.663 525.315 115.18C519.193 119.697 514.037 123.972 509.849 128.005C505.982 131.715 502.76 134.861 500.182 137.442C497.765 139.862 495.51 142.281 493.415 144.701C491.482 146.96 489.468 149.46 487.373 152.202C485.118 154.945 482.379 158.333 479.157 162.365C478.351 162.365 477.787 161.962 477.465 161.156C476.982 160.51 476.659 159.704 476.498 158.736C476.337 157.607 476.337 156.558 476.498 155.59C476.498 154.461 476.659 153.574 476.982 152.928C480.043 147.282 484.232 141.072 489.548 134.296C494.704 127.521 500.907 120.262 508.157 112.519C512.024 108.324 515.971 104.533 519.999 101.146C524.188 97.5967 527.732 94.8543 530.632 92.9185C532.727 91.628 535.224 90.6601 538.124 90.0148C541.185 89.3695 544.246 89.0469 547.307 89.0469C545.052 90.4988 542.554 92.4346 539.815 94.8543C537.077 97.1128 534.177 99.6938 531.115 102.598C528.054 105.34 524.913 108.324 521.69 111.551C518.629 114.616 515.729 117.761 512.99 120.988C517.34 117.439 522.335 113.648 527.974 109.615C533.613 105.582 539.171 101.872 544.649 98.484C550.127 95.0963 555.282 92.4346 560.116 90.4988C565.11 88.563 569.057 87.837 571.957 88.321C573.891 88.6436 575.18 89.4502 575.824 90.7407C576.63 91.87 576.952 93.3218 576.791 95.0963C576.63 96.8708 576.066 98.8066 575.099 100.904C574.293 102.84 573.166 104.775 571.716 106.711C575.582 104.13 579.53 101.63 583.557 99.2099C587.585 96.7901 591.371 94.693 594.916 92.9185C598.621 90.9827 601.924 89.6115 604.824 88.8049C607.885 87.837 610.221 87.6757 611.833 88.321C615.699 89.7728 617.472 92.0313 617.149 95.0963C616.988 98 615.699 101.146 613.283 104.533C611.027 107.921 608.127 111.389 604.583 114.938C601.038 118.326 597.816 121.31 594.916 123.891C591.049 127.44 587.505 130.828 584.282 134.054C581.06 137.119 578.16 140.023 575.582 142.765C572.199 146.476 569.702 149.541 568.091 151.96C566.479 154.219 566.399 155.993 567.849 157.284C568.493 157.768 569.541 157.849 570.991 157.526C572.441 157.203 574.132 156.639 576.066 155.832C577.999 154.864 580.094 153.735 582.349 152.444C584.766 150.993 587.182 149.379 589.599 147.605C594.755 143.895 599.588 140.184 604.099 136.474C608.61 132.602 612.235 129.457 614.974 127.037C615.619 126.392 616.263 125.908 616.908 125.585C617.552 125.101 618.197 125.182 618.841 125.827Z" fill="#434343"/>
<path d="M533.241 40.8938C533.564 45.8947 532.919 50.8955 531.308 55.8963C529.697 60.7358 527.361 65.2527 524.3 69.4469C521.238 73.6412 517.533 77.1901 513.183 80.0938C508.833 82.9975 503.999 84.8527 498.683 85.6593C494.494 92.4346 489.741 99.1292 484.424 105.743C479.269 112.357 473.71 118.407 467.749 123.891C459.855 131.151 451.235 137.926 441.891 144.217C432.707 150.509 423.282 155.993 413.616 160.672C403.949 165.511 394.363 169.302 384.857 172.044C375.513 174.948 366.651 176.561 358.273 176.884C353.279 177.045 348.043 176.642 342.565 175.674C337.248 174.867 332.334 173.093 327.823 170.351C323.312 167.77 319.526 164.14 316.465 159.462C313.404 154.784 311.793 148.734 311.632 141.314C311.309 134.861 312.518 127.602 315.257 119.536C318.157 111.47 322.265 103.162 327.582 94.6123C333.059 85.9012 339.665 77.3514 347.398 68.963C355.293 60.4132 364.154 52.3473 373.982 44.7654C385.099 36.377 396.135 29.521 407.09 24.1975C418.046 18.7128 428.68 14.4379 438.991 11.3729C449.302 8.30782 458.969 6.29136 467.991 5.32346C477.013 4.35556 485.149 4.19425 492.399 4.83952C497.716 5.32346 502.791 6.45268 507.625 8.22717C512.458 9.84034 516.647 12.1794 520.191 15.2444C523.897 18.1482 526.877 21.7778 529.133 26.1333C531.389 30.3276 532.758 35.2477 533.241 40.8938ZM527.2 40.6519C526.394 30.3276 522.769 22.5844 516.325 17.4222C509.88 12.2601 502.066 9.27572 492.883 8.46914C478.866 7.01729 462.271 9.84034 443.099 16.9383C424.088 23.8749 403.949 35.7317 382.682 52.5086C373.176 60.0905 364.315 67.8337 356.098 75.7383C348.043 83.4815 341.115 91.2247 335.315 98.9679C329.515 106.55 324.923 113.89 321.54 120.988C318.318 128.086 316.787 134.78 316.948 141.072C316.948 149.621 318.72 156.074 322.265 160.43C325.97 164.947 330.24 168.173 335.073 170.109C340.068 172.044 345.062 173.012 350.057 173.012C355.051 173.174 358.918 173.174 361.657 173.012C355.857 171.883 351.507 169.544 348.607 165.995C345.707 162.607 343.854 158.655 343.048 154.138C342.404 149.621 342.565 144.863 343.532 139.862C344.66 134.861 346.271 130.183 348.365 125.827C354.487 112.438 362.06 100.581 371.082 90.2568C380.265 79.9325 390.013 70.8181 400.324 62.9136C408.218 56.9449 416.354 51.7827 424.732 47.4272C433.271 43.0716 441.568 39.5226 449.624 36.7802C457.841 33.8765 465.574 31.9407 472.824 30.9728C480.235 29.8436 486.841 29.6017 492.641 30.2469C495.702 30.5695 498.602 31.4568 501.341 32.9086C504.08 34.3605 506.336 36.2963 508.108 38.716C509.88 41.1358 511.008 44.0395 511.491 47.4272C512.136 50.8148 511.894 54.5251 510.766 58.558C508.511 66.4626 504.966 74.6897 500.133 83.2395C504.483 81.7876 508.349 79.5292 511.733 76.4642C515.277 73.3992 518.258 69.9309 520.675 66.0593C523.091 62.0263 524.863 57.8321 525.991 53.4765C527.119 48.9597 527.522 44.6848 527.2 40.6519ZM507.383 57.3481C508.349 53.6379 508.591 50.4115 508.108 47.6691C507.786 44.7654 506.899 42.265 505.449 40.1679C503.999 38.0708 502.066 36.4576 499.649 35.3284C497.394 34.1992 494.897 33.4732 492.158 33.1506C486.519 32.5053 480.316 32.9893 473.549 34.6025C466.783 36.0543 459.694 38.3934 452.282 41.6198C444.871 44.8461 437.218 48.879 429.324 53.7185C421.591 58.3967 413.857 63.6395 406.124 69.4469C401.129 73.3185 395.974 77.5128 390.657 82.0296C385.501 86.3852 380.507 91.0634 375.674 96.0642C370.84 100.904 366.329 105.985 362.14 111.309C358.112 116.632 354.729 122.117 351.99 127.763C349.896 131.796 348.204 136.393 346.915 141.556C345.787 146.556 345.707 151.315 346.673 155.832C347.64 160.188 349.976 163.898 353.682 166.963C357.548 170.028 363.429 171.561 371.324 171.561C378.735 170.109 386.307 167.689 394.04 164.301C401.935 161.075 409.829 157.123 417.724 152.444C425.618 147.766 433.352 142.523 440.924 136.716C448.657 130.747 456.069 124.456 463.158 117.842C467.991 113.325 472.744 108.486 477.416 103.323C482.088 98.1613 486.438 92.9992 490.466 87.837C494.494 82.5136 497.958 77.2708 500.858 72.1086C503.758 66.9465 505.933 62.0263 507.383 57.3481Z" fill="#434343"/>
<path d="M285.781 154.38C285.781 156.155 285.217 157.687 284.089 158.978C282.8 160.107 281.269 160.672 279.497 160.672C277.725 160.672 276.194 160.107 274.905 158.978C273.617 157.687 272.972 156.155 272.972 154.38C272.972 152.606 273.617 151.073 274.905 149.783C276.194 148.331 277.725 147.605 279.497 147.605C281.269 147.605 282.8 148.331 284.089 149.783C285.217 151.073 285.781 152.606 285.781 154.38Z" fill="#898989"/>
<path d="M316.138 96.5482C315.977 98.1613 315.413 99.3712 314.447 100.178C313.641 100.984 312.997 101.307 312.513 101.146C312.191 100.984 311.788 100.742 311.305 100.42C310.822 99.9358 310.258 99.5325 309.613 99.2099C308.485 98.5646 307.519 98.1613 306.713 98C306.069 97.6774 304.941 97.4354 303.33 97.2741C300.913 97.1128 297.852 97.9193 294.146 99.6938C290.441 101.468 286.494 103.807 282.305 106.711C278.116 109.615 273.766 112.922 269.255 116.632C264.743 120.342 260.474 124.133 256.446 128.005C252.579 131.715 249.357 134.861 246.779 137.442C244.363 139.862 242.107 142.281 240.013 144.701C238.079 146.96 236.065 149.46 233.971 152.202C231.715 154.945 228.977 158.333 225.754 162.365C224.949 162.365 224.385 161.962 224.063 161.156C223.579 160.51 223.257 159.704 223.096 158.736C222.935 157.607 222.935 156.558 223.096 155.59C223.096 154.461 223.257 153.574 223.579 152.928C226.802 146.798 231.232 140.265 236.871 133.328C242.349 126.23 248.31 119.294 254.755 112.519C258.621 108.324 262.488 104.533 266.355 101.146C270.382 97.5967 273.846 94.935 276.746 93.1605C278.68 91.87 281.177 90.9021 284.238 90.2568C287.46 89.4502 290.602 89.0469 293.663 89.0469C288.669 92.2732 283.03 96.7095 276.746 102.356C270.463 107.84 264.743 113.648 259.588 119.778L260.313 120.746C263.696 117.842 267.643 114.454 272.155 110.583C276.666 106.711 281.257 103.162 285.93 99.9358C290.602 96.5481 295.113 93.8058 299.463 91.7086C303.974 89.6115 307.68 88.8049 310.58 89.2889C312.674 89.6115 314.124 90.4988 314.93 91.9506C315.897 93.2411 316.299 94.7737 316.138 96.5482Z" fill="#898989"/>
<path d="M254.252 2.41976C254.091 3.06502 253.366 3.38765 252.077 3.38765C250.788 3.38765 248.855 3.71029 246.277 4.35556C242.088 5.32346 237.577 7.25927 232.744 10.163C228.072 13.0667 224.285 15.8897 221.385 18.6321C226.219 22.9877 230.166 27.8272 233.227 33.1506C236.449 38.4741 238.866 43.8782 240.477 49.363C242.249 54.8477 243.297 60.2519 243.619 65.5753C243.941 70.7374 243.699 75.4156 242.894 79.6099C241.283 87.6757 239.108 94.8543 236.369 101.146C233.63 107.276 230.488 112.841 226.944 117.842C223.399 122.681 219.613 127.037 215.585 130.909C211.558 134.78 207.53 138.41 203.502 141.798C194.157 148.895 182.316 154.703 167.977 159.22C153.638 163.898 136.721 165.995 117.226 165.511C109.332 165.35 101.518 164.866 93.7846 164.059C86.2123 163.253 78.8011 162.365 71.5511 161.398C64.4621 160.43 57.6954 159.462 51.2509 158.494C44.9676 157.526 39.2481 156.8 34.0925 156.316C38.7647 167.931 46.337 176.884 56.8093 183.175C67.2816 189.628 80.5734 192.854 96.6846 192.854C102.001 192.854 106.996 192.048 111.668 190.435C116.501 188.821 120.288 187.128 123.026 185.353C123.832 184.708 124.638 184.063 125.443 183.417C126.249 182.772 126.813 182.611 127.135 182.933C127.94 183.579 128.021 184.224 127.376 184.869C126.893 185.676 126.249 186.402 125.443 187.047C124.154 188.176 122.463 189.225 120.368 190.193C118.274 191.322 115.857 192.29 113.118 193.096C110.54 194.064 107.721 194.79 104.66 195.274C101.599 195.758 98.5374 196 95.4762 196C78.8817 196 65.1066 192.532 54.151 185.595C43.1953 178.82 35.2203 169.463 30.2258 157.526C28.2925 158.171 25.3924 158.978 21.5257 159.946C17.659 160.914 13.7118 161.559 9.68399 161.881C7.26731 162.204 5.01174 161.962 2.91728 161.156C0.822824 160.349 -0.14385 159.3 0.017262 158.01C0.017262 155.59 1.54783 153.816 4.60896 152.686C7.50898 151.557 10.409 150.831 13.309 150.509C15.8868 150.186 18.5452 150.186 21.2841 150.509C24.023 150.67 26.2785 150.912 28.0508 151.235C25.473 143.007 24.1841 133.732 24.1841 123.407C24.1841 105.824 28.0508 89.3695 35.7842 74.0444C43.6787 58.7193 54.876 45.1687 69.3761 33.3926C81.2984 23.7136 94.9929 15.7284 110.46 9.43704C125.926 3.14568 142.763 0 160.968 0C168.218 0 174.663 0.403292 180.302 1.20988C186.102 2.01647 191.257 3.14569 195.769 4.59753C200.28 6.04938 204.308 7.74321 207.852 9.67902C211.396 11.4535 214.619 13.3893 217.519 15.4864C218.969 14.3572 220.741 13.1473 222.835 11.8568C225.091 10.4049 227.427 9.03375 229.844 7.74321C232.26 6.29136 234.758 5.08148 237.336 4.11358C239.913 3.14569 242.33 2.41976 244.586 1.93581C246.841 1.61318 249.016 1.45186 251.111 1.45186C253.366 1.29054 254.413 1.61317 254.252 2.41976ZM232.502 75.0123C233.63 69.0436 234.033 63.3975 233.711 58.0741C233.388 52.5893 232.502 47.5885 231.052 43.0716C229.763 38.3934 227.991 34.1992 225.735 30.4889C223.48 26.7786 221.063 23.5523 218.485 20.8099C211.88 26.456 205.758 32.2634 200.119 38.2321C194.48 44.2008 189.163 50.1695 184.168 56.1383C179.335 62.107 174.743 67.8337 170.393 73.3185C166.043 78.8033 161.935 83.7235 158.068 88.079C146.307 101.307 135.19 112.115 124.718 120.504C114.407 128.731 104.66 135.264 95.4762 140.104C86.2928 144.943 77.5928 148.331 69.3761 150.267C61.1593 152.202 53.426 153.412 46.1759 153.896C50.5259 154.864 55.601 155.832 61.401 156.8C67.3622 157.607 73.4844 158.413 79.7678 159.22C86.2123 159.865 92.6568 160.349 99.1013 160.672C105.546 161.156 111.668 161.398 117.468 161.398C128.263 161.398 137.929 160.43 146.468 158.494C155.007 156.397 162.579 153.896 169.185 150.993C175.791 147.928 181.43 144.701 186.102 141.314C190.774 137.765 194.721 134.538 197.944 131.635C201.488 128.247 205.113 124.456 208.819 120.262C212.524 115.906 215.908 111.309 218.969 106.469C222.191 101.468 225.01 96.3062 227.427 90.9827C229.844 85.6593 231.535 80.3358 232.502 75.0123ZM214.619 17.6642C209.946 13.9539 203.663 10.8082 195.769 8.22717C187.874 5.48478 177.885 4.11358 165.802 4.11358C156.618 4.11358 147.677 5.16214 138.977 7.25927C130.276 9.19506 122.06 11.8568 114.326 15.2444C106.593 18.4708 99.4235 22.1811 92.8179 26.3753C86.2123 30.5696 80.3317 34.8445 75.1761 39.2C68.4094 44.8461 62.126 50.9761 56.326 57.5901C50.687 64.0428 45.7731 70.8988 41.5842 78.158C37.5564 85.4173 34.4147 92.9992 32.1591 100.904C29.9036 108.808 28.7758 116.955 28.7758 125.343C28.7758 135.345 30.0647 144.137 32.6425 151.719C42.6314 151.396 51.9759 150.025 60.676 147.605C69.3761 145.024 77.915 141.233 86.2928 136.232C94.8318 131.07 103.532 124.456 112.393 116.39C121.254 108.324 131.001 98.5646 141.635 87.1111C147.596 80.6584 153.638 74.2058 159.76 67.7531C166.043 61.3004 172.246 55.0897 178.368 49.121C184.491 42.9909 190.613 37.2642 196.735 31.9407C202.858 26.6173 208.819 21.8584 214.619 17.6642Z" fill="#898989"/>
</g>
</svg>
