<svg width="720" height="22" viewBox="0 0 720 22" fill="none" xmlns="http://www.w3.org/2000/svg">
<g opacity="0.5">
<path fill-rule="evenodd" clip-rule="evenodd" d="M13 6.00195V3.00195C13 2.73695 13.1054 2.48195 13.2929 2.29495C13.4804 2.10695 13.7348 2.00195 14 2.00195C14.2652 2.00195 14.5196 2.10695 14.7071 2.29495C14.8946 2.48195 15 2.73695 15 3.00195V6.00195H13ZM10 6.00195V1.00195C10 0.736953 10.1054 0.481952 10.2929 0.294952C10.4804 0.106952 10.7348 0.00195312 11 0.00195312C11.2652 0.00195312 11.5196 0.106952 11.7071 0.294952C11.8946 0.481952 12 0.736953 12 1.00195V6.00195H10ZM7 6.00195V3.00195C7 2.73695 7.10536 2.48195 7.29289 2.29495C7.48043 2.10695 7.73478 2.00195 8 2.00195C8.26522 2.00195 8.51957 2.10695 8.70711 2.29495C8.89464 2.48195 9 2.73695 9 3.00195V6.00195H7ZM4 6.00195V5.00195C4 4.73695 4.10536 4.48195 4.29289 4.29495C4.48043 4.10695 4.73478 4.00195 5 4.00195C5.26522 4.00195 5.51957 4.10695 5.70711 4.29495C5.89464 4.48195 6 4.73695 6 5.00195V6.00195H4Z" fill="white" fill-opacity="0.2"/>
<path d="M14 2.50195C14.133 2.50195 14.2603 2.55496 14.3535 2.64844L14.3545 2.64941C14.4472 2.74215 14.5 2.86942 14.5 3.00195V5.50195H13.5V3.00195C13.5 2.86942 13.5528 2.74215 13.6455 2.64941L13.6465 2.64844C13.7397 2.55496 13.867 2.50195 14 2.50195ZM11 0.501953C11.133 0.501953 11.2603 0.554955 11.3535 0.648438L11.3545 0.649414C11.4472 0.742151 11.5 0.869416 11.5 1.00195V5.50195H10.5V1.00195C10.5 0.869416 10.5528 0.742151 10.6455 0.649414L10.6465 0.648438C10.7397 0.554955 10.867 0.501953 11 0.501953ZM8 2.50195C8.133 2.50195 8.2602 2.5549 8.35352 2.64844L8.35449 2.64941C8.44722 2.74211 8.5 2.86935 8.5 3.00195V5.50195H7.5V3.00195C7.5 2.86935 7.55278 2.74211 7.64551 2.64941L7.64648 2.64844C7.7398 2.5549 7.867 2.50195 8 2.50195ZM5 4.50195C5.133 4.50195 5.2602 4.5549 5.35352 4.64844L5.35449 4.64941C5.44722 4.74211 5.5 4.86935 5.5 5.00195V5.50195H4.5V5.00195C4.5 4.86935 4.55278 4.74211 4.64551 4.64941L4.64648 4.64844C4.7398 4.5549 4.867 4.50195 5 4.50195Z" stroke="white" stroke-opacity="0.2"/>
</g>
<path fill-rule="evenodd" clip-rule="evenodd" d="M17 16.002V9.00195C17 8.73695 16.8946 8.48195 16.7071 8.29495C16.5196 8.10695 16.2652 8.00195 16 8.00195C15.7348 8.00195 15.4804 8.10695 15.2929 8.29495C15.1054 8.48195 15 8.73695 15 9.00195V12.0529C14.8348 12.0239 14.6677 12.007 14.5 12.002C13.5717 12.002 12.6815 12.3709 12.0251 13.0269C11.3688 13.6829 11 14.574 11 15.502C11.0059 15.67 11.0246 15.837 11.056 16.002H0V6.00195H20V16.002H17ZM5 9.00195C4.60444 9.00195 4.21775 9.11896 3.88885 9.33896C3.55996 9.55896 3.30361 9.87094 3.15224 10.2369C3.00086 10.6019 2.96127 11.004 3.03844 11.392C3.11561 11.78 3.30608 12.137 3.58578 12.416C3.86549 12.696 4.22186 12.886 4.60982 12.964C4.99778 13.041 5.39991 13.0009 5.76537 12.8499C6.13082 12.6979 6.44317 12.4419 6.66293 12.1129C6.8827 11.7839 7 11.398 7 11.002C7 10.472 6.78929 9.96295 6.41422 9.58795C6.03914 9.21295 5.53043 9.00195 5 9.00195Z" fill="white" fill-opacity="0.2"/>
<path d="M19.5 6.50195V15.502H17.5V9.00195C17.5 8.60491 17.3423 8.22259 17.0605 7.94141H17.0615C16.7798 7.65891 16.3974 7.50195 16 7.50195C15.6026 7.50195 15.2202 7.65891 14.9385 7.94141C14.6571 8.22255 14.5 8.60514 14.5 9.00195V11.502C13.4392 11.502 12.4219 11.9234 11.6719 12.6729C10.9217 13.4227 10.5 14.4415 10.5 15.502H0.5V6.50195H19.5ZM5 8.50195C4.50583 8.50195 4.02274 8.64867 3.61133 8.92383C3.20079 9.19844 2.87978 9.58758 2.69043 10.0449C2.50112 10.5014 2.45148 11.0044 2.54785 11.4893C2.6322 11.9134 2.8249 12.3086 3.10645 12.6348L3.23242 12.7695C3.58238 13.1197 4.02802 13.3569 4.51172 13.4541H4.5127C4.99768 13.5503 5.49995 13.5009 5.95605 13.3125L5.95703 13.3115C6.41308 13.1218 6.80424 12.8021 7.0791 12.3906C7.35361 11.9796 7.5 11.4969 7.5 11.002C7.5 10.3394 7.23647 9.70318 6.76758 9.23438C6.29888 8.76581 5.66318 8.50195 5 8.50195Z" stroke="white" stroke-opacity="0.2"/>
<g opacity="0.7">
<path d="M5 13.002C6.10457 13.002 7 12.107 7 11.002C7 9.89695 6.10457 9.00195 5 9.00195C3.89543 9.00195 3 9.89695 3 11.002C3 12.107 3.89543 13.002 5 13.002Z" fill="white" fill-opacity="0.2"/>
<path d="M5 9.50195C5.8285 9.50195 6.5 10.1732 6.5 11.002C6.5 11.8307 5.8285 12.502 5 12.502C4.1715 12.502 3.5 11.8307 3.5 11.002C3.5 10.1732 4.1715 9.50195 5 9.50195Z" stroke="white" stroke-opacity="0.2"/>
</g>
<g opacity="0.5">
<path fill-rule="evenodd" clip-rule="evenodd" d="M17 16.939C16.4192 17.875 15.6094 18.647 14.647 19.183C13.6847 19.719 12.6015 20.001 11.5 20.002H10.5C9.21674 20.002 7.96219 19.6219 6.89445 18.9099C5.82672 18.1979 4.99356 17.187 4.5 16.002H11.056C11.0246 15.837 11.0059 15.67 11 15.502C11 14.574 11.3688 13.6829 12.0251 13.0269C12.6815 12.3709 13.5717 12.002 14.5 12.002C14.6677 12.007 14.8348 12.0239 15 12.0529V9.00195C15 8.73695 15.1054 8.48195 15.2929 8.29495C15.4804 8.10695 15.7348 8.00195 16 8.00195C16.2652 8.00195 16.5196 8.10695 16.7071 8.29495C16.8946 8.48195 17 8.73695 17 9.00195V16.939Z" fill="white" fill-opacity="0.2"/>
<path d="M16 8.50195C16.133 8.50195 16.2603 8.55496 16.3535 8.64844L16.3545 8.64941C16.4472 8.74215 16.5 8.86942 16.5 9.00195V16.7881C15.9701 17.6004 15.2521 18.2734 14.4033 18.7461C13.5154 19.2406 12.5162 19.501 11.5 19.502H10.5C9.31554 19.502 8.15747 19.1513 7.17188 18.4941C6.40147 17.9804 5.76413 17.2976 5.30469 16.502H11.6602L11.5469 15.9082C11.5207 15.7706 11.5053 15.6313 11.5 15.4912C11.5028 14.6996 11.8191 13.9405 12.3789 13.3809C12.9396 12.8206 13.6988 12.5043 14.4912 12.502C14.6329 12.5065 14.7738 12.5215 14.9131 12.5459L15.5 12.6484V9.00195C15.5 8.86942 15.5528 8.74215 15.6455 8.64941L15.6465 8.64844C15.7397 8.55496 15.867 8.50195 16 8.50195Z" stroke="white" stroke-opacity="0.2"/>
</g>
<path fill-rule="evenodd" clip-rule="evenodd" d="M69.1079 16.0021C69.1079 16.0021 68.8779 14.6021 68.8009 14.2501H65.4829C65.3909 14.5251 64.9319 16.0021 64.9319 16.0021H62.2249L66.0639 6.84614C66.1593 6.57414 66.3446 6.34216 66.5893 6.18916C66.834 6.03716 67.1235 5.97214 67.4099 6.00614H69.4099L71.5099 16.0061H69.1099L69.1079 16.0021ZM67.7769 9.56113L67.5929 8.70713C67.4709 9.08813 67.2409 9.68413 67.2569 9.66813C67.2569 9.66813 66.4309 11.8802 66.2319 12.4602H68.3729C68.2659 11.9572 67.7769 9.56113 67.7769 9.56113ZM62.2089 8.31113C61.6042 8.03813 60.945 7.90715 60.2819 7.92915C59.2569 7.92915 58.7979 8.35615 58.7819 8.78315C58.7819 9.25715 59.3329 9.56114 60.2499 10.0191C61.7339 10.7191 62.4219 11.5911 62.4069 12.7351C62.3919 14.7941 60.6329 16.1351 57.9069 16.1351C56.9237 16.1381 55.9487 15.9572 55.0319 15.6022L55.3829 13.3591L55.7349 13.5271C56.486 13.8961 57.315 14.0801 58.1519 14.0611C58.4873 14.1261 58.8351 14.0621 59.1248 13.8811C59.4145 13.6991 59.6243 13.4141 59.7119 13.0841C59.7119 12.6421 59.3759 12.3211 58.3659 11.8331C57.3869 11.3611 56.0869 10.5682 56.1019 9.13316C56.1179 7.19616 57.9069 5.83314 60.4619 5.83314C61.2554 5.82814 62.0431 5.96715 62.7869 6.24415L62.4349 8.41114L62.2089 8.31113ZM50.8289 16.0021L52.4509 6.00214H55.0359L53.4149 16.0021H50.8289ZM44.6039 16.0021L42.5969 8.47413L42.4399 7.86314C42.7936 8.04014 43.1286 8.25213 43.4399 8.49613C44.3813 9.26413 45.1862 10.1861 45.8209 11.2221L45.8129 11.1791L45.8629 11.4381L46.1389 12.8111L48.6729 6.00214H51.4109L47.3419 16.0021H44.5999H44.6039Z" fill="white" fill-opacity="0.2"/>
<path d="M60.4624 6.33301H60.4653C61.0621 6.32927 61.6546 6.41542 62.2251 6.58496L62.0425 7.70801C61.4787 7.5077 60.8823 7.41083 60.2817 7.42871C59.7063 7.42874 59.2309 7.54828 58.8804 7.77734C58.5225 8.01135 58.2977 8.36379 58.2827 8.76465L58.2817 8.77344V8.7832C58.2818 9.25048 58.5668 9.57442 58.8687 9.80469C59.1657 10.0312 59.5785 10.2429 60.0269 10.4668L60.0366 10.4717C60.7379 10.8025 61.2073 11.1542 61.4985 11.5215C61.7813 11.8781 61.9127 12.2693 61.9067 12.7285V12.7314C61.9004 13.6038 61.5317 14.3086 60.8716 14.8086C60.1991 15.318 59.1936 15.6348 57.9067 15.6348H57.9058C57.1183 15.6372 56.3365 15.5124 55.5894 15.2686L55.7729 14.0938C56.5109 14.412 57.3085 14.571 58.1147 14.5596C58.5558 14.6307 59.0093 14.5436 59.3901 14.3057L59.3911 14.3047C59.7877 14.0555 60.0747 13.665 60.1948 13.2129L60.2124 13.1494V13.084C60.2124 12.7018 60.0527 12.3846 59.7593 12.1104C59.5575 11.9218 59.2846 11.746 58.9448 11.5654L58.5835 11.3828L58.2222 11.1992C57.8599 11.0037 57.5008 10.7709 57.2114 10.4873C56.8347 10.118 56.5964 9.68446 56.6021 9.13867V9.1377C56.6148 7.59092 58.0496 6.33301 60.4624 6.33301ZM67.3511 6.50293L67.3804 6.50586H69.0034L70.894 15.5059H69.5317C69.5147 15.4045 69.496 15.2909 69.4761 15.1738C69.4099 14.7852 69.3312 14.3338 69.2896 14.1436L69.2036 13.75H65.1226L65.0083 14.0918C64.9602 14.2357 64.821 14.6797 64.6958 15.0801C64.6485 15.2314 64.6026 15.3779 64.564 15.502H62.9771L66.5249 7.03906L66.5308 7.02539L66.5356 7.01172C66.5933 6.84724 66.7055 6.70699 66.853 6.61426C67.002 6.52173 67.178 6.48238 67.3511 6.50293ZM54.4487 6.50195L52.9897 15.502H51.4165L52.8765 6.50195H54.4487ZM50.6675 6.50195L47.0054 15.502H44.9888L43.2515 8.99316C44.0714 9.68478 44.7788 10.4997 45.3472 11.4102L45.3716 11.5332L45.3726 11.5371L45.6489 12.9102L45.9946 14.6318L46.6079 12.9854L49.02 6.50195H50.6675ZM67.1167 8.55469C67.0591 8.7345 66.974 8.97015 66.9028 9.16602C66.8683 9.26101 66.8369 9.34865 66.8149 9.41016C66.8043 9.44006 66.7932 9.47066 66.7856 9.49414C66.7842 9.49856 66.7819 9.50702 66.7788 9.51758V9.51855C66.7727 9.53493 66.7639 9.5592 66.7524 9.58984C66.7294 9.65154 66.696 9.74044 66.6558 9.84863C66.5752 10.0652 66.4658 10.36 66.3501 10.6729C66.1196 11.2959 65.8612 12.0008 65.7593 12.2979L65.5317 12.96H68.9907L68.8618 12.3564C68.8088 12.1073 68.6607 11.3845 68.5249 10.7217C68.4571 10.3908 68.3927 10.0752 68.3452 9.84277C68.3215 9.72691 68.3012 9.63182 68.2876 9.56543C68.2808 9.53222 68.2756 9.50594 68.272 9.48828C68.2702 9.47945 68.269 9.47232 68.2681 9.46777C68.2676 9.46564 68.2673 9.46399 68.2671 9.46289V9.46094L68.2661 9.45605L68.0815 8.60156L67.688 6.77246L67.1167 8.55469ZM67.2622 9.54492L66.9038 9.31445C66.9197 9.29856 66.9601 9.2605 67.022 9.22754C67.0518 9.21165 67.1081 9.18624 67.1821 9.1748L67.2622 9.54492Z" stroke="white" stroke-opacity="0.2"/>
<g opacity="0.5">
<path fill-rule="evenodd" clip-rule="evenodd" d="M43.4348 8.49622C43.1235 8.25222 42.7885 8.04022 42.4348 7.86322L42.2878 7.30923C41.5577 6.87923 40.7775 6.54023 39.9648 6.30023V5.99023H43.9358C44.1739 5.99123 44.4045 6.07324 44.5892 6.22324C44.774 6.37324 44.9016 6.58222 44.9508 6.81522L45.8108 11.2222C45.1776 10.1862 44.3744 9.26522 43.4348 8.49622Z" fill="white" fill-opacity="0.2"/>
<path d="M43.9336 6.49023L44.0264 6.49805C44.1171 6.514 44.2027 6.5531 44.2744 6.61133C44.346 6.66948 44.4007 6.74511 44.4346 6.83008L44.4619 6.91895L44.9072 9.20215C44.5483 8.81241 44.1634 8.44617 43.752 8.10938L43.7432 8.10254C43.4661 7.88537 43.1709 7.69301 42.8623 7.52441L42.7715 7.18066L42.7188 6.98242L42.542 6.87793L42.252 6.71387C42.1093 6.63563 41.9643 6.56194 41.8184 6.49023H43.9336Z" stroke="white" stroke-opacity="0.2"/>
</g>
<path fill-rule="evenodd" clip-rule="evenodd" d="M106 19.002H93C92.7348 19.002 92.4804 18.897 92.2929 18.709C92.1054 18.522 92 18.267 92 18.002V8.97601C92.0001 8.66901 92.1183 8.37302 92.33 8.15002L92.777 7.75L102.225 0L103 0.00201416V7.00201L102.989 12.238L93.503 18.25L104.993 14.493L105 8.00201H107V19.002H106ZM98.927 7.48502C99.051 7.37702 99.1966 7.297 99.3541 7.25C99.5116 7.203 99.6773 7.19001 99.8401 7.21301C100.003 7.23501 100.159 7.29201 100.298 7.38C100.437 7.467 100.556 7.58401 100.646 7.72101C100.765 8.05501 100.761 8.41901 100.637 8.75101C100.512 9.08201 100.275 9.35901 99.966 9.53201C99.8419 9.64001 99.6962 9.72003 99.5386 9.76703C99.3811 9.81403 99.2153 9.82602 99.0525 9.80402C98.8896 9.78202 98.7334 9.72502 98.5944 9.63702C98.4553 9.55002 98.3365 9.43302 98.246 9.29602C98.1275 8.96202 98.1308 8.59702 98.2555 8.26602C98.3801 7.93502 98.618 7.65802 98.927 7.48502Z" fill="white" fill-opacity="0.2"/>
<path d="M102.5 0.5V7.00195L102.489 11.9619L93.2354 17.8281L93.5527 18.502H93C92.867 18.502 92.7397 18.449 92.6465 18.3555H92.6455C92.5525 18.2627 92.5 18.1347 92.5 18.002V8.97656C92.5001 8.80076 92.5668 8.63041 92.6865 8.50098L93.1104 8.12305L102.403 0.5H102.5ZM106.5 8.50195V18.502H94.3418L105.148 14.9678L105.492 14.8555L105.493 14.4932L105.499 8.50195H106.5ZM99.9102 6.71777C99.6749 6.68454 99.4363 6.70325 99.2109 6.77051C99.0032 6.83251 98.8109 6.93643 98.6426 7.07324C98.2504 7.30509 97.9477 7.66328 97.7871 8.08984C97.6208 8.53148 97.6167 9.01813 97.7744 9.46289L97.7949 9.52051L97.8291 9.57129C97.9576 9.76579 98.127 9.93289 98.3271 10.0586V10.0596C98.5267 10.1859 98.7511 10.2681 98.9854 10.2998C99.2166 10.331 99.4543 10.3139 99.6816 10.2461C99.8888 10.1843 100.08 10.0805 100.248 9.94434C100.642 9.71222 100.943 9.35394 101.104 8.92773L101.105 8.92578C101.27 8.48461 101.276 7.99883 101.117 7.55273L101.097 7.49707L101.063 7.44629C100.934 7.24997 100.763 7.08164 100.562 6.95605C100.364 6.83114 100.142 6.74952 99.9092 6.71777H99.9102Z" stroke="white" stroke-opacity="0.2"/>
<g opacity="0.4">
<path fill-rule="evenodd" clip-rule="evenodd" d="M103 8.00195H105L104.993 14.493L93.5029 18.2499L102.989 12.2379L103 8.00195Z" fill="white" fill-opacity="0.2"/>
<path d="M104.499 8.50195L104.493 14.1299L97.1465 16.5322L103.257 12.6602L103.488 12.5137L103.489 12.2393L103.499 8.50195H104.499Z" stroke="white" stroke-opacity="0.2"/>
</g>
<path fill-rule="evenodd" clip-rule="evenodd" d="M135.973 0.99512C137.334 0.99412 138.677 1.30712 139.898 1.90912C140.084 1.99812 140.27 2.0961 140.456 2.2031L139.632 2.94611L138.393 1.65811L136.3 3.53211L135.058 2.17011L131.158 5.69812L133.658 8.46512L132.676 9.3321L135.136 12.1031L134.16 12.9681L137.675 16.9011L139.762 14.9701L141.562 17.0381C141.189 17.3301 140.795 17.5931 140.382 17.8261C139.04 18.5971 137.52 19.0021 135.973 19.0021C133.585 19.0021 131.295 18.0531 129.607 16.3651C127.918 14.6761 126.97 12.3861 126.97 9.99811C126.97 7.61111 127.918 5.32111 129.607 3.63211C131.295 1.94411 133.585 0.99512 135.973 0.99512ZM134.34 9.43012L136.47 7.50211L138.389 9.6431L136.259 11.5701L134.34 9.43012ZM135.855 13.1301L137.985 11.2011L139.904 13.3421L137.773 15.2711L135.855 13.1301ZM132.816 5.77411L134.946 3.8461L136.864 5.98709L134.734 7.9141L132.816 5.77411ZM136.725 4.73612L138.325 3.29111L139.763 4.89612L138.163 6.34311L136.724 4.73612H136.725ZM139.564 11.3581L141.164 9.91211L142.602 11.5181L141.002 12.9631L139.564 11.3581ZM140.964 14.6011L142.564 13.1551L144.003 14.7611L142.403 16.2061L140.964 14.6011ZM141.608 7.1691L142.673 6.20511L143.632 7.27512L142.567 8.2381L141.608 7.1691ZM140.247 3.98709L141.312 3.02411L142.271 4.09412L141.206 5.05811L140.247 3.98709ZM142.969 10.3481L144.035 9.3841L145 10.4551L143.935 11.4191L142.976 10.3481H142.969ZM138.193 7.96512L139.793 6.51911L141.232 8.12412L139.632 9.57111L138.193 7.96512Z" fill="white" fill-opacity="0.2"/>
<path d="M134.723 1.79883L130.823 5.32715L130.453 5.66211L130.788 6.0332L132.948 8.4248L132.345 8.95703L131.969 9.28906L132.302 9.66406L134.429 12.0605L133.829 12.5938L133.453 12.9268L133.788 13.3018L137.302 17.2344L137.641 17.6133L138.015 17.2686L139.723 15.6865L140.828 16.9551C140.696 17.0462 140.563 17.1357 140.426 17.2197L140.136 17.3906L140.133 17.3926C138.867 18.12 137.433 18.502 135.973 18.502C133.718 18.5019 131.555 17.606 129.96 16.0117C128.365 14.4165 127.47 12.2535 127.47 9.99805C127.47 7.74365 128.365 5.58055 129.96 3.98535C131.322 2.6237 133.099 1.77349 134.994 1.55371L134.723 1.79883ZM143.297 14.7236L142.44 15.498L141.668 14.6377L142.527 13.8623L143.297 14.7236ZM139.2 13.3047L137.81 14.5625L136.559 13.166L137.948 11.9082L139.2 13.3047ZM141.897 11.4805L141.04 12.2549L140.269 11.3955L141.126 10.6201L141.897 11.4805ZM137.685 9.60547L136.295 10.8623L135.043 9.4668L136.433 8.20996L137.685 9.60547ZM144.294 10.4189L143.972 10.7109L143.677 10.3809L143.999 10.0908L144.294 10.4189ZM140.527 8.08691L139.668 8.8623L138.897 8.00195L139.755 7.22559L140.527 8.08691ZM142.927 7.2373L142.603 7.53027L142.312 7.20508L142.636 6.91211L142.927 7.2373ZM136.16 5.94922L134.771 7.20508L133.52 5.81055L134.909 4.55371L136.16 5.94922ZM139.059 4.8584L138.2 5.63477L137.429 4.77344L138.288 3.99805L139.059 4.8584ZM141.567 4.05664L141.243 4.34961L140.952 4.02344L141.275 3.73145L141.567 4.05664ZM135.973 1.49512C136.533 1.49471 137.09 1.55372 137.635 1.66406L136.334 2.82812L135.427 1.83301L135.156 1.53516C135.426 1.50903 135.699 1.49512 135.973 1.49512Z" stroke="white" stroke-opacity="0.2"/>
<mask id="path-19-inside-1_84_2940" fill="white">
<path fill-rule="evenodd" clip-rule="evenodd" d="M181.593 15.3849C181.451 14.6539 181.072 13.9909 180.513 13.4989C180.319 13.3109 180.099 13.1529 179.86 13.0279C179.738 12.9569 179.61 12.8969 179.478 12.8479C179.137 12.7019 178.766 12.6409 178.397 12.6699C178.685 12.5659 178.992 12.5268 179.297 12.5558C179.557 12.5928 179.812 12.6529 180.061 12.7359C180.261 12.8469 180.468 12.9589 180.669 13.0729C181.115 11.4949 181.028 9.81386 180.422 8.28986C179.933 6.99586 179.138 5.84087 178.104 4.92187C177.055 3.94087 175.753 3.27187 174.345 2.99087C173.526 2.83187 172.684 2.83985 171.868 3.01385C171.177 3.19485 170.528 3.50686 169.955 3.93286C169.424 4.35886 168.975 4.87588 168.627 5.46088C168.524 5.60288 168.434 5.75285 168.357 5.90985C168.288 6.07985 168.21 6.24287 168.132 6.40387C167.702 7.56587 167.565 8.81487 167.732 10.0419C167.831 10.8079 168.035 11.5559 168.34 12.2649C168.504 12.5799 168.653 12.9098 168.834 13.2068C169.014 13.4948 169.209 13.7728 169.42 14.0388C169.869 14.5388 170.375 14.9839 170.928 15.3639C172.195 16.2219 173.676 16.7119 175.205 16.7779C175.206 16.6699 175.183 16.5619 175.137 16.4639C175.11 16.3559 175.1 16.2319 175.069 16.1269C175.04 15.8729 175.04 15.6179 175.069 15.3639C175.122 15.4029 175.162 15.4579 175.182 15.5209C175.208 15.5739 175.247 15.6209 175.295 15.6549C175.354 15.7649 175.421 15.8698 175.495 15.9698C175.644 16.1638 175.819 16.3369 176.013 16.4859C176.4 16.8029 176.832 17.0609 177.296 17.2489C177.819 17.4689 178.374 17.6039 178.94 17.6489C179.54 17.7299 180.121 17.8319 180.672 17.9629C181.174 18.1079 181.658 18.3108 182.113 18.5688C182.331 18.6888 182.542 18.8229 182.743 18.9689C182.849 19.0329 182.947 19.1078 183.036 19.1938C183.154 19.2408 183.206 19.3529 183.328 19.3939C183.685 19.7199 184.017 20.0729 184.32 20.4499C184.464 20.6569 184.592 20.8749 184.702 21.1019C184.784 21.1919 184.808 21.3399 184.882 21.4389C184.913 21.4969 184.931 21.5619 184.934 21.6279C184.938 21.6939 184.928 21.7589 184.904 21.8209C184.737 21.8439 184.771 21.6689 184.704 21.5959C184.641 21.5129 184.588 21.4219 184.546 21.3269C184.282 21.0499 184.046 20.7468 183.758 20.4958C183.48 20.2348 183.179 20.0009 182.858 19.7959C182.189 19.3289 181.442 18.9869 180.652 18.7849C179.722 18.5299 178.755 18.4389 177.794 18.5149C177.342 18.5649 176.896 18.6629 176.465 18.8069C176.012 18.9069 175.553 18.9819 175.092 19.0319C173.283 19.1249 171.477 18.7859 169.825 18.0439C169.11 17.7269 168.443 17.3119 167.844 16.8089C167.543 16.5729 167.264 16.3099 167.012 16.0229C166.754 15.7419 166.527 15.4329 166.336 15.1019C166.118 14.7709 165.923 14.4258 165.751 14.0688C165.589 13.6818 165.454 13.2839 165.346 12.8789C165.204 12.4419 165.114 11.9899 165.076 11.5319C165.068 11.3969 165.007 11.1369 165.008 10.9259C165.018 10.9039 165.026 10.8808 165.031 10.8578C164.998 10.6418 164.998 10.4228 165.031 10.2068C165.034 9.73085 165.087 9.25687 165.188 8.79187C165.268 8.36387 165.381 7.94387 165.526 7.53387C165.66 7.13387 165.837 6.76786 165.998 6.38986C166.107 6.22786 166.189 6.04087 166.291 5.87387C166.377 5.69687 166.506 5.56387 166.584 5.37387C166.649 5.30287 166.709 5.22887 166.764 5.14987C166.799 5.04987 166.892 5.00786 166.921 4.90286C166.995 4.83986 167.056 4.76386 167.101 4.67786C167.176 4.61686 167.237 4.53986 167.281 4.45386C167.55 4.18986 167.79 3.89787 168.069 3.64587C168.348 3.39387 168.66 3.15688 168.948 2.90488C169.13 2.81788 169.262 2.67987 169.442 2.58987C169.579 2.46487 169.779 2.40185 169.915 2.27585C170.272 2.08385 170.639 1.91185 171.015 1.75885C171.395 1.58885 171.786 1.44685 172.186 1.33285C173.102 1.08085 174.05 0.966849 174.999 0.995849C175.038 0.995849 175.057 0.956849 175.066 0.995849C176.777 1.02185 178.444 1.54285 179.866 2.49585C181.121 3.33085 182.131 4.48586 182.792 5.84186C183.569 7.46886 183.829 9.29485 183.535 11.0739C183.342 12.2899 182.897 13.4528 182.229 14.4868C182.14 14.6538 182.034 14.8129 181.914 14.9589C181.873 15.0409 181.82 15.1159 181.757 15.1829C181.73 15.2229 181.699 15.2599 181.667 15.2959C181.664 15.3069 181.658 15.3159 181.65 15.3239C181.642 15.3319 181.633 15.3378 181.622 15.3408C181.622 15.4018 181.6 15.4099 181.593 15.3849ZM181.054 15.9698C180.832 15.8068 180.679 15.5659 180.625 15.2959C180.595 15.1929 180.595 15.0849 180.625 14.9819C180.639 14.9719 180.654 14.9639 180.67 14.9589C180.708 14.9489 180.749 14.9469 180.788 14.9549C180.827 14.9629 180.863 14.9799 180.895 15.0039C181.027 15.1679 181.119 15.3598 181.166 15.5648C181.189 15.6358 181.191 15.7119 181.171 15.7839C181.151 15.8559 181.11 15.9208 181.054 15.9698ZM179.073 15.5879C179.073 15.5629 179.095 15.5749 179.095 15.5879C179.274 15.6059 179.438 15.6949 179.551 15.8329C179.665 15.9719 179.72 16.1499 179.703 16.3289C179.694 16.4319 179.652 16.5289 179.583 16.6059C179.514 16.6829 179.421 16.7349 179.32 16.7549C179.201 16.7599 179.083 16.7339 178.977 16.6789C178.871 16.6249 178.781 16.5449 178.716 16.4449C178.65 16.3459 178.611 16.2319 178.602 16.1129C178.594 15.9939 178.616 15.8759 178.667 15.7679C178.714 15.7059 178.776 15.6569 178.847 15.6259C178.918 15.5939 178.996 15.5809 179.073 15.5879Z"/>
</mask>
<path fill-rule="evenodd" clip-rule="evenodd" d="M181.593 15.3849C181.451 14.6539 181.072 13.9909 180.513 13.4989C180.319 13.3109 180.099 13.1529 179.86 13.0279C179.738 12.9569 179.61 12.8969 179.478 12.8479C179.137 12.7019 178.766 12.6409 178.397 12.6699C178.685 12.5659 178.992 12.5268 179.297 12.5558C179.557 12.5928 179.812 12.6529 180.061 12.7359C180.261 12.8469 180.468 12.9589 180.669 13.0729C181.115 11.4949 181.028 9.81386 180.422 8.28986C179.933 6.99586 179.138 5.84087 178.104 4.92187C177.055 3.94087 175.753 3.27187 174.345 2.99087C173.526 2.83187 172.684 2.83985 171.868 3.01385C171.177 3.19485 170.528 3.50686 169.955 3.93286C169.424 4.35886 168.975 4.87588 168.627 5.46088C168.524 5.60288 168.434 5.75285 168.357 5.90985C168.288 6.07985 168.21 6.24287 168.132 6.40387C167.702 7.56587 167.565 8.81487 167.732 10.0419C167.831 10.8079 168.035 11.5559 168.34 12.2649C168.504 12.5799 168.653 12.9098 168.834 13.2068C169.014 13.4948 169.209 13.7728 169.42 14.0388C169.869 14.5388 170.375 14.9839 170.928 15.3639C172.195 16.2219 173.676 16.7119 175.205 16.7779C175.206 16.6699 175.183 16.5619 175.137 16.4639C175.11 16.3559 175.1 16.2319 175.069 16.1269C175.04 15.8729 175.04 15.6179 175.069 15.3639C175.122 15.4029 175.162 15.4579 175.182 15.5209C175.208 15.5739 175.247 15.6209 175.295 15.6549C175.354 15.7649 175.421 15.8698 175.495 15.9698C175.644 16.1638 175.819 16.3369 176.013 16.4859C176.4 16.8029 176.832 17.0609 177.296 17.2489C177.819 17.4689 178.374 17.6039 178.94 17.6489C179.54 17.7299 180.121 17.8319 180.672 17.9629C181.174 18.1079 181.658 18.3108 182.113 18.5688C182.331 18.6888 182.542 18.8229 182.743 18.9689C182.849 19.0329 182.947 19.1078 183.036 19.1938C183.154 19.2408 183.206 19.3529 183.328 19.3939C183.685 19.7199 184.017 20.0729 184.32 20.4499C184.464 20.6569 184.592 20.8749 184.702 21.1019C184.784 21.1919 184.808 21.3399 184.882 21.4389C184.913 21.4969 184.931 21.5619 184.934 21.6279C184.938 21.6939 184.928 21.7589 184.904 21.8209C184.737 21.8439 184.771 21.6689 184.704 21.5959C184.641 21.5129 184.588 21.4219 184.546 21.3269C184.282 21.0499 184.046 20.7468 183.758 20.4958C183.48 20.2348 183.179 20.0009 182.858 19.7959C182.189 19.3289 181.442 18.9869 180.652 18.7849C179.722 18.5299 178.755 18.4389 177.794 18.5149C177.342 18.5649 176.896 18.6629 176.465 18.8069C176.012 18.9069 175.553 18.9819 175.092 19.0319C173.283 19.1249 171.477 18.7859 169.825 18.0439C169.11 17.7269 168.443 17.3119 167.844 16.8089C167.543 16.5729 167.264 16.3099 167.012 16.0229C166.754 15.7419 166.527 15.4329 166.336 15.1019C166.118 14.7709 165.923 14.4258 165.751 14.0688C165.589 13.6818 165.454 13.2839 165.346 12.8789C165.204 12.4419 165.114 11.9899 165.076 11.5319C165.068 11.3969 165.007 11.1369 165.008 10.9259C165.018 10.9039 165.026 10.8808 165.031 10.8578C164.998 10.6418 164.998 10.4228 165.031 10.2068C165.034 9.73085 165.087 9.25687 165.188 8.79187C165.268 8.36387 165.381 7.94387 165.526 7.53387C165.66 7.13387 165.837 6.76786 165.998 6.38986C166.107 6.22786 166.189 6.04087 166.291 5.87387C166.377 5.69687 166.506 5.56387 166.584 5.37387C166.649 5.30287 166.709 5.22887 166.764 5.14987C166.799 5.04987 166.892 5.00786 166.921 4.90286C166.995 4.83986 167.056 4.76386 167.101 4.67786C167.176 4.61686 167.237 4.53986 167.281 4.45386C167.55 4.18986 167.79 3.89787 168.069 3.64587C168.348 3.39387 168.66 3.15688 168.948 2.90488C169.13 2.81788 169.262 2.67987 169.442 2.58987C169.579 2.46487 169.779 2.40185 169.915 2.27585C170.272 2.08385 170.639 1.91185 171.015 1.75885C171.395 1.58885 171.786 1.44685 172.186 1.33285C173.102 1.08085 174.05 0.966849 174.999 0.995849C175.038 0.995849 175.057 0.956849 175.066 0.995849C176.777 1.02185 178.444 1.54285 179.866 2.49585C181.121 3.33085 182.131 4.48586 182.792 5.84186C183.569 7.46886 183.829 9.29485 183.535 11.0739C183.342 12.2899 182.897 13.4528 182.229 14.4868C182.14 14.6538 182.034 14.8129 181.914 14.9589C181.873 15.0409 181.82 15.1159 181.757 15.1829C181.73 15.2229 181.699 15.2599 181.667 15.2959C181.664 15.3069 181.658 15.3159 181.65 15.3239C181.642 15.3319 181.633 15.3378 181.622 15.3408C181.622 15.4018 181.6 15.4099 181.593 15.3849ZM181.054 15.9698C180.832 15.8068 180.679 15.5659 180.625 15.2959C180.595 15.1929 180.595 15.0849 180.625 14.9819C180.639 14.9719 180.654 14.9639 180.67 14.9589C180.708 14.9489 180.749 14.9469 180.788 14.9549C180.827 14.9629 180.863 14.9799 180.895 15.0039C181.027 15.1679 181.119 15.3598 181.166 15.5648C181.189 15.6358 181.191 15.7119 181.171 15.7839C181.151 15.8559 181.11 15.9208 181.054 15.9698ZM179.073 15.5879C179.073 15.5629 179.095 15.5749 179.095 15.5879C179.274 15.6059 179.438 15.6949 179.551 15.8329C179.665 15.9719 179.72 16.1499 179.703 16.3289C179.694 16.4319 179.652 16.5289 179.583 16.6059C179.514 16.6829 179.421 16.7349 179.32 16.7549C179.201 16.7599 179.083 16.7339 178.977 16.6789C178.871 16.6249 178.781 16.5449 178.716 16.4449C178.65 16.3459 178.611 16.2319 178.602 16.1129C178.594 15.9939 178.616 15.8759 178.667 15.7679C178.714 15.7059 178.776 15.6569 178.847 15.6259C178.918 15.5939 178.996 15.5809 179.073 15.5879Z" fill="white" fill-opacity="0.2" stroke="white" stroke-opacity="0.2" stroke-width="2" mask="url(#path-19-inside-1_84_2940)"/>
<g opacity="0.55">
<path fill-rule="evenodd" clip-rule="evenodd" d="M209.746 11.2485C210.078 9.03752 210.526 6.6985 210.646 5.9275C210.722 5.4275 210.984 5.01552 211.986 5.01552H215.641C216.489 5.01552 218.519 4.91552 219.425 6.18852C220.474 7.66352 219.787 10.3815 219.338 11.3235C218.918 12.1965 218.262 12.9335 217.444 13.4525C216.566 13.8225 215.623 14.0125 214.671 14.0125C213.661 14.0265 213.396 13.8955 213.227 15.0025C213.058 16.1095 212.692 18.0695 212.661 18.3135C212.657 18.4165 212.632 18.5175 212.586 18.6095C212.54 18.7015 212.475 18.7825 212.395 18.8475C212.315 18.9125 212.222 18.9595 212.122 18.9855C212.022 19.0115 211.918 19.0155 211.817 18.9975C210.985 18.9975 209.717 18.9975 209.285 18.9975C208.946 18.9975 208.638 19.0755 208.73 18.3625C208.873 17.2485 209.546 12.5835 209.746 11.2485Z" fill="white" fill-opacity="0.2"/>
<path d="M211.986 5.51562H215.641C216.087 5.51562 216.75 5.49248 217.42 5.61621C218.093 5.74038 218.674 5.99645 219.017 6.47852C219.435 7.06674 219.539 7.96397 219.446 8.90723C219.354 9.83451 219.085 10.6912 218.887 11.1064C218.513 11.8835 217.932 12.54 217.208 13.0078C216.403 13.3404 215.541 13.5127 214.67 13.5127H214.664C214.445 13.5157 214.195 13.5104 214.022 13.5176C213.838 13.5252 213.615 13.5476 213.409 13.6514C212.941 13.8868 212.814 14.3962 212.733 14.9268C212.649 15.4735 212.517 16.2348 212.4 16.8945C212.286 17.5391 212.182 18.1129 212.165 18.251L212.162 18.2725V18.2939C212.16 18.329 212.151 18.36 212.138 18.3857C212.124 18.414 212.104 18.4388 212.08 18.459C212.055 18.4787 212.027 18.4939 211.996 18.502C211.966 18.5097 211.935 18.5102 211.905 18.5049L211.861 18.4971H209.285C209.263 18.4971 209.241 18.4977 209.22 18.498C209.222 18.4766 209.223 18.4528 209.226 18.4268V18.4258C209.368 17.3169 210.041 12.6587 210.241 11.3232C210.406 10.2241 210.6 9.09106 210.768 8.13477C210.935 7.18524 211.079 6.39703 211.14 6.00488V6.00293C211.169 5.81357 211.221 5.72422 211.288 5.66895C211.362 5.60731 211.545 5.51563 211.986 5.51562Z" stroke="white" stroke-opacity="0.2"/>
</g>
<g opacity="0.8">
<path fill-rule="evenodd" clip-rule="evenodd" d="M206.238 8.58292C206.593 6.40092 207.194 2.66292 207.32 1.90292C207.402 1.40292 207.683 1.00293 208.756 1.00293H213.756C214.664 1.00293 217.006 1.10991 218.015 2.22391C219.062 3.38091 219.368 5.08391 218.493 7.28491C218.237 7.99191 217.841 8.64092 217.328 9.19092C216.814 9.74092 216.195 10.1809 215.507 10.4849C214.159 10.9139 212.742 11.0849 211.33 10.9909C210.248 11.0049 209.904 10.8909 209.723 11.9849C209.542 13.0789 209.004 16.0849 208.971 16.3279C208.938 16.5709 208.958 17.0029 208.071 17.0029C207.184 17.0029 206.055 17.0029 205.59 17.0029C205.226 17.0029 204.878 17.0769 204.995 16.3759C205.165 15.3489 206.024 9.90192 206.238 8.58292Z" fill="white" fill-opacity="0.2"/>
<path d="M208.756 1.50293H213.756C214.195 1.50293 214.97 1.52887 215.749 1.68555C216.547 1.84616 217.25 2.12574 217.644 2.55957C218.531 3.54034 218.852 5.02829 218.028 7.10059L218.022 7.11426C217.789 7.75821 217.429 8.34921 216.962 8.84961C216.499 9.34464 215.943 9.74033 215.325 10.0166C214.046 10.4196 212.703 10.5813 211.363 10.4922L211.343 10.4902L211.323 10.4912C211.078 10.4944 210.821 10.4903 210.625 10.499C210.424 10.508 210.194 10.5314 209.982 10.627C209.486 10.8512 209.322 11.3433 209.229 11.9033C209.053 12.9727 208.51 16.0104 208.476 16.2607C208.472 16.2897 208.465 16.3522 208.463 16.3652C208.459 16.3931 208.456 16.4119 208.453 16.4268C208.452 16.4327 208.45 16.4379 208.449 16.4414C208.425 16.4572 208.331 16.5029 208.07 16.5029H205.59C205.554 16.5029 205.515 16.5033 205.482 16.5039L205.488 16.458L206.731 8.66309C207.087 6.47833 207.688 2.74364 207.813 1.98438V1.9834C207.843 1.80351 207.894 1.72018 207.968 1.66406C208.047 1.60428 208.218 1.52553 208.586 1.50684L208.756 1.50293Z" stroke="white" stroke-opacity="0.2"/>
</g>
<path fill-rule="evenodd" clip-rule="evenodd" d="M218.494 7.28467C218.238 7.99167 217.842 8.64068 217.329 9.19068C216.815 9.74068 216.196 10.1807 215.508 10.4847C214.106 10.9137 212.637 11.0857 211.174 10.9907C210.093 11.0047 209.843 10.8907 209.661 11.9847C209.661 11.9847 209.628 11.9957 209.628 11.9997H209.635C209.679 11.6997 209.718 11.4347 209.746 11.2467C210.078 9.03568 210.526 6.69669 210.646 5.92569C210.722 5.42569 210.984 5.01368 211.986 5.01368H215.641C216.786 4.90268 217.938 5.14367 218.941 5.70667C218.851 6.24767 218.702 6.77667 218.494 7.28467Z" fill="white" fill-opacity="0.2"/>
<path d="M215.689 5.51172C216.614 5.42214 217.543 5.58398 218.378 5.97852C218.294 6.35984 218.179 6.73329 218.031 7.09473L218.023 7.11426C217.79 7.75822 217.43 8.3492 216.963 8.84961C216.501 9.34332 215.947 9.7385 215.331 10.0146C213.996 10.4193 212.598 10.5826 211.206 10.4922L211.187 10.4902L211.167 10.4912C210.923 10.4944 210.671 10.4902 210.483 10.499C210.446 10.5008 210.408 10.5026 210.369 10.5059C210.502 9.67469 210.641 8.85348 210.768 8.13281C210.935 7.18325 211.079 6.39505 211.14 6.00293L211.141 6.00098C211.169 5.81184 211.22 5.72326 211.287 5.66797C211.362 5.60633 211.544 5.51367 211.986 5.51367H215.665L215.689 5.51172Z" stroke="white" stroke-opacity="0.2"/>
<path d="M256.994 9.20496C256.998 9.30396 257 9.40295 257 9.50195C257 13.644 253.642 17.002 249.5 17.002C245.358 17.002 242 13.644 242 9.50195C242 5.35995 245.358 2.00195 249.5 2.00195C251.024 2.00195 252.441 2.45594 253.624 3.23694L255.257 1.94394C253.66 0.725939 251.664 0.00195312 249.5 0.00195312C244.253 0.00195312 240 4.25495 240 9.50195C240 14.749 244.253 19.002 249.5 19.002C254.747 19.002 259 14.749 259 9.50195C259 8.89695 258.943 8.30496 258.835 7.73096L256.994 9.20496Z" fill="white" fill-opacity="0.2"/>
<path d="M249.5 0.501953C251.317 0.501953 253.007 1.0416 254.421 1.9668L253.589 2.62598C252.392 1.91231 250.994 1.50195 249.5 1.50195C245.082 1.50195 241.5 5.08381 241.5 9.50195C241.5 13.9201 245.082 17.502 249.5 17.502C253.918 17.502 257.5 13.9201 257.5 9.50195C257.5 9.48176 257.498 9.46159 257.498 9.44141L258.461 8.66992C258.486 8.94395 258.5 9.22142 258.5 9.50195C258.5 14.4728 254.471 18.502 249.5 18.502C244.529 18.502 240.5 14.4728 240.5 9.50195C240.5 4.5311 244.529 0.501953 249.5 0.501953Z" stroke="white" stroke-opacity="0.2"/>
<path d="M249.5 12.002L258.049 5.35297C257.757 4.75397 257.405 4.18995 256.999 3.66895L249.5 9.50195L246 7.31494V9.80695L249.5 12.002Z" fill="white" fill-opacity="0.2"/>
<path d="M256.9 4.37793C257.086 4.64581 257.257 4.92498 257.413 5.21289L249.469 11.3916L246.5 9.53027V8.2168L249.235 9.92578L249.531 10.1113L249.807 9.89648L256.9 4.37793Z" stroke="white" stroke-opacity="0.2"/>
<g opacity="0.5">
<path fill-rule="evenodd" clip-rule="evenodd" d="M295 18.0018C293.595 18.0018 292.215 17.6298 291 16.9228C292.216 16.2218 293.226 15.2138 293.928 13.9988C294.63 12.7838 295 11.4048 295 10.0018C295 8.59881 294.63 7.21981 293.928 6.00481C293.226 4.7898 292.216 3.78182 291 3.08082C292.063 2.46482 293.253 2.10182 294.478 2.01982C295.704 1.93782 296.932 2.1388 298.067 2.6078C299.202 3.0768 300.214 3.8008 301.024 4.7238C301.835 5.6468 302.422 6.7438 302.74 7.9308C303.058 9.1168 303.098 10.3608 302.858 11.5648C302.618 12.7698 302.104 13.9028 301.356 14.8768C300.607 15.8508 299.645 16.6388 298.543 17.1808C297.44 17.7228 296.228 18.0038 295 18.0018Z" fill="white" fill-opacity="0.2"/>
<path d="M294.512 2.51855C295.661 2.44173 296.812 2.63073 297.876 3.07031C298.807 3.45506 299.65 4.02271 300.354 4.73828L300.648 5.05371C301.409 5.91897 301.959 6.94779 302.257 8.06055C302.555 9.17212 302.592 10.3381 302.367 11.4668C302.142 12.5965 301.66 13.6591 300.959 14.5723C300.257 15.4853 299.355 16.2244 298.322 16.7324C297.288 17.2405 296.152 17.5038 295.001 17.502H295C293.963 17.502 292.942 17.2845 291.998 16.8691C292.958 16.1724 293.765 15.2816 294.361 14.249C295.107 12.9581 295.5 11.4927 295.5 10.002C295.5 8.51119 295.107 7.04579 294.361 5.75488C293.765 4.72238 292.959 3.83048 291.999 3.13379C292.793 2.78556 293.643 2.5767 294.512 2.51855Z" stroke="white" stroke-opacity="0.2"/>
</g>
<path fill-rule="evenodd" clip-rule="evenodd" d="M287 10.002C287 11.405 287.37 12.784 288.072 13.999C288.775 15.214 289.784 16.222 291 16.923C289.784 17.628 288.404 18 286.998 18.002C285.593 18.004 284.212 17.635 282.994 16.934C281.776 16.232 280.764 15.222 280.061 14.005C279.358 12.788 278.988 11.408 278.988 10.002C278.988 8.59596 279.358 7.21597 280.061 5.99897C280.764 4.78197 281.776 3.77195 282.994 3.06995C284.212 2.36895 285.593 1.99996 286.998 2.00196C288.404 2.00396 289.784 2.37597 291 3.08097C289.784 3.78197 288.775 4.78995 288.072 6.00495C287.37 7.21995 287 8.59896 287 10.002Z" fill="white" fill-opacity="0.2"/>
<path d="M286.997 2.50195C288.034 2.50343 289.056 2.72053 290 3.13477C289.041 3.83143 288.236 4.72288 287.639 5.75488C286.893 7.04587 286.5 8.51107 286.5 10.002C286.5 11.4928 286.893 12.958 287.639 14.249C288.236 15.2809 289.042 16.1715 290 16.8682C289.056 17.2825 288.034 17.5005 286.997 17.502C285.68 17.5037 284.386 17.158 283.244 16.501C282.102 15.8428 281.153 14.8956 280.494 13.7549C279.835 12.6139 279.488 11.3201 279.488 10.002C279.488 8.68376 279.835 7.38998 280.494 6.24902C281.153 5.10826 282.102 4.16115 283.244 3.50293C284.386 2.84586 285.68 2.50016 286.997 2.50195Z" stroke="white" stroke-opacity="0.2"/>
<g opacity="0.75">
<path fill-rule="evenodd" clip-rule="evenodd" d="M291 16.923C289.784 16.222 288.774 15.2141 288.072 13.9991C287.37 12.7841 287 11.405 287 10.002C287 8.59904 287.37 7.22004 288.072 6.00504C288.774 4.79004 289.784 3.78205 291 3.08105C292.216 3.78205 293.226 4.79004 293.928 6.00504C294.63 7.22004 295 8.59904 295 10.002C295 11.405 294.63 12.7841 293.928 13.9991C293.226 15.2141 292.216 16.222 291 16.923Z" fill="white" fill-opacity="0.2"/>
<path d="M291 3.66504C292.029 4.31255 292.886 5.20045 293.495 6.25488C294.153 7.39387 294.5 8.68687 294.5 10.002C294.5 11.3171 294.153 12.61 293.495 13.749C292.886 14.8033 292.028 15.6904 291 16.3379C289.972 15.6904 289.114 14.8033 288.505 13.749C287.847 12.61 287.5 11.3171 287.5 10.002C287.5 8.68687 287.847 7.39387 288.505 6.25488C289.114 5.20045 289.971 4.31255 291 3.66504Z" stroke="white" stroke-opacity="0.2"/>
</g>
<path fill-rule="evenodd" clip-rule="evenodd" d="M335.839 14.2702L333.819 15.0042C333.754 15.0272 333.683 15.0232 333.621 14.9942C333.559 14.9662 333.511 14.9142 333.486 14.8502L332.439 12.0182H327.539L326.495 14.8442C326.47 14.9082 326.422 14.9602 326.36 14.9882C326.298 15.0172 326.228 15.0212 326.163 14.9992L324.146 14.2652C324.114 14.2552 324.085 14.2392 324.059 14.2172C324.034 14.1962 324.013 14.1692 323.998 14.1402C323.983 14.1102 323.974 14.0772 323.972 14.0442C323.97 14.0112 323.974 13.9772 323.985 13.9462L328.063 3.24619C328.227 2.87319 328.496 2.55619 328.838 2.33319C329.179 2.11119 329.578 1.99219 329.985 1.99219C330.392 1.99219 330.791 2.11119 331.132 2.33319C331.474 2.55619 331.743 2.87319 331.907 3.24619L336 13.9522C336.011 13.9832 336.015 14.0172 336.013 14.0502C336.011 14.0832 336.002 14.1152 335.987 14.1452C335.972 14.1752 335.951 14.2012 335.926 14.2232C335.9 14.2442 335.871 14.2602 335.839 14.2702ZM330.309 5.9462L329.988 5.0462V5.03918L328.143 10.0022H331.835L330.309 5.9462ZM323.984 17.0022H336.016C336.272 17.0102 336.514 17.1172 336.692 17.3012C336.87 17.4852 336.97 17.7312 336.97 17.9862C336.97 18.2422 336.87 18.4882 336.692 18.6722C336.514 18.8562 336.272 18.9632 336.016 18.9712H323.984C323.728 18.9632 323.486 18.8562 323.308 18.6722C323.13 18.4882 323.03 18.2422 323.03 17.9862C323.03 17.7312 323.13 17.4852 323.308 17.3012C323.486 17.1172 323.728 17.0102 323.984 17.0022Z" fill="white" fill-opacity="0.2"/>
<path d="M336 17.502L336.093 17.5137C336.184 17.5344 336.267 17.5808 336.333 17.6484C336.421 17.7399 336.47 17.862 336.47 17.9863C336.47 18.1118 336.421 18.233 336.333 18.3242C336.245 18.4145 336.127 18.4677 336 18.4717H324C323.873 18.4677 323.755 18.4146 323.667 18.3242C323.579 18.233 323.53 18.1119 323.53 17.9863C323.53 17.862 323.579 17.7399 323.667 17.6484C323.733 17.5808 323.816 17.5343 323.907 17.5137L324 17.502H336ZM329.985 2.49219C330.256 2.4922 330.523 2.5616 330.759 2.69238L330.859 2.75195C331.12 2.92192 331.324 3.16348 331.449 3.44727L335.438 13.8828L333.872 14.4521L332.908 11.8447L332.787 11.5186H327.191L327.07 11.8447L326.108 14.4473L324.544 13.8779L328.523 3.43848C328.632 3.19352 328.803 2.98149 329.016 2.81934L329.111 2.75195C329.371 2.58267 329.675 2.49219 329.985 2.49219ZM329.519 4.86523L327.674 9.82812L327.423 10.502H332.557L332.303 9.82617L330.777 5.77051L330.458 4.87793L330.167 4.98145L329.519 4.86523Z" stroke="white" stroke-opacity="0.2"/>
<path fill-rule="evenodd" clip-rule="evenodd" d="M366.01 15.0022V9.65718H365.766L364.026 15.0022H361.96H361.954L360.218 9.65718H359.976V15.0022H357V6.00218H359.976C360.343 5.99718 360.702 6.1102 361 6.3232C361.299 6.5362 361.522 6.83919 361.636 7.18819L362.859 11.3482H363.116L364.341 7.18819C364.456 6.83819 364.68 6.53418 364.981 6.32118C365.281 6.10718 365.642 5.99618 366.01 6.00218H368.986V15.0022H366.01Z" fill="white" fill-opacity="0.2"/>
<path d="M359.982 6.50195C360.242 6.49841 360.497 6.5784 360.709 6.72949L360.71 6.73047C360.92 6.88004 361.077 7.09198 361.158 7.33594L362.379 11.4893L362.484 11.8486H363.49L363.596 11.4893L364.815 7.34375L364.816 7.34473C364.898 7.09626 365.056 6.88036 365.27 6.72949L365.271 6.72852C365.484 6.57726 365.74 6.49768 366.002 6.50195H368.486V14.502H366.51V9.15723H365.403L365.291 9.50195L363.663 14.502H362.317L360.693 9.50293L360.581 9.15723H359.476V14.502H357.5V6.50195H359.982Z" stroke="white" stroke-opacity="0.2"/>
<path fill-rule="evenodd" clip-rule="evenodd" d="M376.978 15.002V9.65695H376.751L374.87 14.142C374.754 14.398 374.567 14.616 374.331 14.769C374.095 14.921 373.819 15.002 373.538 15.002H371.013V6.00195H374.013V11.347H374.251L376.156 6.85696L376.171 6.82297C376.291 6.57797 376.478 6.37096 376.71 6.22696C376.942 6.08196 377.21 6.00595 377.483 6.00595H380.008V15.006H376.98L376.978 15.002Z" fill="white" fill-opacity="0.2"/>
<path d="M373.513 6.50195V11.8467H374.583L374.711 11.542L376.616 7.05176L376.621 7.04297C376.699 6.88217 376.822 6.7457 376.974 6.65137H376.975C377.127 6.55658 377.303 6.50591 377.483 6.50586H379.508V14.5059H377.478V9.15723H376.418L376.291 9.46387L374.412 13.9395C374.335 14.1065 374.214 14.2488 374.06 14.3486C373.905 14.4483 373.724 14.5019 373.539 14.502H371.513V6.50195H373.513Z" stroke="white" stroke-opacity="0.2"/>
<path fill-rule="evenodd" clip-rule="evenodd" d="M388.547 12.0161H385.019V15.0021H382.019V9.99512H391.972C391.663 10.6311 391.173 11.1621 390.564 11.5211C389.955 11.8811 389.253 12.0531 388.547 12.0161Z" fill="white" fill-opacity="0.2"/>
<path d="M391.037 10.4951C390.877 10.672 390.698 10.8313 390.501 10.9678L390.31 11.0908C389.786 11.4007 389.181 11.5485 388.573 11.5166H384.519V14.502H382.519V10.4951H391.037Z" stroke="white" stroke-opacity="0.2"/>
<g opacity="0.7">
<path fill-rule="evenodd" clip-rule="evenodd" d="M391.919 9.00797H386.507C384.035 9.00797 381.979 7.70795 381.546 6.00195H388.569C390.459 6.00195 391.991 7.11894 391.991 8.49594C391.991 8.66894 391.967 8.84097 391.919 9.00797Z" fill="white" fill-opacity="0.2"/>
<path d="M388.569 6.50195C389.42 6.50204 390.169 6.75415 390.694 7.13672C391.22 7.51967 391.491 8.00658 391.491 8.49609C391.491 8.5 391.49 8.50391 391.49 8.50781H386.507C384.52 8.50779 382.94 7.62422 382.289 6.50195H388.569Z" stroke="white" stroke-opacity="0.2"/>
</g>
<path d="M416.39 6.96194V10.7929C416.381 10.9739 416.335 11.1499 416.253 11.3109C416.171 11.4729 416.056 11.614 415.916 11.728C415.776 11.841 415.613 11.9239 415.439 11.9699C415.265 12.0159 415.082 12.024 414.905 11.995H414.691C413.733 11.938 412.806 11.6339 412.001 11.1119V4.18594C411.983 3.35994 412.293 2.56096 412.862 1.96396C413.432 1.36696 414.215 1.02095 415.039 1.00195H419.013V6.96194H416.39Z" fill="white" fill-opacity="0.2"/>
<path d="M412.501 4.1748C412.486 3.48123 412.746 2.80978 413.223 2.30859L413.224 2.30957C413.643 1.87098 414.198 1.59359 414.793 1.52051L415.05 1.50195H418.513V6.46191H415.89V10.7773C415.883 10.8862 415.856 10.99 415.808 11.084L415.807 11.085C415.758 11.1828 415.687 11.2689 415.6 11.3398C415.515 11.4084 415.416 11.4587 415.311 11.4863C415.206 11.5139 415.095 11.5198 414.986 11.502L414.946 11.4951H414.71C413.931 11.4471 413.176 11.2182 412.501 10.8301V4.1748Z" stroke="white" stroke-opacity="0.2"/>
<path d="M414.659 12.9956H415.525C417.409 12.9956 418.829 12.0366 419.013 10.8086V15.8146C419.032 16.6406 418.722 17.4406 418.152 18.0386C417.583 18.6366 416.799 18.9826 415.974 19.0016H412.001V12.4946C412.861 12.7796 413.755 12.9476 414.659 12.9956Z" fill="white" fill-opacity="0.2"/>
<path d="M418.513 15.8262C418.529 16.5195 418.269 17.1911 417.79 17.6934V17.6943C417.313 18.1956 416.655 18.4859 415.963 18.502H412.501V13.1631C413.198 13.3452 413.913 13.4569 414.633 13.4951H415.525C416.69 13.495 417.768 13.143 418.513 12.5371V15.8262Z" stroke="white" stroke-opacity="0.2"/>
<path d="M423.96 19.002H420.003V12.472C421.024 12.932 422.132 13.165 423.251 13.153C424.175 13.156 425.094 13.002 425.967 12.697V11.3159C425.176 11.7649 424.285 12.006 423.376 12.017C422.875 11.968 422.41 11.734 422.072 11.36C421.734 10.987 421.546 10.4999 421.546 9.99594C421.546 9.49194 421.734 9.00496 422.072 8.63196C422.41 8.25796 422.875 8.02394 423.376 7.97495C424.285 7.98795 425.176 8.23195 425.967 8.68195V7.31796C425.094 7.01196 424.175 6.85796 423.251 6.86096C422.132 6.84996 421.024 7.08196 420.003 7.54196V4.18594C419.984 3.36194 420.291 2.56394 420.859 1.96594C421.426 1.36894 422.207 1.02195 423.03 1.00195H426.987V15.818C427.006 16.642 426.698 17.44 426.131 18.038C425.563 18.635 424.782 18.982 423.96 19.002Z" fill="white" fill-opacity="0.2"/>
<path d="M420.503 4.1748C420.487 3.48257 420.745 2.81248 421.222 2.31055C421.638 1.87236 422.191 1.59426 422.785 1.52051L423.042 1.50195H426.486V15.8184L426.487 15.8291C426.503 16.5207 426.244 17.1911 425.769 17.6934C425.292 18.1945 424.636 18.4852 423.947 18.502H420.503V13.2041C421.385 13.5075 422.313 13.6616 423.249 13.6523V13.6533L423.252 13.6523C423.253 13.6523 423.255 13.6533 423.256 13.6533L423.255 13.6523C424.234 13.6549 425.207 13.4921 426.132 13.1689L426.467 13.0518V10.457L425.72 10.8809C425.01 11.2837 424.212 11.5003 423.396 11.5146C423.077 11.4774 422.779 11.3415 422.543 11.125L422.442 11.0244C422.188 10.7434 422.046 10.3759 422.046 9.99609C422.046 9.61624 422.188 9.24884 422.442 8.96777V8.9668C422.691 8.69126 423.032 8.51749 423.4 8.47559C424.214 8.49253 425.011 8.71284 425.72 9.11621L426.467 9.54199V6.96387L426.132 6.8457C425.207 6.52153 424.233 6.3588 423.255 6.36133H423.249C422.313 6.35289 421.385 6.50544 420.503 6.80859V4.1748Z" stroke="white" stroke-opacity="0.2"/>
<path d="M431.478 11.8092C431.617 11.6832 431.701 11.5071 431.71 11.3201C431.701 11.1331 431.618 10.9572 431.479 10.8312C431.341 10.7052 431.159 10.6391 430.972 10.6471H428.993V11.9921H430.969C431.156 12.0011 431.339 11.9352 431.478 11.8092Z" fill="white" fill-opacity="0.2"/>
<path d="M430.993 11.1465C431.048 11.1441 431.101 11.1637 431.142 11.2002L431.144 11.2012C431.178 11.2323 431.199 11.2743 431.207 11.3193C431.2 11.3637 431.178 11.4062 431.143 11.4385C431.101 11.4761 431.047 11.4958 430.993 11.4932L430.981 11.4922H429.493V11.1475H430.982L430.993 11.1465Z" stroke="white" stroke-opacity="0.2"/>
<path d="M430.724 7.97585H428.993V9.32287H430.724C430.818 9.33187 430.913 9.32184 431.003 9.29284C431.093 9.26284 431.176 9.21485 431.246 9.15185C431.316 9.08785 431.372 9.01085 431.41 8.92385C431.449 8.83785 431.468 8.74387 431.468 8.64987C431.468 8.55487 431.449 8.46084 431.41 8.37484C431.372 8.28784 431.316 8.21084 431.246 8.14684C431.176 8.08384 431.093 8.03585 431.003 8.00585C430.913 7.97685 430.818 7.96685 430.724 7.97585Z" fill="white" fill-opacity="0.2"/>
<path d="M430.771 8.47363C430.797 8.47121 430.822 8.47291 430.845 8.47949V8.48047C430.858 8.48483 430.871 8.48959 430.882 8.49609L430.912 8.51855C430.931 8.53633 430.944 8.55582 430.952 8.5752L430.955 8.58105C430.963 8.59766 430.968 8.62081 430.968 8.64941C430.968 8.67682 430.963 8.70073 430.955 8.71777L430.952 8.72363C430.944 8.74303 430.931 8.76248 430.912 8.78027C430.894 8.79639 430.87 8.80968 430.844 8.81836C430.821 8.82482 430.796 8.82759 430.771 8.8252L430.748 8.82324H429.493V8.47559H430.748L430.771 8.47363Z" stroke="white" stroke-opacity="0.2"/>
<path d="M427.994 19.002H431.391C432.154 18.918 432.853 18.537 433.339 17.942C433.824 17.346 434.057 16.584 433.988 15.818V1.00195H430.593C429.83 1.08595 429.131 1.46696 428.645 2.06296C428.159 2.65796 427.926 3.42094 427.995 4.18594V6.99695H431.365C431.573 6.97895 431.782 7.00395 431.98 7.07095C432.178 7.13795 432.36 7.24496 432.514 7.38596C432.668 7.52796 432.791 7.69896 432.876 7.89096C432.96 8.08296 433.003 8.28996 433.003 8.49896C433.003 8.70796 432.96 8.91496 432.876 9.10696C432.791 9.29796 432.668 9.46996 432.514 9.61096C432.36 9.75296 432.178 9.85994 431.98 9.92694C431.868 9.96494 431.751 9.98994 431.633 9.99994H431.365C431.454 10.0089 431.544 10.0079 431.633 9.99994H431.918C432.13 9.97494 432.345 9.99395 432.549 10.058C432.753 10.122 432.941 10.228 433.101 10.37C433.261 10.512 433.389 10.686 433.476 10.881C433.564 11.076 433.609 11.288 433.609 11.502C433.609 11.716 433.564 11.928 433.476 12.123C433.389 12.318 433.261 12.4919 433.101 12.6339C432.941 12.7759 432.753 12.882 432.549 12.946C432.345 13.01 432.13 13.029 431.918 13.004H427.994V19.002Z" fill="white" fill-opacity="0.2"/>
<path d="M433.488 15.8408L433.49 15.8633C433.547 16.4992 433.353 17.1313 432.951 17.626C432.551 18.1146 431.98 18.4282 431.355 18.502H428.494V13.5039H431.904C432.17 13.5294 432.44 13.5039 432.699 13.4229C432.969 13.3379 433.22 13.1969 433.433 13.0078C433.452 12.9907 433.469 12.971 433.488 12.9531V15.8408ZM433.488 10.0498C433.469 10.0321 433.452 10.0131 433.433 9.99609C433.321 9.89693 433.199 9.81179 433.069 9.74023C433.173 9.60768 433.264 9.46475 433.333 9.31055L433.333 9.30762C433.414 9.12374 433.465 8.92924 433.488 8.73145V10.0498ZM428.495 4.16309L428.493 4.14062C428.436 3.50561 428.629 2.8722 429.032 2.37891H429.033C429.432 1.88909 430.004 1.57555 430.629 1.50195H433.488V8.26465C433.465 8.06748 433.414 7.87375 433.333 7.69043V7.68848L433.239 7.50293C433.136 7.32263 433.006 7.15949 432.853 7.01855L432.851 7.01758L432.691 6.88477C432.523 6.76093 432.337 6.66444 432.14 6.59766C431.89 6.51307 431.627 6.47999 431.365 6.49707H428.495V4.16309Z" stroke="white" stroke-opacity="0.2"/>
<path d="M454.983 8.51802C454.983 8.51802 456.148 10.024 459.611 10.024C463.249 10.024 466.611 6.41704 470.211 6.37404C474.029 6.32904 475.017 7.83403 475.017 7.83403" fill="white" fill-opacity="0.2"/>
<path d="M454.983 8.51802C454.983 8.51802 456.148 10.024 459.611 10.024C463.249 10.024 466.611 6.41704 470.211 6.37404C474.029 6.32904 475.017 7.83403 475.017 7.83403" stroke="white" stroke-opacity="0.2" stroke-width="2" stroke-linecap="round"/>
<path d="M454.983 12.148C456.484 13.222 458.306 13.751 460.148 13.648C463.787 13.648 467.478 10.048 471.071 9.99904C474.238 9.95404 475.016 11.459 475.016 11.459" fill="white" fill-opacity="0.2"/>
<path d="M454.983 12.148C456.484 13.222 458.306 13.751 460.148 13.648C463.787 13.648 467.478 10.048 471.071 9.99904C474.238 9.95404 475.016 11.459 475.016 11.459" stroke="white" stroke-opacity="0.2" stroke-width="2" stroke-linecap="round"/>
<path d="M472.77 10.7179C472.612 12.4509 471.891 14.0859 470.718 15.3719C469.545 16.6579 467.984 17.5249 466.272 17.8409C464.561 18.1579 462.792 17.9059 461.237 17.1239C459.682 16.3429 458.425 15.0739 457.657 13.5119M456.898 9.05094C457.101 7.34894 457.846 5.75791 459.023 4.51291C460.2 3.26791 461.746 2.43393 463.434 2.13593C465.121 1.83693 466.86 2.08993 468.392 2.85593C469.925 3.62293 471.17 4.86193 471.944 6.39093" fill="white" fill-opacity="0.2"/>
<path d="M472.77 10.7179C472.612 12.4509 471.891 14.0859 470.718 15.3719C469.545 16.6579 467.984 17.5249 466.272 17.8409C464.561 18.1579 462.792 17.9059 461.237 17.1239C459.682 16.3429 458.425 15.0739 457.657 13.5119M456.898 9.05094C457.101 7.34894 457.846 5.75791 459.023 4.51291C460.2 3.26791 461.746 2.43393 463.434 2.13593C465.121 1.83693 466.86 2.08993 468.392 2.85593C469.925 3.62293 471.17 4.86193 471.944 6.39093" stroke="white" stroke-opacity="0.2" stroke-width="2" stroke-linecap="round"/>
<g opacity="0.5">
<path fill-rule="evenodd" clip-rule="evenodd" d="M497.761 5.50195L503.644 0.00195312L508.993 5.00195L503.109 10.502L497.761 5.50195Z" fill="white" fill-opacity="0.2"/>
<path d="M508.26 5.00098L503.108 9.81738L498.493 5.50195L503.644 0.685547L508.26 5.00098Z" stroke="white" stroke-opacity="0.2"/>
</g>
<path fill-rule="evenodd" clip-rule="evenodd" d="M501.505 7.00195L508.993 14.002L503.644 19.002L497.761 13.502C497.203 12.996 496.757 12.3779 496.452 11.6899C496.146 11.0009 495.989 10.255 495.989 9.50195C495.989 8.74895 496.146 8.00296 496.452 7.31396C496.757 6.62596 497.203 6.00795 497.761 5.50195L498.831 4.50195L501.505 2.00195C501.156 2.31795 500.877 2.70395 500.686 3.13495C500.495 3.56495 500.397 4.03095 500.397 4.50195C500.397 4.97295 500.495 5.43896 500.686 5.86896C500.877 6.29996 501.156 6.68595 501.505 7.00195Z" fill="white" fill-opacity="0.2"/>
<path d="M499.911 4.17578C499.902 4.28411 499.897 4.39292 499.897 4.50195C499.897 4.97478 499.984 5.44361 500.152 5.88477L500.229 6.07227C500.421 6.50491 500.691 6.89783 501.023 7.23242L501.17 7.37305L508.26 14.001L503.644 18.3174L498.103 13.1367L498.097 13.1318L497.912 12.9551C497.492 12.5316 497.151 12.0337 496.909 11.4873C496.632 10.8627 496.489 10.1855 496.489 9.50195C496.489 8.81836 496.632 8.14125 496.909 7.5166C497.186 6.89223 497.591 6.33107 498.097 5.87207L498.103 5.86719L499.173 4.86719L499.911 4.17578Z" stroke="white" stroke-opacity="0.2"/>
<g opacity="0.5">
<path d="M511.5 12.002C512.881 12.002 514 10.883 514 9.50195C514 8.12095 512.881 7.00195 511.5 7.00195C510.119 7.00195 509 8.12095 509 9.50195C509 10.883 510.119 12.002 511.5 12.002Z" fill="white" fill-opacity="0.2"/>
<path d="M511.5 7.50195C512.605 7.50195 513.5 8.3971 513.5 9.50195C513.5 10.6068 512.605 11.502 511.5 11.502C510.395 11.502 509.5 10.6068 509.5 9.50195C509.5 8.3971 510.395 7.50195 511.5 7.50195Z" stroke="white" stroke-opacity="0.2"/>
</g>
<path fill-rule="evenodd" clip-rule="evenodd" d="M550 19.002C554.971 19.002 559 14.973 559 10.002C559 5.03095 554.971 1.00195 550 1.00195C545.029 1.00195 541 5.03095 541 10.002C541 14.973 545.029 19.002 550 19.002ZM550 13.502C551.933 13.502 553.5 11.935 553.5 10.002C553.5 8.06895 551.933 6.50195 550 6.50195C548.067 6.50195 546.5 8.06895 546.5 10.002C546.5 11.935 548.067 13.502 550 13.502Z" fill="white" fill-opacity="0.2"/>
<path d="M550 1.50195C554.695 1.50195 558.5 5.3071 558.5 10.002C558.5 14.6968 554.695 18.502 550 18.502C545.305 18.502 541.5 14.6968 541.5 10.002C541.5 5.3071 545.305 1.50195 550 1.50195ZM550 6.00195C547.791 6.00195 546 7.79281 546 10.002C546 12.2111 547.791 14.002 550 14.002C552.209 14.002 554 12.2111 554 10.002C554 7.79281 552.209 6.00195 550 6.00195Z" stroke="white" stroke-opacity="0.2"/>
<path d="M541 4.00195H534L537.733 16.002H541V4.00195Z" fill="white" fill-opacity="0.2"/>
<path d="M540.5 4.50195V15.502H538.101L534.68 4.50195H540.5Z" stroke="white" stroke-opacity="0.2"/>
<mask id="path-74-inside-2_84_2940" fill="white">
<path fill-rule="evenodd" clip-rule="evenodd" d="M593.352 2.5952C593.557 2.7992 593.464 3.1482 593.185 3.2242L590.967 3.82921C590.904 3.84621 590.846 3.87923 590.8 3.92623L590.742 3.98421C590.787 3.96521 590.836 3.95522 590.888 3.95522H596.939C597.147 3.95522 597.315 4.12323 597.315 4.33123V7.84221C597.315 8.13121 597.003 8.31221 596.752 8.16921L594.756 7.02822C594.699 6.99522 594.635 6.97823 594.57 6.97823H594.487C594.532 6.99723 594.574 7.02421 594.611 7.06121L598.89 11.3402C599.037 11.4862 599.037 11.7252 598.89 11.8722L596.407 14.3542C596.203 14.5592 595.854 14.4662 595.778 14.1872L595.173 11.9692C595.156 11.9062 595.123 11.8482 595.076 11.8022L595.018 11.7442C595.037 11.7892 595.047 11.8382 595.047 11.8902V17.9412C595.047 18.1492 594.879 18.3172 594.671 18.3172H590.512L591.974 15.7582C592.007 15.7012 592.024 15.6372 592.024 15.5712V15.4892C592.005 15.5342 591.978 15.5762 591.941 15.6132L587.662 19.8922C587.516 20.0392 587.277 20.0392 587.13 19.8922L584.648 17.4092C584.443 17.2052 584.536 16.8562 584.815 16.7802L587.033 16.1752C587.096 16.1582 587.154 16.1252 587.2 16.0782L587.258 16.0202C587.213 16.0392 587.164 16.0492 587.112 16.0492H581.061C580.853 16.0492 580.685 15.8812 580.685 15.6732V12.1622C580.685 11.8732 580.997 11.6922 581.248 11.8352L583.244 12.9762C583.301 13.0092 583.365 13.0262 583.431 13.0262H583.513C583.468 13.0072 583.426 12.9802 583.389 12.9432L579.11 8.66421C578.963 8.51821 578.963 8.27922 579.11 8.13222L581.593 5.65023C581.797 5.44523 582.146 5.53822 582.222 5.81722L582.827 8.03521C582.844 8.09821 582.877 8.15623 582.924 8.20223L582.982 8.26021C582.963 8.21521 582.953 8.16622 582.953 8.11422V2.06322C582.953 1.85522 583.121 1.68722 583.329 1.68722H587.488L586.026 4.24621C585.993 4.30321 585.976 4.36721 585.976 4.43221V4.51522C585.995 4.47022 586.022 4.42823 586.059 4.39123L590.338 0.112203C590.484 -0.0347969 590.723 -0.0347969 590.87 0.112203L593.352 2.5952ZM583.671 8.49022L585.567 8.8062C585.644 8.8192 585.716 8.85621 585.771 8.91121L586.596 9.73623C586.743 9.88323 586.743 10.1212 586.596 10.2682L584.162 12.7022L585.727 11.5842C585.791 11.5382 585.867 11.5142 585.946 11.5142H587.112C587.32 11.5142 587.488 11.6822 587.488 11.8902V15.3312L587.804 13.4352C587.817 13.3582 587.854 13.2862 587.909 13.2312L588.734 12.4062C588.881 12.2592 589.119 12.2592 589.266 12.4062L591.7 14.8402L590.582 13.2752C590.536 13.2112 590.512 13.1352 590.512 13.0562V11.8902C590.512 11.6822 590.68 11.5142 590.888 11.5142H594.329L592.433 11.1982C592.356 11.1852 592.284 11.1482 592.229 11.0932L591.404 10.2682C591.257 10.1212 591.257 9.88323 591.404 9.73623L593.838 7.30321L592.273 8.42022C592.209 8.46622 592.133 8.49022 592.054 8.49022H590.888C590.68 8.49022 590.512 8.32222 590.512 8.11422V4.67223L590.196 6.5692C590.183 6.6462 590.146 6.71821 590.091 6.77321L589.266 7.59823C589.119 7.74523 588.881 7.74523 588.734 7.59823L586.3 5.16421L587.418 6.72921C587.464 6.79321 587.488 6.86923 587.488 6.94823V8.11422C587.488 8.32222 587.32 8.49022 587.112 8.49022H583.671Z"/>
</mask>
<path fill-rule="evenodd" clip-rule="evenodd" d="M593.352 2.5952C593.557 2.7992 593.464 3.1482 593.185 3.2242L590.967 3.82921C590.904 3.84621 590.846 3.87923 590.8 3.92623L590.742 3.98421C590.787 3.96521 590.836 3.95522 590.888 3.95522H596.939C597.147 3.95522 597.315 4.12323 597.315 4.33123V7.84221C597.315 8.13121 597.003 8.31221 596.752 8.16921L594.756 7.02822C594.699 6.99522 594.635 6.97823 594.57 6.97823H594.487C594.532 6.99723 594.574 7.02421 594.611 7.06121L598.89 11.3402C599.037 11.4862 599.037 11.7252 598.89 11.8722L596.407 14.3542C596.203 14.5592 595.854 14.4662 595.778 14.1872L595.173 11.9692C595.156 11.9062 595.123 11.8482 595.076 11.8022L595.018 11.7442C595.037 11.7892 595.047 11.8382 595.047 11.8902V17.9412C595.047 18.1492 594.879 18.3172 594.671 18.3172H590.512L591.974 15.7582C592.007 15.7012 592.024 15.6372 592.024 15.5712V15.4892C592.005 15.5342 591.978 15.5762 591.941 15.6132L587.662 19.8922C587.516 20.0392 587.277 20.0392 587.13 19.8922L584.648 17.4092C584.443 17.2052 584.536 16.8562 584.815 16.7802L587.033 16.1752C587.096 16.1582 587.154 16.1252 587.2 16.0782L587.258 16.0202C587.213 16.0392 587.164 16.0492 587.112 16.0492H581.061C580.853 16.0492 580.685 15.8812 580.685 15.6732V12.1622C580.685 11.8732 580.997 11.6922 581.248 11.8352L583.244 12.9762C583.301 13.0092 583.365 13.0262 583.431 13.0262H583.513C583.468 13.0072 583.426 12.9802 583.389 12.9432L579.11 8.66421C578.963 8.51821 578.963 8.27922 579.11 8.13222L581.593 5.65023C581.797 5.44523 582.146 5.53822 582.222 5.81722L582.827 8.03521C582.844 8.09821 582.877 8.15623 582.924 8.20223L582.982 8.26021C582.963 8.21521 582.953 8.16622 582.953 8.11422V2.06322C582.953 1.85522 583.121 1.68722 583.329 1.68722H587.488L586.026 4.24621C585.993 4.30321 585.976 4.36721 585.976 4.43221V4.51522C585.995 4.47022 586.022 4.42823 586.059 4.39123L590.338 0.112203C590.484 -0.0347969 590.723 -0.0347969 590.87 0.112203L593.352 2.5952ZM583.671 8.49022L585.567 8.8062C585.644 8.8192 585.716 8.85621 585.771 8.91121L586.596 9.73623C586.743 9.88323 586.743 10.1212 586.596 10.2682L584.162 12.7022L585.727 11.5842C585.791 11.5382 585.867 11.5142 585.946 11.5142H587.112C587.32 11.5142 587.488 11.6822 587.488 11.8902V15.3312L587.804 13.4352C587.817 13.3582 587.854 13.2862 587.909 13.2312L588.734 12.4062C588.881 12.2592 589.119 12.2592 589.266 12.4062L591.7 14.8402L590.582 13.2752C590.536 13.2112 590.512 13.1352 590.512 13.0562V11.8902C590.512 11.6822 590.68 11.5142 590.888 11.5142H594.329L592.433 11.1982C592.356 11.1852 592.284 11.1482 592.229 11.0932L591.404 10.2682C591.257 10.1212 591.257 9.88323 591.404 9.73623L593.838 7.30321L592.273 8.42022C592.209 8.46622 592.133 8.49022 592.054 8.49022H590.888C590.68 8.49022 590.512 8.32222 590.512 8.11422V4.67223L590.196 6.5692C590.183 6.6462 590.146 6.71821 590.091 6.77321L589.266 7.59823C589.119 7.74523 588.881 7.74523 588.734 7.59823L586.3 5.16421L587.418 6.72921C587.464 6.79321 587.488 6.86923 587.488 6.94823V8.11422C587.488 8.32222 587.32 8.49022 587.112 8.49022H583.671Z" fill="white" fill-opacity="0.2" stroke="white" stroke-opacity="0.2" stroke-width="2" mask="url(#path-74-inside-2_84_2940)"/>
<path d="M631.17 10.6079L634.84 18.282H629.08L626.068 11.985C625.584 12.344 625.2 12.834 624.969 13.405C624.813 13.791 624.727 14.214 624.727 14.657C624.727 15.484 625.027 16.241 625.523 16.821C625.034 18.097 623.809 19.002 622.375 19.002C620.511 19.002 619 17.474 619 15.588C619 15.18 619.071 14.789 619.201 14.426C619.883 11.931 622.221 9.89697 624.83 9.39597L621.16 1.72195H626.92L629.932 8.01895C630.417 7.65995 630.8 7.16994 631.031 6.59894C631.187 6.21294 631.273 5.78995 631.273 5.34695C631.273 4.51995 630.973 3.76295 630.477 3.18295C630.966 1.90695 632.191 1.00195 633.625 1.00195C635.489 1.00195 637 2.52995 637 4.41595C637 4.82395 636.929 5.21497 636.8 5.57697C636.117 8.07197 633.779 10.1069 631.17 10.6079Z" fill="white" fill-opacity="0.2"/>
<path d="M633.625 1.50195C635.208 1.50195 636.5 2.80077 636.5 4.41602C636.5 4.76564 636.439 5.09997 636.329 5.40918L636.322 5.42676L636.317 5.44531C635.689 7.74038 633.514 9.64883 631.076 10.1172L630.439 10.2393L630.719 10.8232L634.046 17.7822H629.396L626.52 11.7695L626.257 11.2217L625.771 11.583C625.214 11.9961 624.772 12.5605 624.506 13.2178C624.326 13.6625 624.227 14.1491 624.227 14.6572C624.227 15.4911 624.493 16.2644 624.944 16.8926C624.471 17.8491 623.496 18.502 622.375 18.502C620.792 18.502 619.5 17.2031 619.5 15.5879C619.5 15.2384 619.561 14.9045 619.672 14.5947L619.684 14.5576C620.311 12.2627 622.485 10.3551 624.924 9.88672L625.561 9.76465L625.281 9.18066L621.954 2.22168H626.604L629.48 8.23438L629.742 8.78125L630.229 8.4209C630.788 8.00746 631.228 7.44307 631.494 6.78613C631.674 6.34145 631.773 5.8548 631.773 5.34668C631.773 4.51235 631.506 3.73873 631.055 3.11035C631.529 2.15404 632.504 1.50195 633.625 1.50195Z" stroke="white" stroke-opacity="0.2"/>
<path d="M662.925 13.9999V8.14392H666.352V6.01291H657.004V8.14392H660.43V13.9999H662.925ZM669.845 6.01291H667.35V13.9999H669.845V6.01291ZM671.671 6.01291V13.9999H673.967V9.58691L678.241 13.9999H680.37V6.01291H678.075V10.3919L673.9 6.01291H671.671ZM685.274 10.9799L688.152 13.9999H691.362L687.353 9.83893L691.212 6.01291H688.185L685.274 9.01593H684.609V6.01291H682.197V13.9999H684.609V10.9799H685.274ZM696.325 5.79492C693.081 5.79492 691.135 7.64092 691.135 10.0229C691.135 12.4059 693.081 14.2519 696.325 14.2519C699.552 14.2519 701.498 12.4059 701.498 10.0229C701.498 7.64092 699.552 5.79492 696.325 5.79492ZM696.325 12.3049C694.711 12.3049 693.68 11.3319 693.68 10.0229C693.68 8.71392 694.711 7.75793 696.325 7.75793C697.921 7.75793 698.969 8.71392 698.969 10.0229C698.969 11.3319 697.921 12.3049 696.325 12.3049ZM710.644 6.01291H702.644V13.9999H705.056V11.2139H710.295V9.45291H705.056V8.04291H710.644V6.01291ZM719.724 6.01291H711.724V13.9999H714.136V11.2139H719.375V9.45291H714.136V8.04291H719.724V6.01291Z" fill="white" fill-opacity="0.2"/>
<path d="M696.325 6.29492C697.845 6.29498 699.015 6.72944 699.797 7.39648C700.574 8.05947 700.998 8.97629 700.998 10.0225C700.998 11.0694 700.574 11.9872 699.797 12.6504C699.015 13.3175 697.845 13.7519 696.325 13.752C694.796 13.752 693.622 13.3175 692.838 12.6504C692.059 11.9873 691.635 11.0694 691.635 10.0225C691.635 8.9763 692.059 8.05941 692.838 7.39648C693.622 6.72945 694.796 6.29492 696.325 6.29492ZM719.224 6.5127V7.54297H713.636V9.95312H718.875V10.7139H713.636V13.5H712.224V6.5127H719.224ZM710.144 6.5127V7.54297H704.556V9.95312H709.795V10.7139H704.556V13.5H703.144V6.5127H710.144ZM684.109 6.5127V9.51562H685.485L685.633 9.36426L688.397 6.5127H689.997L687.001 9.4834L686.65 9.83105L686.993 10.1855L690.187 13.5H688.366L685.636 10.6348L685.488 10.4795H684.109V13.5H682.697V6.5127H684.109ZM673.686 6.5127L677.713 10.7373L678.575 11.6406V6.5127H679.87V13.5H678.452L674.326 9.23926L673.467 8.35156V13.5H672.171V6.5127H673.686ZM669.345 6.5127V13.5H667.85V6.5127H669.345ZM665.852 6.5127V7.64355H662.425V13.5H660.93V7.64355H657.504V6.5127H665.852ZM696.325 7.25781C695.421 7.25781 694.634 7.52659 694.067 8.02344C693.496 8.52411 693.18 9.22908 693.18 10.0225C693.18 10.8155 693.495 11.5245 694.065 12.0293C694.632 12.5308 695.418 12.8047 696.325 12.8047C697.224 12.8046 698.009 12.5303 698.576 12.0303C699.147 11.5269 699.469 10.818 699.469 10.0225C699.469 9.22651 699.147 8.52176 698.574 8.02246C698.006 7.52704 697.222 7.25787 696.325 7.25781Z" stroke="white" stroke-opacity="0.2"/>
</svg>
