<svg width="3" height="5" fill="none" xmlns="http://www.w3.org/2000/svg"><path d="M.517 0C.559 0 .61.03.67.093l2.261 2.273a.497.497 0 00.034.049.124.124 0 01.034.083c0 .045-.023.09-.068.136L.672 4.907C.61 4.97.558 5 .516 5a.138.138 0 01-.063-.015.433.433 0 01-.053-.039.687.687 0 00-.034-.038L.092 4.62l-.058-.068A.12.12 0 010 4.464c0-.035.005-.061.014-.077a.313.313 0 01.058-.073L1.88 2.502.072.686A.41.41 0 01.014.618.19.19 0 010 .536.12.12 0 01.034.448L.092.38.367.093A.254.254 0 01.444.02.127.127 0 01.517 0z" fill="#000" fill-opacity=".4"/></svg>