<svg width="28" height="28" fill="none" xmlns="http://www.w3.org/2000/svg"><path d="M3.094.082c-.307.11-.586.356-.744.662l-.137.262-.016 11.042c-.006 7.48.005 11.112.043 11.254.088.323.372.662.706.826l.3.153H5.9l.016 1.384c.017 1.29.022 1.394.137 1.597.137.257.35.465.618.607.186.098.449.104 6.399.104h6.207l.48-.17a6.42 6.42 0 00.788-.355c.317-.192 4.157-3.752 4.496-4.168.262-.328.541-.918.667-1.394.098-.4.104-.69.104-8.7 0-5.546-.022-8.357-.055-8.494-.093-.322-.377-.656-.706-.826l-.3-.147h-2.653l-.016-1.384c-.016-1.22-.027-1.4-.12-1.57a1.47 1.47 0 00-.607-.617l-.22-.12-8.913-.012c-7.481-.01-8.947 0-9.127.066zm17.91 1.05c.06.066.076.356.076 1.323v1.236l-7.11.028-7.109.027-.218.12a1.383 1.383 0 00-.624.673c-.11.246-.115.306-.115 9.505v9.258l-1.246-.016c-.963-.011-1.275-.033-1.34-.093-.088-.066-.093-.913-.093-11.03 0-9.883.01-10.96.087-11.036.077-.077.952-.088 8.849-.088 8.088 0 8.777.006 8.843.093zm3.604 3.642l.136.071v16.729l-2.16.028-2.16.027-.306.153c-.345.164-.684.503-.88.87-.127.23-.127.273-.154 2.258l-.027 2.024H7.03l-.071-.137c-.055-.11-.066-2.313-.055-11.009l.011-10.877.131-.104c.126-.104.34-.104 8.778-.104 6.863 0 8.673.017 8.783.071zm-.416 17.932c-.23.257-4.03 3.817-4.08 3.817-.027 0-.043-.672-.033-1.69.017-1.919.011-1.88.482-2.127.235-.115.284-.12 1.99-.12h1.745l-.104.12z" fill="#556CC0"/><path d="M10.723 8.498c-.3.17-.355.493-.12.755l.159.18h10.183l.147-.147c.213-.219.208-.498-.027-.706l-.175-.158h-5.02c-4.058.005-5.043.016-5.146.076zm-.024 3.375a.698.698 0 00-.18.218.466.466 0 00.125.597c.137.109.213.109 5.195.109 3.517 0 5.086-.017 5.168-.06a.57.57 0 00.186-.246c.066-.159.066-.214 0-.372a.569.569 0 00-.186-.246c-.153-.082-10.166-.082-10.308 0zm-.052 3.44a.574.574 0 00-.175.268c-.038.185.082.464.24.552.154.076 10.145.076 10.298-.006.142-.076.263-.366.224-.557a.52.52 0 00-.169-.258c-.131-.109-.235-.109-5.206-.109-4.999 0-5.075 0-5.212.11zm.148 3.281c-.153.06-.35.317-.35.448 0 .175.153.41.312.476.115.044.924.06 2.991.05l2.833-.017.131-.153a.504.504 0 000-.678l-.13-.154-2.839-.01c-1.559-.006-2.888.01-2.948.038z" fill="#556CC0"/></svg>