<svg width="162" height="120" fill="none" xmlns="http://www.w3.org/2000/svg"><path d="M151.131.795c-1.673.034-4.176 1.087-7.228 3.137-6.226 3.605-10.606 8.246-14.823 12.951-1.633 1.818-4.164 5.036-5.624 7.151-6.684 9.42-12.191 17.958-16.406 29.054-1.329 3.576-1.725 4.056-8.345 10.123-3.822 3.503-8.123 7.498-9.557 8.878-5.237 3.922-17.535 15.95-24.345 16.16-.31-.192-.564-.766-.564-1.276 0-1.245-1.031-2.208-2.363-2.204-1.326.003-2.672.883-7.99 5.216-3.686 3.005-4.205 3.272-4.98 2.57-1.068-.967-4.683-.724-5.795.392-1.205 1.209-.421 3.33 1.475 3.993.878.307 1.595.87 1.593 1.252-3.803 9.274-13.69 12.014-12.956-1.65 1.782-2.825 1.557-3.127 3.83-5.346l9.182-11.758c6.388-8.819 13.261-17.733 18.168-27.973 1.719-4.174 5.417-15.085 1.038-16.367-2.735-.706-6.421 1.615-9.201 5.792-5.137 7.002-9.143 13.922-13.369 20.965-4.225 7.043-6.422 13.6-8.609 20.086-1.006 2.97-2.206 7.392-2.667 9.828-.348 1.84-.346 2.174-.794 4.426-3.75 5.705-8.202 11.763-12.32 16.145-1.57 1.665-2.548 2.264-3.697 2.264-2 0-2.287-.806-1.872-5.276.462-4.987 1.197-6.87 3.76-9.643 2.862-3.093 6.659-7.753 8.25-10.123 2.206-2.822 4.359-5.984 5.85-8.792 2.94-5.295 5.916-9.854 7.415-14.935.655-2.78 2.267-8.356-.936-8.678-1.505-.145-2.125.203-4.275 2.397-4.41 4.502-4.13 6.295.394 2.525 10.814-7.008-4.529 17.957-6.832 21.208-.903 1.253-2.808 4.115-4.234 6.36-1.425 2.243-3.475 5.06-4.554 6.26-1.08 1.199-2.572 2.702-2.709 2.438-.377-.724.09-3.614 1.738-9.286l.697-3.691s3.52-3.023 4.542-3.699c1.022-.675 4.577-3.364 6.217-4.742 1.641-1.378 2.634-2.736 4.017-5.428 1.383-2.692-2.034-5.311-6.205-2.741-2.277 1.403-4.454 3.566-7.25 9.153-1.802 3.597-2.24 4.591-2.998 6.405L4.196 90.28C.303 91.74.19 93.373 1.97 92.76c.484-.165 3.612-1.362 6.89-3.033 3.278-1.67 6.268-3.01 6.486-3.13 0 0-.37 2.614-.96 4.912s-1.22 5.545-1.4 7.214c-.311 2.86-.52 3.22-3.63 6.248-1.814 1.767-3.77 3.579-4.346 4.025-.937.726-.96.883-.221 1.478 1.41 1.2 8.906 13.313 8.998 7.593 0-1.421.222-1.866.93-1.867 3.072 1.476 12.45-11.383 16.156-16.353.855 2.359.952 6.228 3.652 7.843 1.301.699 4.555.657 5.984-.076 2.516-1.29 5.616-4.923 6.717-7.871.999-2.674 1.513-3.256 4.871-5.52 3.42-2.306 5.744-3.162 5.787-2.131.01.22.591.817 1.293 1.33 1.239.903 1.386.88 4.896-.746 9.236-4.277 14.688-7.805 21.67-14.022 2.048-1.824 4.312-3.773 5.03-4.33.718-.559 2.307-1.998 3.53-3.2 3.482-3.417 6.523-6.185 8.438-7.553-.681 2.167-1.384 3.887-2.347 6.153-3.748 8.814-6.89 16.503-6.718 23.44.113 4.548.065 3.63-5.271 4.09-5.82.503-12.819 3.086-13.911 4.371-1.28 1.507.754 1.987 6.322.596 3.006-.75 6.868-1.574 8.544-1.994 3.751-.942 4.376-.238 6.255 2.978 1.063 1.818 2.154 2.455 4.222 3.144 3.715 1.658 12.24-4.129 12.732-7.168 0-.512-.503-1.387-1.119-1.945-.953-.864-2.04-1.751-7.302-1.82-3.401-.046-7.513.721-7.878.693.6-12.806 4.677-20.397 7.861-28.822 1.148-3.104 2.66-6.616 3.358-7.803 1.127-1.917 9.782-10.475 17.738-17.54 9.328-8.33 19.762-22.493 23.722-29.388 4.124-7.181 4.462-7.886 4.489-9.38.028-1.503-.686-2.29-1.982-2.374a3.79 3.79 0 00-.324-.008zm-1.355 3.038c.677 6.001-10.777 18.84-14.988 23.861-3.891 4.654-13.052 13.927-19.079 19.313-1.923 1.72-2.08 2.264-5.262 4.951 1.951-4.238 2.608-6.984 8.649-15.944 7.184-10.656 10.656-15.116 16.384-21.048 3.813-3.948 10.453-9.562 12.428-10.506.843-.404 1.467-.625 1.868-.627zM64.79 38.054c1.325.12 1.32 1.898.243 6.049-3.89 10.082-7.614 17.904-14.608 26.395-4.5 6.188-8.445 12.278-13.183 17.89-1.586 2.007-3.275 2.942-3.275 1.816 0-1.168 2.958-10.42 4.614-14.434 3.731-9.042 6.054-14.341 9.005-18.462 2.95-4.122 10.91-18.984 17.204-19.254zm94.68 28.833c-11.985-.164-24.479 5.724-34.398 10.354-2.39 1.061-4.361 3.32-3.755 4.305.614.997 2.622.584 5.06-1.042 11.663-6.637 24.607-9.889 33.326-10.977 1.732-.214 2.257-.505 2.257-1.254 0-.943-.456-1.356-2.49-1.386zm-129.903 2.96c.503 0 .698.47.585 1.41-.11.93-1.2 2.23-3.089 3.935-4.169 3.764-6.448 5.293-8.026 6.267 1.147-2.305 1.896-3.689 4.464-6.903 1.895-2.37 4.791-4.709 6.066-4.709zm31.765 16.884a.995.995 0 01.65.194c.768 1.258.425 1.812-.29 2.888-.692.781-1.54.903-2.025.283-.485-.621-.038-1.368.56-2.269.396-.595.587-1.073 1.105-1.096zm-15.374 6.603c.07-.001.14.001.209.007.613.058 1.057.404 1.025.8l-.111.285c-.262.358-.907.53-1.49.398-.584-.132-.916-.525-.766-.908.13-.334.594-.572 1.133-.582zm58.57 4.753c3.05 0 4.323.38 4.323 1.29 0 1.068-2.883 3.492-4.816 4.048-.999.288-2.379.523-3.068.523-1.448 0-5.276-3.552-4.544-4.217.804-.73 5.313-1.644 8.105-1.644zm-92.997 7.459c.26 0 .37 2.098.244 4.662-.235 4.803.573 7.276-1.5 5.039-1.266-1.49-3.395-4.756-3.384-5.561.01-.719 3.844-4.14 4.64-4.14z" fill="#fff"/></svg>