<svg width="256" height="82" fill="none" xmlns="http://www.w3.org/2000/svg"><path d="M255.989 31.936c-.054.533-.241.933-.561 1.2-.266.267-.48.374-.64.32a3.87 3.87 0 01-.4-.24 2.14 2.14 0 00-.56-.4c-.374-.213-.694-.347-.961-.4-.213-.107-.587-.187-1.12-.24-.801-.054-1.815.213-3.042.8-1.227.587-2.534 1.36-3.922 2.321a66.409 66.409 0 00-4.322 3.282 73.355 73.355 0 00-4.242 3.762 219.506 219.506 0 00-3.201 3.121c-.801.8-1.548 1.601-2.241 2.401a56.42 56.42 0 00-2.001 2.482 309.51 309.51 0 00-2.721 3.361c-.267 0-.454-.133-.561-.4a1.815 1.815 0 01-.32-.8 3.42 3.42 0 010-1.04c0-.374.054-.668.16-.881 1.067-2.028 2.535-4.189 4.402-6.483a88.105 88.105 0 015.923-6.884 50.557 50.557 0 013.842-3.762c1.334-1.174 2.481-2.054 3.441-2.641.641-.427 1.468-.747 2.482-.96a12.84 12.84 0 013.121-.4c-1.654 1.067-3.522 2.534-5.603 4.401a52.534 52.534 0 00-5.682 5.763l.24.32 3.922-3.361a54.861 54.861 0 014.562-3.522c1.547-1.12 3.041-2.027 4.482-2.721 1.494-.694 2.721-.96 3.682-.8.693.106 1.174.4 1.44.88.321.427.454.934.401 1.52z" fill="#434343"/><path d="M235.143 29.774a209.875 209.875 0 00-5.043 4.723 195.023 195.023 0 00-4.642 4.482c-1.387 1.44-2.668 2.775-3.842 4.002a166.566 166.566 0 00-2.721 3.041c-1.227 1.548-2.188 2.855-2.881 3.922-.641 1.014-.667 1.654-.08 1.921.32.16.773.107 1.36-.16a18.8 18.8 0 002.081-1.04c.801-.48 1.574-.987 2.321-1.521a68.398 68.398 0 012.001-1.52 95.467 95.467 0 004.002-3.362 234.355 234.355 0 003.602-3.122c.106-.107.267-.187.48-.24.213-.107.373-.053.48.16.107.267.107.48 0 .64l-.4.4a756.059 756.059 0 01-3.922 3.362 636.368 636.368 0 01-3.521 2.962 50.419 50.419 0 01-2.081 1.6 34.597 34.597 0 01-2.322 1.521c-.8.48-1.574.88-2.321 1.2-.693.32-1.307.481-1.84.481-.694 0-1.281-.16-1.761-.48-.481-.267-.827-.694-1.041-1.28-.16-.588-.133-1.282.08-2.082.214-.854.694-1.84 1.441-2.961-2.348 1.974-4.536 3.601-6.563 4.882-2.028 1.28-3.682 1.921-4.962 1.921-1.388 0-2.242-.454-2.562-1.36-.32-.908-.24-2.055.24-3.442.427-1.388 1.174-2.882 2.241-4.483a24.676 24.676 0 013.602-4.562 45.416 45.416 0 015.363-4.562c2.027-1.44 4.002-2.641 5.922-3.602 1.975-.96 3.789-1.627 5.443-2 1.654-.374 2.908-.32 3.762.16.533.32.747.933.64 1.84-.053.907-.854 2.108-2.401 3.602 1.601-1.334 2.935-2.374 4.002-3.122 1.12-.8 2.027-1.334 2.721-1.6.961-.32 2.001-.427 3.122-.32zm-8.725.64c-.747-.586-2.561.08-5.442 2.002-2.881 1.867-6.456 4.829-10.725 8.884a54.275 54.275 0 00-3.442 3.602c-1.014 1.174-1.841 2.268-2.481 3.282-.694.96-1.147 1.787-1.361 2.48-.213.694-.08 1.148.401 1.361.373.16 1.04 0 2.001-.48 1.013-.533 2.214-1.28 3.601-2.24 1.441-1.015 2.988-2.242 4.642-3.683a82.73 82.73 0 005.043-4.802c.8-.8 1.707-1.734 2.721-2.801a49.606 49.606 0 002.881-3.122c.908-1.014 1.601-1.92 2.081-2.721.481-.854.507-1.441.08-1.761z" fill="#434343"/><path d="M205.607 41.62c.213.214.213.427 0 .64-.16.214-.347.4-.56.56a84.155 84.155 0 01-4.242 3.763 73.839 73.839 0 01-4.643 3.441c-1.6 1.174-3.201 2.055-4.802 2.642-1.547.64-2.774.853-3.682.64-.48-.107-.907-.373-1.28-.8-.32-.427-.534-.96-.64-1.601-.054-.64.026-1.36.24-2.161.266-.8.72-1.681 1.36-2.642.481-.693.961-1.307 1.441-1.84a22.59 22.59 0 011.521-1.681 27.071 27.071 0 011.761-1.761c.64-.587 1.36-1.254 2.161-2.001a75.576 75.576 0 012.561-2.241 80.288 80.288 0 002.961-2.481c.907-.854 1.601-1.601 2.081-2.242.534-.693.64-1.173.32-1.44-.267-.214-1.067-.027-2.401.56-1.334.534-2.908 1.334-4.722 2.401a92.74 92.74 0 00-5.603 3.522c-1.921 1.334-3.628 2.668-5.122 4.002-1.494 1.28-2.748 2.428-3.762 3.442a69.588 69.588 0 00-2.801 2.961 139.33 139.33 0 00-2.401 2.962 169.087 169.087 0 01-2.802 3.441c-.266 0-.48-.133-.64-.4a2.823 2.823 0 01-.24-.8v-1.04c.053-.374.133-.668.24-.881a37.274 37.274 0 011.681-2.882c.64-.96 1.307-1.894 2.001-2.801a55.29 55.29 0 012.481-2.802 563.559 563.559 0 012.961-3.281 63.62 63.62 0 012.482-2.321 78.587 78.587 0 002.961-2.642c.96-.853 1.707-1.6 2.241-2.24.534-.64.614-1.041.24-1.201-.48-.214-1.494.053-3.041.8-1.548.694-3.309 1.654-5.283 2.882a73.38 73.38 0 00-6.003 4.002c-2.027 1.494-3.735 2.908-5.122 4.242a215.21 215.21 0 00-3.202 3.121c-.8.8-1.547 1.601-2.241 2.401a57.922 57.922 0 00-2.001 2.482 309.51 309.51 0 00-2.721 3.361c-.267 0-.453-.133-.56-.4a1.803 1.803 0 01-.32-.8 3.357 3.357 0 010-1.04c0-.374.053-.668.16-.881 1.014-1.868 2.401-3.922 4.162-6.163 1.707-2.241 3.762-4.643 6.163-7.204a42.843 42.843 0 013.922-3.762c1.387-1.174 2.561-2.08 3.521-2.721.694-.427 1.521-.747 2.481-.96a14.735 14.735 0 013.042-.32c-.747.48-1.574 1.12-2.481 1.92a55.7 55.7 0 00-2.882 2.562 77.422 77.422 0 00-3.121 2.961 52.748 52.748 0 00-2.882 3.121 98.931 98.931 0 014.963-3.761 99.045 99.045 0 015.522-3.682c1.815-1.12 3.522-2.001 5.123-2.641 1.654-.64 2.961-.88 3.922-.72.64.106 1.067.373 1.28.8.267.373.374.853.32 1.44-.053.587-.24 1.228-.56 1.921a8.98 8.98 0 01-1.12 1.921 97.11 97.11 0 013.921-2.481 56.249 56.249 0 013.762-2.081c1.227-.64 2.321-1.094 3.282-1.36 1.014-.32 1.787-.374 2.321-.16 1.28.48 1.867 1.227 1.761 2.24-.054.96-.481 2.001-1.281 3.122-.747 1.12-1.707 2.268-2.881 3.442a123.342 123.342 0 01-3.202 2.961 114.078 114.078 0 00-3.522 3.362 73.567 73.567 0 00-2.881 2.881c-1.12 1.227-1.947 2.241-2.481 3.041-.534.748-.56 1.334-.08 1.761.213.16.56.187 1.04.08.481-.106 1.041-.293 1.681-.56a42.45 42.45 0 002.081-1.12 31.053 31.053 0 002.401-1.601 93.695 93.695 0 004.803-3.682 344.88 344.88 0 003.601-3.122c.214-.213.427-.373.641-.48.213-.16.426-.133.64.08zm-28.35-28.093c.107 1.654-.106 3.308-.64 4.962a16.292 16.292 0 01-2.321 4.482 14.446 14.446 0 01-3.682 3.522 11.702 11.702 0 01-4.802 1.84 66.005 66.005 0 01-4.722 6.644 49.517 49.517 0 01-5.523 6.003 72.084 72.084 0 01-8.564 6.723 72.275 72.275 0 01-9.364 5.443c-3.202 1.6-6.377 2.855-9.525 3.762-3.094.96-6.029 1.494-8.804 1.6-1.654.054-3.388-.08-5.202-.4a13.096 13.096 0 01-4.883-1.76c-1.494-.854-2.747-2.055-3.761-3.602-1.014-1.548-1.548-3.549-1.601-6.003-.107-2.135.293-4.536 1.201-7.204.96-2.668 2.321-5.416 4.081-8.244 1.815-2.881 4.002-5.71 6.564-8.484 2.614-2.828 5.549-5.496 8.804-8.004 3.681-2.774 7.336-5.042 10.965-6.803 3.628-1.814 7.15-3.228 10.565-4.242 3.415-1.014 6.616-1.681 9.604-2.001 2.988-.32 5.683-.374 8.084-.16 1.761.16 3.442.533 5.042 1.12 1.601.534 2.988 1.308 4.162 2.321 1.228.96 2.215 2.162 2.962 3.602.747 1.388 1.2 3.015 1.36 4.883zm-2.001-.08c-.266-3.415-1.467-5.977-3.601-7.684-2.135-1.708-4.722-2.695-7.764-2.962-4.642-.48-10.138.454-16.488 2.802-6.296 2.294-12.966 6.216-20.009 11.765a126.063 126.063 0 00-8.804 7.684c-2.668 2.561-4.962 5.123-6.883 7.684-1.921 2.508-3.442 4.936-4.562 7.284-1.068 2.347-1.575 4.562-1.521 6.643 0 2.828.587 4.962 1.761 6.403 1.227 1.494 2.641 2.561 4.242 3.201 1.654.64 3.308.96 4.962.96 1.654.054 2.935.054 3.842 0-1.921-.373-3.362-1.146-4.322-2.32-.961-1.12-1.574-2.428-1.841-3.922-.214-1.494-.16-3.068.16-4.722a21.611 21.611 0 011.601-4.643c2.027-4.428 4.535-8.35 7.523-11.765 3.042-3.415 6.27-6.43 9.685-9.045a56.957 56.957 0 018.084-5.122c2.828-1.441 5.575-2.615 8.243-3.522 2.722-.96 5.283-1.6 7.684-1.921 2.454-.374 4.642-.454 6.563-.24a7.86 7.86 0 012.881.88 6.519 6.519 0 012.241 1.921c.587.8.961 1.761 1.121 2.882.213 1.12.133 2.347-.24 3.681-.747 2.615-1.921 5.336-3.522 8.164a10.715 10.715 0 003.842-2.24 15.102 15.102 0 002.961-3.442 15.704 15.704 0 001.761-4.162c.374-1.494.507-2.909.4-4.242zm-6.563 5.522c.32-1.227.401-2.294.24-3.201-.106-.96-.4-1.788-.88-2.482a4.7 4.7 0 00-1.921-1.6 7.448 7.448 0 00-2.481-.72c-1.868-.214-3.922-.054-6.163.48-2.241.48-4.589 1.254-7.043 2.32-2.455 1.068-4.989 2.402-7.604 4.003a92.826 92.826 0 00-7.683 5.202 147.874 147.874 0 00-5.123 4.162 67.468 67.468 0 00-4.962 4.643 57.02 57.02 0 00-4.482 5.042 32.597 32.597 0 00-3.362 5.443c-.693 1.334-1.254 2.854-1.681 4.562-.373 1.654-.4 3.228-.08 4.722.321 1.44 1.094 2.668 2.322 3.682 1.28 1.014 3.228 1.52 5.842 1.52 2.455-.48 4.963-1.28 7.524-2.4a59.738 59.738 0 007.843-3.922 77.792 77.792 0 007.684-5.203 103.174 103.174 0 007.363-6.243 80.68 80.68 0 004.723-4.802 91.984 91.984 0 004.322-5.123 45.922 45.922 0 003.441-5.202c.961-1.708 1.681-3.335 2.161-4.883z" fill="#434343"/><path d="M95.302 51.065c0 .587-.187 1.094-.56 1.52-.428.374-.935.56-1.522.56a2.233 2.233 0 01-1.52-.56 2.078 2.078 0 01-.64-1.52c0-.587.213-1.094.64-1.52.427-.481.934-.721 1.52-.721.587 0 1.094.24 1.521.72.374.427.56.934.56 1.52zm10.054-19.129c-.054.533-.241.933-.561 1.2-.266.267-.48.374-.64.32a3.87 3.87 0 01-.4-.24 2.14 2.14 0 00-.56-.4c-.374-.213-.694-.347-.961-.4-.213-.107-.587-.187-1.12-.24-.801-.054-1.815.213-3.042.8-1.227.587-2.534 1.36-3.922 2.321a66.327 66.327 0 00-4.322 3.282 73.355 73.355 0 00-4.242 3.762 215.355 215.355 0 00-3.201 3.121c-.8.8-1.548 1.601-2.241 2.401a57.463 57.463 0 00-2.001 2.482 313.31 313.31 0 00-2.722 3.361c-.266 0-.453-.133-.56-.4a1.807 1.807 0 01-.32-.8 3.4 3.4 0 010-1.04c0-.374.053-.668.16-.881 1.067-2.028 2.535-4.189 4.402-6.483a88.079 88.079 0 015.923-6.884 50.538 50.538 0 013.842-3.762c1.334-1.174 2.481-2.054 3.442-2.641.64-.427 1.467-.747 2.48-.96 1.068-.267 2.108-.4 3.122-.4-1.654 1.067-3.522 2.534-5.603 4.401a52.586 52.586 0 00-5.682 5.763l.24.32 3.922-3.361a54.98 54.98 0 014.562-3.522c1.547-1.12 3.041-2.027 4.482-2.721 1.494-.694 2.721-.96 3.682-.8.693.106 1.174.4 1.44.88.321.427.454.934.401 1.52zM84.86.8c-.054.214-.294.32-.72.32-.427 0-1.068.107-1.921.32-1.388.32-2.882.961-4.483 1.922-1.547.96-2.8 1.894-3.761 2.801 1.6 1.44 2.908 3.041 3.922 4.802 1.067 1.761 1.867 3.549 2.4 5.363.588 1.814.934 3.602 1.041 5.363.107 1.707.027 3.255-.24 4.642-.534 2.668-1.254 5.042-2.161 7.123-.907 2.028-1.948 3.869-3.121 5.523a33.116 33.116 0 01-3.762 4.322 81.253 81.253 0 01-4.002 3.602c-3.095 2.348-7.017 4.269-11.766 5.763-4.748 1.547-10.351 2.24-16.808 2.08a93.244 93.244 0 01-7.763-.48c-2.508-.266-4.962-.56-7.364-.88-2.347-.32-4.588-.64-6.723-.96a97.546 97.546 0 00-5.682-.72c1.547 3.841 4.055 6.802 7.523 8.884 3.468 2.134 7.87 3.201 13.206 3.201 1.761 0 3.415-.267 4.963-.8 1.6-.534 2.854-1.094 3.761-1.681l.8-.64c.268-.214.454-.267.561-.16.267.213.294.426.08.64a2.71 2.71 0 01-.64.72c-.427.374-.987.72-1.681 1.04a12.51 12.51 0 01-2.401.961c-.854.32-1.788.56-2.802.72a19.47 19.47 0 01-3.04.24c-5.497 0-10.059-1.147-13.687-3.441-3.629-2.241-6.27-5.336-7.924-9.285-.64.214-1.6.48-2.881.8a23.997 23.997 0 01-3.922.641c-.8.107-1.548.027-2.241-.24-.694-.267-1.014-.614-.96-1.04 0-.8.506-1.388 1.52-1.761.96-.374 1.92-.614 2.881-.72a10.934 10.934 0 012.642 0c.907.053 1.654.133 2.24.24-.853-2.722-1.28-5.79-1.28-9.205 0-5.816 1.28-11.259 3.842-16.328 2.614-5.07 6.323-9.551 11.125-13.447 3.949-3.201 8.484-5.842 13.606-7.923C42.36 1.04 47.936 0 53.965 0c2.401 0 4.536.133 6.403.4 1.921.267 3.629.64 5.123 1.12 1.494.481 2.828 1.041 4.002 1.682a23.1 23.1 0 013.201 1.92c.48-.373 1.067-.773 1.76-1.2a33.1 33.1 0 012.322-1.36c.8-.481 1.627-.881 2.481-1.201.854-.32 1.654-.56 2.401-.72a15.25 15.25 0 012.161-.16c.747-.054 1.094.053 1.04.32zm-7.204 24.012c.374-1.974.507-3.842.4-5.603-.106-1.814-.4-3.468-.88-4.962-.427-1.547-1.014-2.935-1.76-4.162-.748-1.227-1.548-2.295-2.402-3.202a78.677 78.677 0 00-6.083 5.763 131.832 131.832 0 00-5.282 5.923 718.737 718.737 0 00-4.562 5.683 115.42 115.42 0 01-4.082 4.882c-3.895 4.376-7.577 7.95-11.045 10.725-3.415 2.722-6.644 4.883-9.685 6.484-3.041 1.6-5.923 2.72-8.644 3.361-2.721.64-5.282 1.04-7.684 1.2 1.441.321 3.122.641 5.043.961 1.974.267 4.002.534 6.083.8 2.134.214 4.268.374 6.403.48 2.134.161 4.162.241 6.083.241 3.575 0 6.776-.32 9.604-.96 2.828-.694 5.336-1.521 7.524-2.482 2.187-1.014 4.055-2.08 5.602-3.201 1.547-1.174 2.855-2.241 3.922-3.202a61.882 61.882 0 003.602-3.762 40.19 40.19 0 003.361-4.562 39.9 39.9 0 002.802-5.122c.8-1.761 1.36-3.522 1.68-5.283zm-5.922-18.97c-1.548-1.226-3.629-2.267-6.243-3.12-2.615-.908-5.923-1.361-9.925-1.361-3.041 0-6.003.347-8.884 1.04a44.277 44.277 0 00-8.164 2.641 47.081 47.081 0 00-7.123 3.682c-2.188 1.388-4.136 2.802-5.843 4.242a56.027 56.027 0 00-6.243 6.083 42.934 42.934 0 00-4.882 6.804 35.562 35.562 0 00-3.122 7.523 29.282 29.282 0 00-1.12 8.084c0 3.309.427 6.217 1.28 8.724 3.309-.106 6.403-.56 9.285-1.36 2.881-.854 5.71-2.108 8.484-3.762 2.828-1.707 5.709-3.895 8.644-6.563 2.934-2.668 6.163-5.896 9.684-9.685a659.128 659.128 0 016.003-6.403 335.26 335.26 0 016.163-6.163 118.48 118.48 0 016.083-5.683 84.757 84.757 0 015.923-4.722zm154.211 66.487v.84h-4.016v6.176h-.947V72.33h4.963zm-13.027-.054c2.001 0 3.495 1.441 3.495 3.562 0 2.134-1.494 3.575-3.495 3.575-1.121 0-2.081-.48-2.668-1.387v3.908h-.947V72.33h.907v1.387c.574-.934 1.547-1.44 2.708-1.44zm-.067 6.297c1.481 0 2.615-1.094 2.615-2.735 0-1.627-1.134-2.735-2.615-2.735-1.494 0-2.614 1.108-2.614 2.735 0 1.64 1.12 2.735 2.614 2.735zm-8.492-6.243h.934l-3.508 7.857C201.198 81.56 200.451 82 199.45 82c-.654 0-1.28-.213-1.707-.64l.44-.707c.347.346.774.533 1.28.533.627 0 1.054-.293 1.454-1.174l.307-.68-3.135-7.003h.988l2.641 5.963 2.641-5.963zm-12.898-.054c2.001 0 3.495 1.441 3.495 3.562 0 2.134-1.494 3.575-3.495 3.575-1.12 0-2.081-.48-2.668-1.387v3.908h-.947V72.33h.907v1.387c.574-.934 1.548-1.44 2.708-1.44zm-.067 6.297c1.481 0 2.615-1.094 2.615-2.735 0-1.627-1.134-2.735-2.615-2.735-1.494 0-2.614 1.108-2.614 2.735 0 1.64 1.12 2.735 2.614 2.735zm-15.266.773V72.33h.947v5.576l4.682-5.576h.84v7.016h-.947V73.77l-4.669 5.576h-.853zm-4.087 0h-1.081l-2.227-2.934-2.242 2.934h-1.067l2.775-3.601-2.641-3.415h1.067l2.108 2.748 2.107-2.748h1.041l-2.642 3.415 2.802 3.601zm-20.026-8.017c-1.187 0-1.96-.614-1.987-1.734h.68c.013.707.547 1.147 1.307 1.147.761 0 1.294-.44 1.321-1.147h.68c-.026 1.12-.813 1.734-2.001 1.734zm-3.188 8.017V72.33h.947v5.576l4.683-5.576h.84v7.016h-.947V73.77l-4.669 5.576h-.854zm-11.718 0V72.33h.947v5.576l4.682-5.576h.84v7.016h-.947V73.77l-4.669 5.576h-.853zm-5.15 0l-2.588-3.121h-1.601v3.121h-.947V72.33h.947v3.081h1.614l2.468-3.081h1.027l-2.761 3.401 2.961 3.615h-1.12zm-12.252.067c-2.094 0-3.615-1.48-3.615-3.575 0-2.094 1.521-3.562 3.615-3.562 1.187 0 2.188.467 2.748 1.388l-.707.48c-.48-.707-1.227-1.04-2.041-1.04-1.534 0-2.655 1.093-2.655 2.734 0 1.654 1.121 2.735 2.655 2.735.814 0 1.561-.32 2.041-1.028l.707.48c-.56.908-1.561 1.388-2.748 1.388zm-7.566-3.575c0 .08-.013.187-.013.293h-5.87c.107 1.468 1.228 2.442 2.762 2.442.853 0 1.614-.307 2.147-.92l.534.613c-.627.747-1.601 1.147-2.708 1.147-2.188 0-3.682-1.494-3.682-3.575 0-2.081 1.454-3.562 3.429-3.562 1.974 0 3.401 1.454 3.401 3.562zm-3.401-2.748c-1.361 0-2.362.96-2.482 2.335h4.976c-.12-1.375-1.12-2.335-2.494-2.335zm-8.92-.76h.947v7.016h-.947v-2.921c-.787.347-1.6.533-2.387.533-1.641 0-2.682-.733-2.682-2.32v-2.308h.947v2.254c0 1.067.734 1.6 1.908 1.6.68 0 1.427-.186 2.214-.52V72.33zm-16.067 7.016V72.33h.947v5.576l4.682-5.576h.84v7.016h-.946V73.77l-4.67 5.576h-.853zm-3.903-7.016v.84h-2.655v6.176h-.947V73.17h-2.655v-.84h6.256zm-11.923 7.083c-2.094 0-3.615-1.48-3.615-3.575 0-2.094 1.521-3.562 3.615-3.562 1.188 0 2.188.467 2.748 1.388l-.707.48c-.48-.707-1.227-1.04-2.04-1.04-1.535 0-2.655 1.093-2.655 2.734 0 1.654 1.12 2.735 2.654 2.735.814 0 1.561-.32 2.041-1.028l.707.48c-.56.908-1.56 1.388-2.748 1.388zm-10.831-7.137c1.814 0 2.84.907 2.84 2.722v4.348h-.906v-1.094c-.427.72-1.254 1.161-2.415 1.161-1.587 0-2.56-.827-2.56-2.04 0-1.081.693-1.989 2.707-1.989h2.228v-.426c0-1.201-.68-1.855-1.988-1.855-.907 0-1.76.32-2.334.827l-.427-.707c.707-.6 1.747-.947 2.855-.947zm-.334 6.39c1.067 0 1.854-.507 2.228-1.427V76.09h-2.201c-1.36 0-1.801.534-1.801 1.254 0 .814.654 1.321 1.774 1.321zm-12.443-6.336h5.135v7.016h-.947V73.17h-3.361l-.094 1.734c-.12 2.455-.427 4.536-1.934 4.536-.214 0-.427-.04-.68-.107l.066-.814c.12.027.24.054.334.054 1.16 0 1.267-1.881 1.36-3.736l.12-2.507zm-12.124 0h6.296v7.016h-.947V73.17h-4.402v6.176h-.947V72.33zM0 75.177v-.834h20.843v.834H0zm235.11 1.667v-.834h20.843v.834H235.11z" fill="#898989"/></svg>