<svg width="771" height="196" fill="none" xmlns="http://www.w3.org/2000/svg"><g opacity=".1"><path d="M770.965 96.548c-.161 1.613-.725 2.823-1.691 3.63-.806.806-1.45 1.129-1.934.968a12.058 12.058 0 01-1.208-.726 6.432 6.432 0 00-1.692-1.21c-1.127-.645-2.094-1.049-2.9-1.21-.644-.323-1.772-.565-3.383-.726-2.417-.161-5.478.645-9.183 2.42-3.706 1.774-7.653 4.113-11.842 7.017-4.189 2.904-8.539 6.211-13.05 9.921a221.421 221.421 0 00-12.809 11.373c-3.866 3.71-7.089 6.856-9.666 9.437a138.955 138.955 0 00-6.767 7.259 174.675 174.675 0 00-6.042 7.501 967.023 967.023 0 00-8.216 10.163c-.806 0-1.37-.403-1.692-1.209-.483-.646-.806-1.452-.967-2.42-.161-1.129-.161-2.178 0-3.146 0-1.129.161-2.016.483-2.662 3.223-6.13 7.653-12.663 13.292-19.6 5.478-7.098 11.439-14.034 17.884-20.809 3.866-4.195 7.733-7.986 11.6-11.373 4.028-3.55 7.492-6.211 10.392-7.986 1.933-1.29 4.43-2.258 7.491-2.903 3.223-.807 6.364-1.21 9.425-1.21-4.994 3.226-10.633 7.663-16.916 13.309-6.284 5.484-12.003 11.292-17.159 17.422l.725.968 11.842-10.163a165.886 165.886 0 0113.775-10.647c4.672-3.388 9.183-6.13 13.533-8.227 4.512-2.097 8.217-2.904 11.117-2.42 2.095.323 3.545 1.21 4.35 2.662.967 1.29 1.37 2.823 1.208 4.597z" fill="#434343"/><path d="M708.022 90.015a640.23 640.23 0 00-15.225 14.276 587.867 587.867 0 00-14.017 13.551 5059.067 5059.067 0 00-11.6 12.099c-3.383 3.71-6.122 6.775-8.216 9.195-3.706 4.678-6.606 8.63-8.701 11.857-1.933 3.065-2.013 5-.241 5.807.966.484 2.336.323 4.108-.484 1.934-.807 4.028-1.855 6.284-3.146a104.938 104.938 0 007.008-4.597 206.479 206.479 0 016.042-4.598 289.835 289.835 0 0012.083-10.163c4.35-3.71 7.975-6.856 10.875-9.437.322-.322.806-.564 1.45-.726.645-.322 1.128-.161 1.45.484.322.807.322 1.452 0 1.936l-1.208 1.21a2326.555 2326.555 0 01-11.842 10.163 1911.959 1911.959 0 01-10.633 8.953c-1.773 1.452-3.867 3.065-6.284 4.84a104.815 104.815 0 01-7.008 4.597c-2.417 1.452-4.753 2.662-7.008 3.63-2.095.968-3.948 1.452-5.559 1.452-2.094 0-3.867-.484-5.317-1.452-1.45-.807-2.497-2.097-3.141-3.872-.484-1.774-.403-3.871.241-6.291.645-2.581 2.095-5.566 4.35-8.953-7.088 5.968-13.694 10.889-19.816 14.76-6.123 3.872-11.117 5.808-14.984 5.808-4.189 0-6.766-1.372-7.733-4.114-.967-2.742-.725-6.211.725-10.405 1.289-4.194 3.544-8.711 6.767-13.551 3.061-5 6.686-9.598 10.875-13.792 4.833-4.84 10.23-9.437 16.191-13.793 6.123-4.355 12.084-7.985 17.884-10.889 5.961-2.903 11.439-4.92 16.433-6.049 4.995-1.13 8.781-.968 11.359.484 1.611.968 2.255 2.823 1.933 5.565-.161 2.743-2.578 6.372-7.25 10.889 4.833-4.033 8.861-7.178 12.083-9.437 3.384-2.42 6.123-4.033 8.217-4.84 2.9-.967 6.042-1.29 9.425-.967zM681.68 91.95c-2.255-1.775-7.733.242-16.433 6.049-8.7 5.646-19.495 14.599-32.384 26.859a164.023 164.023 0 00-10.391 10.889c-3.061 3.549-5.559 6.856-7.492 9.921-2.095 2.904-3.464 5.404-4.108 7.501-.645 2.097-.242 3.469 1.208 4.114 1.128.484 3.142 0 6.042-1.452 3.061-1.613 6.686-3.872 10.875-6.775 4.35-3.065 9.022-6.776 14.016-11.131 4.995-4.356 10.07-9.195 15.226-14.519a463.662 463.662 0 008.216-8.469c3.222-3.226 6.123-6.372 8.7-9.437 2.739-3.065 4.834-5.807 6.284-8.227 1.45-2.581 1.53-4.356.241-5.323z" fill="#434343"/><path d="M618.841 125.827c.644.645.644 1.291 0 1.936a8.41 8.41 0 01-1.692 1.694c-3.705 3.549-7.975 7.34-12.808 11.373-4.833 3.871-9.506 7.34-14.017 10.405-4.833 3.549-9.667 6.21-14.5 7.985-4.672 1.936-8.378 2.581-11.117 1.936-1.45-.323-2.739-1.13-3.866-2.42-.967-1.291-1.612-2.904-1.934-4.84-.161-1.936.081-4.113.725-6.533.806-2.42 2.175-5.082 4.109-7.985 1.45-2.097 2.9-3.952 4.35-5.566a68.783 68.783 0 014.591-5.081 82.83 82.83 0 015.317-5.324 1015.76 1015.76 0 006.525-6.049c2.095-1.936 4.672-4.194 7.733-6.775a241.707 241.707 0 008.942-7.502c2.739-2.581 4.834-4.839 6.284-6.775 1.611-2.097 1.933-3.549.966-4.355-.805-.646-3.222-.081-7.25 1.693-4.028 1.614-8.78 4.033-14.258 7.26-5.317 3.065-10.956 6.614-16.917 10.647-5.8 4.033-10.956 8.065-15.467 12.098-4.511 3.872-8.297 7.34-11.358 10.405a210.75 210.75 0 00-8.459 8.953 439.994 439.994 0 00-7.25 8.953 507.348 507.348 0 01-8.458 10.405c-.806 0-1.45-.403-1.933-1.209-.323-.646-.564-1.452-.725-2.42v-3.146c.161-1.129.402-2.016.725-2.662a112.189 112.189 0 015.075-8.711 161.09 161.09 0 016.041-8.469 167.413 167.413 0 017.492-8.469c2.739-3.065 5.72-6.372 8.942-9.921 1.933-1.936 4.43-4.275 7.492-7.017a238.262 238.262 0 008.941-7.985c2.9-2.581 5.156-4.84 6.767-6.776 1.611-1.936 1.853-3.145.725-3.63-1.45-.645-4.511.162-9.183 2.42-4.673 2.097-9.989 5.001-15.951 8.711-5.961 3.549-12.002 7.582-18.125 12.099-6.122 4.517-11.278 8.792-15.466 12.825a651.448 651.448 0 00-9.667 9.437 139.387 139.387 0 00-6.767 7.259 174.675 174.675 0 00-6.042 7.501 967.023 967.023 0 00-8.216 10.163c-.806 0-1.37-.403-1.692-1.209-.483-.646-.806-1.452-.967-2.42-.161-1.129-.161-2.178 0-3.146 0-1.129.161-2.016.484-2.662 3.061-5.646 7.25-11.856 12.566-18.632 5.156-6.775 11.359-14.034 18.609-21.777 3.867-4.195 7.814-7.986 11.842-11.373 4.189-3.55 7.733-6.292 10.633-8.228 2.095-1.29 4.592-2.258 7.492-2.903a44.407 44.407 0 019.183-.968c-2.255 1.452-4.753 3.388-7.492 5.807-2.738 2.259-5.638 4.84-8.7 7.744a234.525 234.525 0 00-9.425 8.953 158.523 158.523 0 00-8.7 9.437c4.35-3.549 9.345-7.34 14.984-11.373a299.676 299.676 0 0116.675-11.131c5.478-3.388 10.633-6.05 15.467-7.985 4.994-1.936 8.941-2.662 11.841-2.178 1.934.323 3.223 1.13 3.867 2.42.806 1.129 1.128 2.58.967 4.355-.161 1.775-.725 3.71-1.692 5.808-.806 1.936-1.933 3.871-3.383 5.807a294.942 294.942 0 0111.841-7.501c4.028-2.42 7.814-4.517 11.359-6.291 3.705-1.936 7.008-3.307 9.908-4.114 3.061-.968 5.397-1.13 7.009-.484 3.866 1.452 5.639 3.71 5.316 6.775-.161 2.904-1.45 6.05-3.866 9.437-2.256 3.388-5.156 6.856-8.7 10.405-3.545 3.388-6.767 6.372-9.667 8.953a340.72 340.72 0 00-10.634 10.163c-3.222 3.065-6.122 5.969-8.7 8.711-3.383 3.711-5.88 6.776-7.491 9.195-1.612 2.259-1.692 4.033-.242 5.324.644.484 1.692.565 3.142.242 1.45-.323 3.141-.887 5.075-1.694a128.944 128.944 0 006.283-3.388 94.298 94.298 0 007.25-4.839 283.542 283.542 0 0014.5-11.131c4.511-3.872 8.136-7.017 10.875-9.437.645-.645 1.289-1.129 1.934-1.452.644-.484 1.289-.403 1.933.242zm-85.6-84.933c.323 5-.322 10.002-1.933 15.002-1.611 4.84-3.947 9.357-7.008 13.55a43.668 43.668 0 01-11.117 10.648c-4.35 2.904-9.184 4.759-14.5 5.565-4.189 6.776-8.942 13.47-14.259 20.084-5.155 6.614-10.714 12.664-16.675 18.148-7.894 7.26-16.514 14.035-25.858 20.326-9.184 6.292-18.609 11.776-28.275 16.455-9.667 4.839-19.253 8.63-28.759 11.372-9.344 2.904-18.206 4.517-26.584 4.84-4.994.161-10.23-.242-15.708-1.21-5.317-.807-10.231-2.581-14.742-5.323-4.511-2.581-8.297-6.211-11.358-10.889-3.061-4.678-4.672-10.728-4.833-18.148-.323-6.453.886-13.712 3.625-21.778 2.9-8.066 7.008-16.374 12.325-24.924 5.477-8.71 12.083-17.26 19.816-25.649 7.895-8.55 16.756-16.616 26.584-24.198 11.117-8.388 22.153-15.244 33.108-20.567 10.956-5.485 21.59-9.76 31.901-12.825 10.311-3.065 19.978-5.082 29-6.05 9.022-.967 17.158-1.129 24.408-.483 5.317.483 10.392 1.613 15.226 3.387 4.833 1.613 9.022 3.952 12.566 7.017 3.706 2.904 6.686 6.534 8.942 10.89 2.256 4.194 3.625 9.114 4.108 14.76zm-6.041-.242c-.806-10.324-4.431-18.068-10.875-23.23-6.445-5.162-14.259-8.146-23.442-8.953-14.017-1.452-30.612 1.371-49.784 8.47-19.011 6.936-39.15 18.793-60.417 35.57-9.506 7.581-18.367 15.325-26.584 23.23-8.055 7.742-14.983 15.486-20.783 23.229-5.8 7.582-10.392 14.922-13.775 22.02-3.222 7.098-4.753 13.792-4.592 20.084 0 8.549 1.772 15.002 5.317 19.358 3.705 4.517 7.975 7.743 12.808 9.679 4.995 1.935 9.989 2.903 14.984 2.903 4.994.162 8.861.162 11.6 0-5.8-1.129-10.15-3.468-13.05-7.017-2.9-3.388-4.753-7.34-5.559-11.857-.644-4.517-.483-9.275.484-14.276 1.128-5.001 2.739-9.679 4.833-14.035 6.122-13.389 13.695-25.246 22.717-35.57 9.183-10.325 18.931-19.439 29.242-27.343 7.894-5.97 16.03-11.131 24.408-15.487 8.539-4.355 16.836-7.904 24.892-10.647 8.217-2.904 15.95-4.84 23.2-5.807 7.411-1.13 14.017-1.371 19.817-.726a23.722 23.722 0 018.7 2.662c2.739 1.452 4.995 3.387 6.767 5.807 1.772 2.42 2.9 5.323 3.383 8.711.645 3.388.403 7.098-.725 11.131-2.255 7.905-5.8 16.132-10.633 24.682a32.348 32.348 0 0011.6-6.776c3.544-3.065 6.525-6.533 8.942-10.405 2.416-4.033 4.188-8.227 5.316-12.582 1.128-4.517 1.531-8.792 1.209-12.825zm-19.817 16.696c.966-3.71 1.208-6.937.725-9.679-.322-2.904-1.209-5.404-2.659-7.501-1.45-2.097-3.383-3.71-5.8-4.84-2.255-1.129-4.752-1.855-7.491-2.177-5.639-.646-11.842-.162-18.609 1.451-6.766 1.452-13.855 3.791-21.267 7.018-7.411 3.226-15.064 7.259-22.958 12.099-7.733 4.678-15.467 9.92-23.2 15.728a445.528 445.528 0 00-15.467 12.583 203.223 203.223 0 00-14.983 14.034 172.485 172.485 0 00-13.534 15.245c-4.028 5.323-7.411 10.808-10.15 16.454-2.094 4.033-3.786 8.63-5.075 13.793-1.128 5-1.208 9.759-.242 14.276.967 4.356 3.303 8.066 7.009 11.131 3.866 3.065 9.747 4.598 17.642 4.598 7.411-1.452 14.983-3.872 22.716-7.26 7.895-3.226 15.789-7.178 23.684-11.857 7.894-4.678 15.628-9.921 23.2-15.728a312.255 312.255 0 0022.234-18.874 243.292 243.292 0 0014.258-14.519 277.445 277.445 0 0013.05-15.486c4.028-5.323 7.492-10.566 10.392-15.728 2.9-5.162 5.075-10.083 6.525-14.76z" fill="#434343"/><path d="M285.781 154.38c0 1.775-.564 3.307-1.692 4.598-1.289 1.129-2.82 1.694-4.592 1.694-1.772 0-3.303-.565-4.592-1.694-1.288-1.291-1.933-2.823-1.933-4.598 0-1.774.645-3.307 1.933-4.597 1.289-1.452 2.82-2.178 4.592-2.178 1.772 0 3.303.726 4.592 2.178 1.128 1.29 1.692 2.823 1.692 4.597zm30.357-57.832c-.161 1.613-.725 2.823-1.691 3.63-.806.806-1.45 1.129-1.934.968a12.058 12.058 0 01-1.208-.726 6.432 6.432 0 00-1.692-1.21c-1.128-.645-2.094-1.049-2.9-1.21-.644-.323-1.772-.565-3.383-.726-2.417-.161-5.478.645-9.184 2.42-3.705 1.774-7.652 4.113-11.841 7.017-4.189 2.904-8.539 6.211-13.05 9.921a221.089 221.089 0 00-12.809 11.373 651.448 651.448 0 00-9.667 9.437 139.358 139.358 0 00-6.766 7.259 173.151 173.151 0 00-6.042 7.501 965.532 965.532 0 00-8.217 10.163c-.805 0-1.369-.403-1.691-1.209-.484-.646-.806-1.452-.967-2.42-.161-1.129-.161-2.178 0-3.146 0-1.129.161-2.016.483-2.662 3.223-6.13 7.653-12.663 13.292-19.6 5.478-7.098 11.439-14.034 17.884-20.809 3.866-4.195 7.733-7.986 11.6-11.373 4.027-3.55 7.491-6.211 10.391-7.986 1.934-1.29 4.431-2.258 7.492-2.903 3.222-.807 6.364-1.21 9.425-1.21-4.994 3.226-10.633 7.663-16.917 13.309-6.283 5.484-12.003 11.292-17.158 17.422l.725.968 11.842-10.163a165.72 165.72 0 0113.775-10.647c4.672-3.388 9.183-6.13 13.533-8.227 4.511-2.097 8.217-2.904 11.117-2.42 2.094.323 3.544 1.21 4.35 2.662.967 1.29 1.369 2.823 1.208 4.597zM254.252 2.42c-.161.645-.886.968-2.175.968-1.289 0-3.222.322-5.8.968-4.189.967-8.7 2.903-13.533 5.807-4.672 2.904-8.459 5.727-11.359 8.47 4.834 4.355 8.781 9.194 11.842 14.518 3.222 5.323 5.639 10.727 7.25 16.212 1.772 5.485 2.82 10.889 3.142 16.212.322 5.162.08 9.84-.725 14.035-1.611 8.066-3.786 15.244-6.525 21.536-2.739 6.13-5.881 11.695-9.425 16.696-3.545 4.839-7.331 9.195-11.359 13.067a245.346 245.346 0 01-12.083 10.889c-9.345 7.097-21.186 12.905-35.525 17.422-14.339 4.678-31.256 6.775-50.751 6.291a280.967 280.967 0 01-23.441-1.452 843.393 843.393 0 01-22.234-2.661 1535.059 1535.059 0 01-20.3-2.904c-6.283-.968-12.003-1.694-17.158-2.178 4.672 11.615 12.244 20.568 22.716 26.859 10.473 6.453 23.764 9.679 39.876 9.679 5.316 0 10.311-.806 14.983-2.419 4.833-1.614 8.62-3.307 11.358-5.082l2.417-1.936c.806-.645 1.37-.806 1.692-.484.805.646.886 1.291.241 1.936-.483.807-1.127 1.533-1.933 2.178-1.289 1.129-2.98 2.178-5.075 3.146-2.094 1.129-4.511 2.097-7.25 2.903-2.578.968-5.397 1.694-8.458 2.178a58.72 58.72 0 01-9.184.726c-16.594 0-30.37-3.468-41.325-10.405-10.956-6.775-18.93-16.132-23.925-28.069-1.933.645-4.834 1.452-8.7 2.42a72.45 72.45 0 01-11.842 1.935c-2.417.323-4.672.081-6.767-.725-2.094-.807-3.06-1.856-2.9-3.146 0-2.42 1.53-4.194 4.592-5.324 2.9-1.129 5.8-1.855 8.7-2.177 2.578-.323 5.236-.323 7.975 0 2.739.161 4.995.403 6.767.726-2.578-8.228-3.867-17.503-3.867-27.828 0-17.583 3.867-34.037 11.6-49.363C43.68 58.72 54.876 45.17 69.376 33.393c11.922-9.68 25.617-17.665 41.084-23.956C125.926 3.146 142.763 0 160.968 0c7.25 0 13.695.403 19.334 1.21 5.8.806 10.955 1.936 15.467 3.388 4.511 1.451 8.539 3.145 12.083 5.081 3.544 1.774 6.767 3.71 9.667 5.807 1.45-1.129 3.222-2.339 5.316-3.63a99.814 99.814 0 017.009-4.113 45.734 45.734 0 017.492-3.63c2.577-.967 4.994-1.693 7.25-2.177a46.083 46.083 0 016.525-.484c2.255-.161 3.302.161 3.141.968zm-21.75 72.592c1.128-5.968 1.531-11.614 1.209-16.938-.323-5.485-1.209-10.485-2.659-15.002-1.289-4.679-3.061-8.873-5.317-12.583-2.255-3.71-4.672-6.937-7.25-9.68-6.605 5.647-12.727 11.454-18.366 17.423a398.59 398.59 0 00-15.951 17.906 2179.398 2179.398 0 00-13.775 17.18c-4.35 5.485-8.458 10.406-12.325 14.761-11.761 13.228-22.878 24.036-33.35 32.425-10.311 8.227-20.058 14.76-29.242 19.6-9.183 4.839-17.883 8.227-26.1 10.163-8.217 1.935-15.95 3.145-23.2 3.629 4.35.968 9.425 1.936 15.225 2.904 5.961.807 12.083 1.613 18.367 2.42a390.278 390.278 0 0019.333 1.452c6.445.484 12.567.726 18.367.726 10.795 0 20.461-.968 29-2.904 8.539-2.097 16.111-4.598 22.717-7.501 6.606-3.065 12.245-6.292 16.917-9.679 4.672-3.549 8.619-6.776 11.842-9.679 3.544-3.388 7.169-7.179 10.875-11.373a121.503 121.503 0 0010.15-13.793 120.691 120.691 0 008.458-15.486c2.417-5.324 4.108-10.647 5.075-15.97zm-17.883-57.348c-4.673-3.71-10.956-6.856-18.85-9.437-7.895-2.742-17.884-4.113-29.967-4.113-9.184 0-18.125 1.048-26.825 3.145-8.701 1.936-16.917 4.598-24.651 7.985-7.733 3.227-14.902 6.937-21.508 11.131-6.606 4.195-12.486 8.47-17.642 12.825a169.259 169.259 0 00-18.85 18.39c-5.639 6.453-10.553 13.31-14.742 20.568a107.591 107.591 0 00-9.425 22.746c-2.255 7.904-3.383 16.051-3.383 24.439 0 10.002 1.289 18.794 3.866 26.376 9.99-.323 19.334-1.694 28.034-4.114 8.7-2.581 17.239-6.372 25.617-11.373 8.539-5.162 17.239-11.776 26.1-19.842 8.861-8.066 18.608-17.825 29.242-29.279a1994.599 1994.599 0 0118.125-19.358 1013.187 1013.187 0 0118.608-18.632c6.123-6.13 12.245-11.857 18.367-17.18 6.123-5.324 12.084-10.083 17.884-14.277z" fill="#898989"/></g></svg>