<svg width="720" height="22" fill="none" xmlns="http://www.w3.org/2000/svg"><g opacity=".5"><path fill-rule="evenodd" clip-rule="evenodd" d="M13 6.002v-3a1 1 0 112 0v3h-2zm-3 0v-5a1 1 0 112 0v5h-2zm-3 0v-3a1 1 0 112 0v3H7zm-3 0v-1a1 1 0 112 0v1H4z" fill="#fff" fill-opacity=".2"/><path d="M14 2.502a.5.5 0 01.354.146v.001a.5.5 0 01.146.353v2.5h-1v-2.5a.5.5 0 01.146-.353h0A.5.5 0 0114 2.501zm-3-2a.5.5 0 01.354.146V.65a.5.5 0 01.146.353v4.5h-1v-4.5a.5.5 0 01.146-.353h0A.5.5 0 0111 .501zm-3 2a.5.5 0 01.354.146v.001a.5.5 0 01.146.353v2.5h-1v-2.5a.5.5 0 01.146-.353h0A.5.5 0 018 2.501zm-3 2a.5.5 0 01.354.146v.001a.5.5 0 01.146.353v.5h-1v-.5a.5.5 0 01.146-.353h0A.5.5 0 015 4.501z" stroke="#fff" stroke-opacity=".2"/></g><path fill-rule="evenodd" clip-rule="evenodd" d="M17 16.002v-7a1 1 0 10-2 0v3.05a3.494 3.494 0 00-.5-.05 3.501 3.501 0 00-3.5 3.5c.006.168.025.335.056.5H0v-10h20v10h-3zm-12-7a1.998 1.998 0 00-1.962 2.39 1.997 1.997 0 001.572 1.572 2.005 2.005 0 002.053-.851A1.998 1.998 0 005 9.002z" fill="#fff" fill-opacity=".2"/><path d="M19.5 6.502v9h-2v-6.5c0-.397-.158-.78-.44-1.06h.002a1.498 1.498 0 00-2.124 0 1.5 1.5 0 00-.438 1.06v2.5a4.001 4.001 0 00-4 4H.5v-9h19zm-14.5 2a2.497 2.497 0 00-2.31 1.543 2.5 2.5 0 00.416 2.59l.126.135c.35.35.796.587 1.28.684h0c.486.096.988.047 1.444-.142h.001a2.506 2.506 0 001.543-2.31 2.5 2.5 0 00-2.5-2.5z" stroke="#fff" stroke-opacity=".2"/><g opacity=".7"><path d="M5 13.002a2 2 0 100-4 2 2 0 000 4z" fill="#fff" fill-opacity=".2"/><path d="M5 9.502a1.5 1.5 0 110 3 1.5 1.5 0 010-3z" stroke="#fff" stroke-opacity=".2"/></g><g opacity=".5"><path fill-rule="evenodd" clip-rule="evenodd" d="M17 16.939a6.478 6.478 0 01-5.5 3.063h-1a6.499 6.499 0 01-6-4h6.556a3.291 3.291 0 01-.056-.5 3.5 3.5 0 013.5-3.5c.168.005.335.022.5.05v-3.05a1 1 0 112 0v7.937z" fill="#fff" fill-opacity=".2"/><path d="M16 8.502a.5.5 0 01.354.146v.001a.5.5 0 01.146.353v7.786a5.976 5.976 0 01-5 2.714h-1a6 6 0 01-5.195-3h6.355l-.113-.594a2.793 2.793 0 01-.047-.417 3 3 0 012.991-2.989c.142.005.283.02.422.044l.587.102V9.002a.5.5 0 01.146-.353h0A.5.5 0 0116 8.501z" stroke="#fff" stroke-opacity=".2"/></g><path fill-rule="evenodd" clip-rule="evenodd" d="M69.108 16.002s-.23-1.4-.307-1.752h-3.318c-.092.275-.551 1.752-.551 1.752h-2.707l3.839-9.156a1.271 1.271 0 011.346-.84h2l2.1 10h-2.4l-.002-.004zm-1.331-6.44l-.184-.855c-.122.381-.352.977-.336.961 0 0-.826 2.212-1.025 2.792h2.14c-.106-.503-.595-2.899-.595-2.899zm-5.568-1.25a4.334 4.334 0 00-1.927-.383c-1.025 0-1.484.427-1.5.854 0 .474.55.778 1.468 1.236 1.484.7 2.172 1.572 2.157 2.716-.015 2.06-1.774 3.4-4.5 3.4a7.895 7.895 0 01-2.875-.533l.35-2.243.353.168c.751.37 1.58.553 2.417.534a1.347 1.347 0 001.56-.977c0-.442-.336-.763-1.346-1.25-.98-.473-2.28-1.266-2.264-2.7.016-1.938 1.805-3.3 4.36-3.3a6.543 6.543 0 012.325.41l-.352 2.167-.226-.1zm-11.38 7.69l1.622-10h2.585l-1.621 10h-2.586zm-6.225 0l-2.007-7.528-.157-.61c.354.176.689.388 1 .632.941.768 1.746 1.69 2.38 2.726l-.007-.043.05.26.276 1.372 2.534-6.809h2.738l-4.07 10H44.6h.004z" fill="#fff" fill-opacity=".2"/><path d="M60.462 6.333h.003a6.044 6.044 0 011.76.252l-.183 1.123a4.83 4.83 0 00-1.76-.28c-.576 0-1.051.12-1.402.35-.358.233-.582.586-.597.987l-.001.008v.01c0 .467.285.791.587 1.022.297.226.71.438 1.158.662l.01.005c.7.33 1.17.682 1.462 1.05.282.356.414.747.408 1.207v.002c-.007.873-.375 1.578-1.035 2.078-.673.509-1.678.826-2.965.826h-.001a7.395 7.395 0 01-2.317-.366l.184-1.175a5.71 5.71 0 002.342.466 1.85 1.85 0 001.275-.254l.001-.001c.397-.25.684-.64.804-1.092l.017-.064v-.065c0-.382-.16-.7-.453-.974-.202-.188-.474-.364-.814-.545l-.361-.182-.362-.184c-.362-.195-.721-.428-1.01-.712-.377-.369-.616-.803-.61-1.348v-.001c.013-1.547 1.448-2.805 3.86-2.805zm6.89.17l.028.003h1.623l1.891 9h-1.362l-.056-.332a32.14 32.14 0 00-.186-1.03l-.086-.394h-4.081l-.115.342a90.26 90.26 0 00-.312.988l-.132.422h-1.587l3.548-8.463.006-.014.005-.013a.772.772 0 01.815-.51zm-12.903-.001l-1.46 9h-1.572l1.46-9h1.572zm-3.782 0l-3.662 9H44.99l-1.737-6.509c.82.692 1.527 1.507 2.095 2.417l.025.123v.004l.277 1.373.346 1.722.613-1.647 2.412-6.483h1.647zm16.45 2.053c-.058.18-.143.415-.214.611l-.088.244-.03.084c0 .005-.003.013-.006.024v0l-.027.072-.096.259-.306.824a97.34 97.34 0 00-.59 1.625l-.228.662h3.459l-.13-.604-.336-1.634-.18-.88-.057-.277-.016-.077-.004-.02V9.46l-.002-.005-.184-.854-.394-1.83-.571 1.783zm.145.99l-.358-.23a.504.504 0 01.278-.14l.08.37z" stroke="#fff" stroke-opacity=".2"/><g opacity=".5"><path fill-rule="evenodd" clip-rule="evenodd" d="M43.435 8.496a5.903 5.903 0 00-1-.633l-.147-.554A10.36 10.36 0 0039.965 6.3v-.31h3.97a1.043 1.043 0 011.016.825l.86 4.407a10.801 10.801 0 00-2.376-2.726z" fill="#fff" fill-opacity=".2"/><path d="M43.934 6.49l.092.008a.543.543 0 01.409.332l.027.089.445 2.283c-.359-.39-.744-.756-1.155-1.093l-.009-.006a6.404 6.404 0 00-.88-.579l-.091-.343-.053-.199-.177-.104-.29-.164a10.914 10.914 0 00-.434-.224h2.116z" stroke="#fff" stroke-opacity=".2"/></g><path fill-rule="evenodd" clip-rule="evenodd" d="M106 19.002H93a.998.998 0 01-1-1V8.976a1.2 1.2 0 01.33-.826l.447-.4L102.225 0l.775.002v7l-.011 5.236-9.486 6.012 11.49-3.757.007-6.491h2v11h-1zM98.927 7.485a1.151 1.151 0 011.719.236 1.5 1.5 0 01-.68 1.811 1.153 1.153 0 01-1.72-.236 1.5 1.5 0 01.681-1.811z" fill="#fff" fill-opacity=".2"/><path d="M102.5.5v6.502l-.011 4.96-9.254 5.866.318.674H93a.5.5 0 01-.353-.146h-.002a.5.5 0 01-.145-.354V8.977c0-.176.067-.347.186-.476l.424-.378L102.403.5h.097zm4 8.002v10H94.342l10.806-3.534.344-.113.001-.362.006-5.991h1.001zm-6.59-1.784a1.643 1.643 0 00-1.267.355 2.002 2.002 0 00-.869 2.39l.02.058.035.05c.129.195.298.362.498.488v0a1.643 1.643 0 001.921-.115c.394-.232.695-.59.856-1.016l.001-.002a2 2 0 00.012-1.373l-.02-.056-.034-.05a1.642 1.642 0 00-.501-.49 1.637 1.637 0 00-.653-.24h.001z" stroke="#fff" stroke-opacity=".2"/><g opacity=".4"><path fill-rule="evenodd" clip-rule="evenodd" d="M103 8.002h2l-.007 6.491-11.49 3.757 9.486-6.012.011-4.236z" fill="#fff" fill-opacity=".2"/><path d="M104.499 8.502l-.006 5.628-7.346 2.402 6.11-3.872.231-.146.001-.275.01-3.737h1z" stroke="#fff" stroke-opacity=".2"/></g><path fill-rule="evenodd" clip-rule="evenodd" d="M135.973.995a8.861 8.861 0 013.925.914c.186.09.372.187.558.294l-.824.743-1.239-1.288-2.093 1.874-1.242-1.362-3.9 3.528 2.5 2.767-.982.867 2.46 2.771-.976.865 3.515 3.933 2.087-1.93 1.8 2.067a9.429 9.429 0 01-1.18.788 8.85 8.85 0 01-4.409 1.176 9.003 9.003 0 010-18.007zM134.34 9.43l2.13-1.928 1.919 2.141-2.13 1.927-1.919-2.14zm1.515 3.7l2.13-1.929 1.919 2.141-2.131 1.93-1.918-2.142zm-3.039-7.356l2.13-1.928 1.918 2.141-2.13 1.927-1.918-2.14zm3.909-1.038l1.6-1.445 1.438 1.605-1.6 1.447-1.439-1.607h.001zm2.839 6.622l1.6-1.446 1.438 1.606-1.6 1.445-1.438-1.605zm1.4 3.243l1.6-1.446 1.439 1.606-1.6 1.445-1.439-1.605zm.644-7.432l1.065-.964.959 1.07-1.065.963-.959-1.069zm-1.361-3.182l1.065-.963.959 1.07-1.065.964-.959-1.07zm2.722 6.361l1.066-.964.965 1.071-1.065.964-.959-1.07h-.007zm-4.776-2.383l1.6-1.446 1.439 1.605-1.6 1.447-1.439-1.606z" fill="#fff" fill-opacity=".2"/><path d="M134.723 1.799l-3.9 3.528-.37.335.335.371 2.16 2.392-.603.532-.376.332.333.375 2.127 2.396-.6.534-.376.333.335.375 3.514 3.932.339.38.374-.345 1.708-1.582 1.105 1.268c-.132.091-.265.18-.402.265l-.29.17-.003.003a8.349 8.349 0 01-4.16 1.109 8.504 8.504 0 01-.979-16.948l-.271.245zm8.574 12.925l-.857.774-.772-.86.859-.776.77.862zm-4.097-1.42l-1.39 1.258-1.251-1.396 1.389-1.258 1.252 1.397zm2.697-1.824l-.857.775-.771-.86.857-.775.771.86zm-4.212-1.875l-1.39 1.257-1.252-1.395 1.39-1.257 1.252 1.395zm6.609.814l-.322.292-.295-.33.322-.29.295.328zm-3.767-2.332l-.859.775-.771-.86.858-.776.772.86zm2.4-.85l-.324.293-.291-.325.324-.293.291.325zM136.16 5.95l-1.389 1.256-1.251-1.394 1.389-1.257 1.251 1.395zm2.899-1.09l-.859.776-.771-.862.859-.775.771.86zm2.508-.802l-.324.293-.291-.327.323-.292.292.326zm-5.594-2.562c.56 0 1.117.059 1.662.17l-1.301 1.163-.907-.995-.271-.298c.27-.026.543-.04.817-.04z" stroke="#fff" stroke-opacity=".2"/><mask id="a" fill="#fff"><path fill-rule="evenodd" clip-rule="evenodd" d="M181.593 15.385a3.366 3.366 0 00-1.08-1.886 2.806 2.806 0 00-.653-.471 2.464 2.464 0 00-.382-.18 2.29 2.29 0 00-1.081-.178c.288-.104.595-.143.9-.114.26.037.515.097.764.18.2.11.407.223.608.337a7.456 7.456 0 00-.247-4.783 8.547 8.547 0 00-2.318-3.368 7.715 7.715 0 00-3.759-1.931 6.204 6.204 0 00-2.477.023 5.572 5.572 0 00-1.913.919 5.68 5.68 0 00-1.328 1.528 3.054 3.054 0 00-.27.449c-.069.17-.147.333-.225.494a7.548 7.548 0 00-.4 3.638c.099.766.303 1.514.608 2.223.164.315.313.645.494.942.18.288.375.566.586.832.449.5.955.945 1.508 1.325a8.265 8.265 0 004.277 1.414.725.725 0 00-.068-.314c-.027-.108-.037-.232-.068-.337a3.357 3.357 0 010-.763.313.313 0 01.113.157c.026.053.065.1.113.134.059.11.126.215.2.315.149.194.324.367.518.516.387.317.819.575 1.283.763a5.33 5.33 0 001.644.4c.6.08 1.181.183 1.732.314.502.145.986.348 1.441.606.218.12.429.254.63.4.106.064.204.139.293.225.118.047.17.159.292.2.357.326.689.679.992 1.056.144.207.272.425.382.652.082.09.106.238.18.337a.455.455 0 01.022.382c-.167.023-.133-.152-.2-.225a1.346 1.346 0 01-.158-.27c-.264-.276-.5-.58-.788-.83a6.15 6.15 0 00-.9-.7 6.792 6.792 0 00-2.206-1.011 8.325 8.325 0 00-2.858-.27c-.452.05-.898.148-1.329.292-.453.1-.912.175-1.373.225a11.426 11.426 0 01-5.267-.988 8.328 8.328 0 01-1.981-1.235 6.188 6.188 0 01-.832-.786 5.22 5.22 0 01-.676-.921 8.902 8.902 0 01-.585-1.033 9.263 9.263 0 01-.405-1.19 5.95 5.95 0 01-.27-1.347c-.008-.135-.069-.395-.068-.606a.341.341 0 00.023-.068 2.153 2.153 0 010-.651 6.87 6.87 0 01.157-1.415c.08-.428.193-.848.338-1.258.134-.4.311-.766.472-1.144.109-.162.191-.35.293-.516.086-.177.215-.31.293-.5.065-.071.125-.145.18-.224.035-.1.128-.142.157-.247a.755.755 0 00.18-.225.699.699 0 00.18-.224c.269-.264.509-.556.788-.808s.591-.49.879-.741c.182-.087.314-.225.494-.315.137-.125.337-.188.473-.314a11.36 11.36 0 011.1-.517c.38-.17.771-.312 1.171-.426a9.51 9.51 0 012.813-.337c.039 0 .058-.04.067 0a8.864 8.864 0 014.8 1.5 8.483 8.483 0 012.926 3.346 8.808 8.808 0 01.743 5.232 8.846 8.846 0 01-1.306 3.413 2.875 2.875 0 01-.315.472.942.942 0 01-.157.224c-.027.04-.058.077-.09.113a.062.062 0 01-.017.028.062.062 0 01-.028.017c0 .06-.022.069-.029.044zm-.539.585a1.105 1.105 0 01-.429-.674.559.559 0 010-.314.16.16 0 01.045-.023.261.261 0 01.225.045c.132.164.224.356.271.56a.38.38 0 01-.112.406zm-1.981-.382c0-.025.022-.013.022 0a.678.678 0 01.608.74.477.477 0 01-.383.427.682.682 0 01-.343-.076.691.691 0 01-.31-.911.454.454 0 01.406-.18z"/></mask><path fill-rule="evenodd" clip-rule="evenodd" d="M181.593 15.385a3.366 3.366 0 00-1.08-1.886 2.806 2.806 0 00-.653-.471 2.464 2.464 0 00-.382-.18 2.29 2.29 0 00-1.081-.178c.288-.104.595-.143.9-.114.26.037.515.097.764.18.2.11.407.223.608.337a7.456 7.456 0 00-.247-4.783 8.547 8.547 0 00-2.318-3.368 7.715 7.715 0 00-3.759-1.931 6.204 6.204 0 00-2.477.023 5.572 5.572 0 00-1.913.919 5.68 5.68 0 00-1.328 1.528 3.054 3.054 0 00-.27.449c-.069.17-.147.333-.225.494a7.548 7.548 0 00-.4 3.638c.099.766.303 1.514.608 2.223.164.315.313.645.494.942.18.288.375.566.586.832.449.5.955.945 1.508 1.325a8.265 8.265 0 004.277 1.414.725.725 0 00-.068-.314c-.027-.108-.037-.232-.068-.337a3.357 3.357 0 010-.763.313.313 0 01.113.157c.026.053.065.1.113.134.059.11.126.215.2.315.149.194.324.367.518.516.387.317.819.575 1.283.763a5.33 5.33 0 001.644.4c.6.08 1.181.183 1.732.314.502.145.986.348 1.441.606.218.12.429.254.63.4.106.064.204.139.293.225.118.047.17.159.292.2.357.326.689.679.992 1.056.144.207.272.425.382.652.082.09.106.238.18.337a.455.455 0 01.022.382c-.167.023-.133-.152-.2-.225a1.346 1.346 0 01-.158-.27c-.264-.276-.5-.58-.788-.83a6.15 6.15 0 00-.9-.7 6.792 6.792 0 00-2.206-1.011 8.325 8.325 0 00-2.858-.27c-.452.05-.898.148-1.329.292-.453.1-.912.175-1.373.225a11.426 11.426 0 01-5.267-.988 8.328 8.328 0 01-1.981-1.235 6.188 6.188 0 01-.832-.786 5.22 5.22 0 01-.676-.921 8.902 8.902 0 01-.585-1.033 9.263 9.263 0 01-.405-1.19 5.95 5.95 0 01-.27-1.347c-.008-.135-.069-.395-.068-.606a.341.341 0 00.023-.068 2.153 2.153 0 010-.651 6.87 6.87 0 01.157-1.415c.08-.428.193-.848.338-1.258.134-.4.311-.766.472-1.144.109-.162.191-.35.293-.516.086-.177.215-.31.293-.5.065-.071.125-.145.18-.224.035-.1.128-.142.157-.247a.755.755 0 00.18-.225.699.699 0 00.18-.224c.269-.264.509-.556.788-.808s.591-.49.879-.741c.182-.087.314-.225.494-.315.137-.125.337-.188.473-.314a11.36 11.36 0 011.1-.517c.38-.17.771-.312 1.171-.426a9.51 9.51 0 012.813-.337c.039 0 .058-.04.067 0a8.864 8.864 0 014.8 1.5 8.483 8.483 0 012.926 3.346 8.808 8.808 0 01.743 5.232 8.846 8.846 0 01-1.306 3.413 2.875 2.875 0 01-.315.472.942.942 0 01-.157.224c-.027.04-.058.077-.09.113a.062.062 0 01-.017.028.062.062 0 01-.028.017c0 .06-.022.069-.029.044zm-.539.585a1.105 1.105 0 01-.429-.674.559.559 0 010-.314.16.16 0 01.045-.023.261.261 0 01.225.045c.132.164.224.356.271.56a.38.38 0 01-.112.406zm-1.981-.382c0-.025.022-.013.022 0a.678.678 0 01.608.74.477.477 0 01-.383.427.682.682 0 01-.343-.076.691.691 0 01-.31-.911.454.454 0 01.406-.18z" fill="#fff" fill-opacity=".2" stroke="#fff" stroke-opacity=".2" stroke-width="2" mask="url(#a)"/><g opacity=".55"><path fill-rule="evenodd" clip-rule="evenodd" d="M209.746 11.248c.332-2.21.78-4.55.9-5.32.076-.5.338-.912 1.34-.912h3.655c.848 0 2.878-.1 3.784 1.173 1.049 1.475.362 4.193-.087 5.134a5.181 5.181 0 01-1.894 2.13 7.14 7.14 0 01-2.773.56c-1.01.014-1.275-.117-1.444.99-.169 1.107-.535 3.067-.566 3.31a.724.724 0 01-.539.672.714.714 0 01-.305.012h-2.532c-.339 0-.647.079-.555-.634.143-1.114.816-5.78 1.016-7.114z" fill="#fff" fill-opacity=".2"/><path d="M211.986 5.516h3.655c.446 0 1.109-.024 1.779.1.673.124 1.254.38 1.597.863.418.588.522 1.485.429 2.428-.092.928-.361 1.784-.559 2.2a4.68 4.68 0 01-1.679 1.9 6.646 6.646 0 01-2.538.506h-.006c-.219.003-.469-.003-.642.005-.184.007-.407.03-.613.133-.468.236-.595.745-.676 1.276a96.845 96.845 0 01-.333 1.968c-.114.644-.218 1.218-.235 1.356l-.003.021v.022a.232.232 0 01-.082.165.215.215 0 01-.175.046l-.044-.008h-2.576l-.065.001.006-.071v-.001c.142-1.11.815-5.767 1.015-7.103.165-1.099.359-2.232.527-3.188.167-.95.311-1.738.372-2.13v-.002c.029-.19.081-.279.148-.334.074-.062.257-.153.698-.153z" stroke="#fff" stroke-opacity=".2"/></g><g opacity=".8"><path fill-rule="evenodd" clip-rule="evenodd" d="M206.238 8.583c.355-2.182.956-5.92 1.082-6.68.082-.5.363-.9 1.436-.9h5c.908 0 3.25.107 4.259 1.22 1.047 1.158 1.353 2.86.478 5.062a5.577 5.577 0 01-2.986 3.2c-1.348.429-2.765.6-4.177.506-1.082.014-1.426-.1-1.607.994-.181 1.094-.719 4.1-.752 4.343-.033.243-.013.675-.9.675h-2.481c-.364 0-.712.074-.595-.627.17-1.027 1.029-6.474 1.243-7.793z" fill="#fff" fill-opacity=".2"/><path d="M208.756 1.503h5c.439 0 1.214.026 1.993.183.798.16 1.501.44 1.895.874.887.98 1.208 2.468.384 4.54l-.006.014a5.072 5.072 0 01-1.06 1.736 5.075 5.075 0 01-1.637 1.167 10.797 10.797 0 01-3.962.475l-.02-.002-.02.001c-.245.003-.502 0-.698.008a1.745 1.745 0 00-.643.128c-.496.224-.66.716-.753 1.276-.176 1.07-.719 4.107-.753 4.358l-.013.104a1.156 1.156 0 01-.01.062l-.004.014c-.024.016-.118.062-.379.062h-2.588l.006-.045 1.243-7.795c.356-2.185.957-5.92 1.082-6.679v0c.03-.18.081-.264.155-.32.079-.06.25-.138.618-.157l.17-.004z" stroke="#fff" stroke-opacity=".2"/></g><path fill-rule="evenodd" clip-rule="evenodd" d="M218.494 7.285a5.577 5.577 0 01-2.986 3.2 12.13 12.13 0 01-4.334.506c-1.081.014-1.331-.1-1.513.994 0 0-.033.01-.033.015h.007l.111-.753c.332-2.211.78-4.55.9-5.321.076-.5.338-.912 1.34-.912h3.655a5.632 5.632 0 013.3.693 7.34 7.34 0 01-.447 1.578z" fill="#fff" fill-opacity=".2"/><path d="M215.689 5.512a5.135 5.135 0 012.689.467 6.809 6.809 0 01-.347 1.116l-.008.02a5.072 5.072 0 01-1.06 1.735 5.077 5.077 0 01-1.632 1.165 11.627 11.627 0 01-4.125.477l-.019-.002-.02.001c-.244.003-.496 0-.684.008l-.114.007c.133-.831.272-1.653.399-2.373.167-.95.311-1.738.372-2.13l.001-.002c.028-.19.079-.278.146-.333.075-.062.257-.154.699-.154h3.679l.024-.002z" stroke="#fff" stroke-opacity=".2"/><path d="M256.994 9.205a7.5 7.5 0 11-3.37-5.968l1.633-1.293A9.462 9.462 0 00249.5.002a9.5 9.5 0 00-9.5 9.5 9.5 9.5 0 009.5 9.5 9.5 9.5 0 009.335-11.271l-1.841 1.474z" fill="#fff" fill-opacity=".2"/><path d="M249.5.502a8.96 8.96 0 014.921 1.465l-.832.659a8 8 0 103.911 6.876l-.002-.06.963-.772a9 9 0 01-8.961 9.832 9 9 0 01-9-9 9 9 0 019-9z" stroke="#fff" stroke-opacity=".2"/><path d="M249.5 12.002l8.549-6.649a9.539 9.539 0 00-1.05-1.684L249.5 9.502 246 7.315v2.492l3.5 2.195z" fill="#fff" fill-opacity=".2"/><path d="M256.9 4.378c.186.268.357.547.513.835l-7.944 6.179L246.5 9.53V8.217l2.735 1.709.296.185.276-.215 7.093-5.518z" stroke="#fff" stroke-opacity=".2"/><g opacity=".5"><path fill-rule="evenodd" clip-rule="evenodd" d="M295 18.002a7.952 7.952 0 01-4-1.08 7.988 7.988 0 000-13.841 8.003 8.003 0 0111.74 4.85 7.998 7.998 0 01-1.384 6.946A8.004 8.004 0 01295 18.002z" fill="#fff" fill-opacity=".2"/><path d="M294.512 2.519a7.5 7.5 0 015.842 2.22l.294.315a7.483 7.483 0 011.719 6.413 7.503 7.503 0 01-7.366 6.035H295a7.45 7.45 0 01-3.002-.633 8.471 8.471 0 003.502-6.867 8.49 8.49 0 00-3.501-6.868 7.504 7.504 0 012.513-.615z" stroke="#fff" stroke-opacity=".2"/></g><path fill-rule="evenodd" clip-rule="evenodd" d="M287 10.002a7.991 7.991 0 004 6.921 8 8 0 110-13.842 7.996 7.996 0 00-4 6.921z" fill="#fff" fill-opacity=".2"/><path d="M286.997 2.502a7.5 7.5 0 013.003.633 8.496 8.496 0 00-3.5 6.867 8.49 8.49 0 003.5 6.866 7.5 7.5 0 01-3.003.634 7.507 7.507 0 01-6.503-3.747 7.502 7.502 0 016.503-11.253z" stroke="#fff" stroke-opacity=".2"/><g opacity=".75"><path fill-rule="evenodd" clip-rule="evenodd" d="M291 16.923a7.988 7.988 0 010-13.842 7.988 7.988 0 010 13.842z" fill="#fff" fill-opacity=".2"/><path d="M291 3.665a7.481 7.481 0 013.5 6.337 7.488 7.488 0 01-3.5 6.336 7.488 7.488 0 01-3.5-6.336 7.493 7.493 0 013.5-6.337z" stroke="#fff" stroke-opacity=".2"/></g><path fill-rule="evenodd" clip-rule="evenodd" d="M335.839 14.27l-2.02.734a.261.261 0 01-.198-.01.261.261 0 01-.135-.144l-1.047-2.832h-4.9l-1.044 2.826a.264.264 0 01-.332.155l-2.017-.734a.248.248 0 01-.161-.319l4.078-10.7a2.097 2.097 0 013.069-.913c.342.223.611.54.775.913L336 13.952a.25.25 0 01-.074.271.262.262 0 01-.087.047zm-5.53-8.324l-.321-.9V5.04l-1.845 4.963h3.692l-1.526-4.056zm-6.325 11.056h12.032a.982.982 0 01.954.984.987.987 0 01-.954.985h-12.032a.982.982 0 01-.954-.985.987.987 0 01.954-.984z" fill="#fff" fill-opacity=".2"/><path d="M336 17.502l.093.012a.485.485 0 01-.093.958h-12a.484.484 0 01-.093-.958l.093-.012h12zm-6.015-15.01c.271 0 .538.07.774.2l.1.06c.261.17.465.411.59.695l3.989 10.436-1.566.57-.964-2.608-.121-.326h-5.596l-.121.326-.962 2.602-1.564-.57 3.979-10.439c.109-.244.28-.457.493-.619l.095-.067c.26-.17.564-.26.874-.26zm-.466 2.373l-1.845 4.963-.251.674h5.134l-.254-.676-1.526-4.055-.319-.893-.291.103-.648-.116z" stroke="#fff" stroke-opacity=".2"/><path fill-rule="evenodd" clip-rule="evenodd" d="M366.01 15.002V9.657h-.244l-1.74 5.345h-2.072l-1.736-5.345h-.242v5.345H357v-9h2.976a1.722 1.722 0 011.66 1.186l1.223 4.16h.257l1.225-4.16a1.723 1.723 0 011.669-1.186h2.976v9h-2.976z" fill="#fff" fill-opacity=".2"/><path d="M359.982 6.502c.26-.004.515.076.727.227l.001.001c.21.15.367.362.448.606l1.221 4.153.105.36h1.006l.106-.36 1.219-4.145h.001a1.22 1.22 0 01.454-.615h.001c.213-.152.469-.231.731-.227h2.484v8h-1.976V9.157h-1.107l-.112.345-1.628 5h-1.346l-1.624-5-.112-.345h-1.105v5.345H357.5v-8h2.482z" stroke="#fff" stroke-opacity=".2"/><path fill-rule="evenodd" clip-rule="evenodd" d="M376.978 15.002V9.657h-.227l-1.881 4.485a1.47 1.47 0 01-.539.627 1.466 1.466 0 01-.793.233h-2.525v-9h3v5.345h.238l1.905-4.49.015-.034a1.456 1.456 0 011.312-.817h2.525v9h-3.028l-.002-.004z" fill="#fff" fill-opacity=".2"/><path d="M373.513 6.502v5.345h1.07l.128-.305 1.905-4.49.005-.009a.95.95 0 01.353-.392h.001a.96.96 0 01.508-.145h2.025v8h-2.03V9.157h-1.06l-.127.307-1.879 4.476a.97.97 0 01-.352.409.965.965 0 01-.521.153h-2.026v-8h2z" stroke="#fff" stroke-opacity=".2"/><path fill-rule="evenodd" clip-rule="evenodd" d="M388.547 12.016h-3.528v2.986h-3V9.995h9.953a3.596 3.596 0 01-3.425 2.021z" fill="#fff" fill-opacity=".2"/><path d="M391.037 10.495c-.16.177-.339.336-.536.473l-.191.123a3.095 3.095 0 01-1.737.426h-4.054v2.985h-2v-4.007h8.518z" stroke="#fff" stroke-opacity=".2"/><g opacity=".7"><path fill-rule="evenodd" clip-rule="evenodd" d="M391.919 9.008h-5.412c-2.472 0-4.528-1.3-4.961-3.006h7.023c1.89 0 3.422 1.117 3.422 2.494 0 .173-.024.345-.072.512z" fill="#fff" fill-opacity=".2"/><path d="M388.569 6.502c.851 0 1.6.252 2.125.635.526.383.797.87.797 1.36l-.001.01h-4.983c-1.987 0-3.567-.883-4.218-2.005h6.28z" stroke="#fff" stroke-opacity=".2"/></g><path d="M416.39 6.962v3.83a1.279 1.279 0 01-1.485 1.203h-.214a5.55 5.55 0 01-2.69-.883V4.186a3.11 3.11 0 013.038-3.184h3.974v5.96h-2.623z" fill="#fff" fill-opacity=".2"/><path d="M412.501 4.175a2.626 2.626 0 01.722-1.866h.001a2.61 2.61 0 011.569-.788l.257-.02h3.463v4.96h-2.623v4.316a.781.781 0 01-.082.307l-.001.001a.782.782 0 01-.821.417l-.04-.007h-.236a5.055 5.055 0 01-2.209-.665V4.175z" stroke="#fff" stroke-opacity=".2"/><path d="M414.659 12.996h.866c1.884 0 3.304-.96 3.488-2.187v5.006a3.12 3.12 0 01-.861 2.224 3.105 3.105 0 01-2.178.963h-3.973v-6.507c.86.285 1.754.453 2.658.5z" fill="#fff" fill-opacity=".2"/><path d="M418.513 15.826a2.618 2.618 0 01-.723 1.867v.001a2.606 2.606 0 01-1.827.808h-3.462v-5.339a10.67 10.67 0 002.132.332h.892c1.165 0 2.243-.352 2.988-.958v3.29z" stroke="#fff" stroke-opacity=".2"/><path d="M423.96 19.002h-3.957v-6.53a7.706 7.706 0 003.248.681 8.157 8.157 0 002.716-.456v-1.381a5.38 5.38 0 01-2.591.701 2.033 2.033 0 01-1.304-3.385 2.023 2.023 0 011.304-.657c.909.013 1.8.257 2.591.707V7.318a8.132 8.132 0 00-2.716-.457 7.721 7.721 0 00-3.248.681V4.186a3.118 3.118 0 01.856-2.22 3.098 3.098 0 012.171-.964h3.957v14.816a3.122 3.122 0 01-.856 2.22 3.102 3.102 0 01-2.171.964z" fill="#fff" fill-opacity=".2"/><path d="M420.503 4.175a2.617 2.617 0 01.719-1.864 2.597 2.597 0 011.563-.79l.257-.02h3.444v14.317l.001.011a2.605 2.605 0 01-2.54 2.673h-3.444v-5.298c.882.303 1.81.458 2.746.448v.001h.007-.001a8.652 8.652 0 002.877-.484l.335-.117v-2.595l-.747.424c-.71.403-1.508.62-2.324.634a1.52 1.52 0 01-.853-.39l-.101-.1a1.536 1.536 0 010-2.057v-.001c.249-.276.59-.45.958-.491a4.897 4.897 0 012.32.64l.747.426V6.964l-.335-.118a8.635 8.635 0 00-2.877-.485h-.006a8.219 8.219 0 00-2.746.448V4.175z" stroke="#fff" stroke-opacity=".2"/><path d="M431.478 11.81a.707.707 0 00.232-.49.706.706 0 00-.738-.673h-1.979v1.345h1.976a.707.707 0 00.509-.183z" fill="#fff" fill-opacity=".2"/><path d="M430.993 11.146a.21.21 0 01.149.054l.002.001a.208.208 0 01.063.118.206.206 0 01-.214.174h-1.5v-.345h1.489l.011-.002z" stroke="#fff" stroke-opacity=".2"/><path d="M430.724 7.976h-1.731v1.347h1.731a.69.69 0 00.522-.171.675.675 0 00.222-.502.675.675 0 00-.744-.674z" fill="#fff" fill-opacity=".2"/><path d="M430.771 8.474a.201.201 0 01.074.005v.001c.013.005.026.01.037.016l.03.023a.163.163 0 01.04.056l.003.006a.16.16 0 01.013.068.165.165 0 01-.013.069l-.003.006a.163.163 0 01-.108.094.2.2 0 01-.073.007l-.023-.002h-1.255v-.347h1.255l.023-.002z" stroke="#fff" stroke-opacity=".2"/><path d="M427.994 19.002h3.397a2.93 2.93 0 002.597-3.184V1.002h-3.395a2.94 2.94 0 00-2.598 3.184v2.811h3.37a1.51 1.51 0 011.511.894 1.517 1.517 0 01-.362 1.72 1.492 1.492 0 01-.881.389h-.268c.089.009.179.008.268 0h.285a1.514 1.514 0 011.558.881 1.51 1.51 0 010 1.242 1.501 1.501 0 01-.927.823 1.515 1.515 0 01-.631.058h-3.924v5.998z" fill="#fff" fill-opacity=".2"/><path d="M433.488 15.84l.002.023a2.43 2.43 0 01-2.135 2.639h-2.861v-4.998h3.41a2.016 2.016 0 001.529-.496c.019-.017.036-.037.055-.055v2.888zm0-5.79c-.019-.018-.036-.037-.055-.054a2.01 2.01 0 00-.364-.256c.104-.132.195-.275.264-.43v-.002c.081-.184.132-.379.155-.577v1.319zm-4.993-5.887l-.002-.022a2.44 2.44 0 01.539-1.762h.001c.399-.49.971-.803 1.596-.877h2.859v6.763a1.99 1.99 0 00-.155-.575v-.002l-.094-.185a2.021 2.021 0 00-.386-.484l-.002-.001-.16-.133a2.022 2.022 0 00-1.326-.388h-2.87V4.163z" stroke="#fff" stroke-opacity=".2"/><path d="M454.983 8.518s1.165 1.506 4.628 1.506c3.638 0 7-3.607 10.6-3.65 3.818-.045 4.806 1.46 4.806 1.46" fill="#fff" fill-opacity=".2"/><path d="M454.983 8.518s1.165 1.506 4.628 1.506c3.638 0 7-3.607 10.6-3.65 3.818-.045 4.806 1.46 4.806 1.46" stroke="#fff" stroke-opacity=".2" stroke-width="2" stroke-linecap="round"/><path d="M454.983 12.148a8.099 8.099 0 005.165 1.5c3.639 0 7.33-3.6 10.923-3.649 3.167-.045 3.945 1.46 3.945 1.46" fill="#fff" fill-opacity=".2"/><path d="M454.983 12.148a8.099 8.099 0 005.165 1.5c3.639 0 7.33-3.6 10.923-3.649 3.167-.045 3.945 1.46 3.945 1.46" stroke="#fff" stroke-opacity=".2" stroke-width="2" stroke-linecap="round"/><path d="M472.77 10.718a7.983 7.983 0 01-11.533 6.406 7.983 7.983 0 01-3.58-3.612m-.759-4.461a7.981 7.981 0 0115.046-2.66" fill="#fff" fill-opacity=".2"/><path d="M472.77 10.718a7.983 7.983 0 01-11.533 6.406 7.983 7.983 0 01-3.58-3.612m-.759-4.461a7.981 7.981 0 0115.046-2.66" stroke="#fff" stroke-opacity=".2" stroke-width="2" stroke-linecap="round"/><g opacity=".5"><path fill-rule="evenodd" clip-rule="evenodd" d="M497.761 5.502l5.883-5.5 5.349 5-5.884 5.5-5.348-5z" fill="#fff" fill-opacity=".2"/><path d="M508.26 5.001l-5.152 4.816-4.615-4.315 5.151-4.816L508.26 5z" stroke="#fff" stroke-opacity=".2"/></g><path fill-rule="evenodd" clip-rule="evenodd" d="M501.505 7.002l7.488 7-5.349 5-5.883-5.5a5.403 5.403 0 010-8l1.07-1 2.674-2.5a3.37 3.37 0 00-.819 3.867c.191.431.47.817.819 1.133z" fill="#fff" fill-opacity=".2"/><path d="M499.911 4.176a3.887 3.887 0 00.241 1.709l.077.187c.192.433.462.826.794 1.16l.147.141 7.09 6.628-4.616 4.316-5.541-5.18-.006-.005-.185-.177a4.91 4.91 0 01-1.423-3.453 4.9 4.9 0 011.608-3.63l.006-.005 1.07-1 .738-.691z" stroke="#fff" stroke-opacity=".2"/><g opacity=".5"><path d="M511.5 12.002a2.5 2.5 0 100-5 2.5 2.5 0 000 5z" fill="#fff" fill-opacity=".2"/><path d="M511.5 7.502a2 2 0 110 3.999 2 2 0 010-3.999z" stroke="#fff" stroke-opacity=".2"/></g><path fill-rule="evenodd" clip-rule="evenodd" d="M550 19.002a9 9 0 009-9 9 9 0 00-9-9 9 9 0 00-9 9 9 9 0 009 9zm0-5.5a3.5 3.5 0 100-7 3.5 3.5 0 000 7z" fill="#fff" fill-opacity=".2"/><path d="M550 1.502a8.5 8.5 0 018.5 8.5 8.5 8.5 0 01-8.5 8.5 8.5 8.5 0 01-8.5-8.5 8.5 8.5 0 018.5-8.5zm0 4.5a4 4 0 100 8 4 4 0 000-8z" stroke="#fff" stroke-opacity=".2"/><path d="M541 4.002h-7l3.733 12H541v-12z" fill="#fff" fill-opacity=".2"/><path d="M540.5 4.502v11h-2.399l-3.421-11h5.82z" stroke="#fff" stroke-opacity=".2"/><mask id="b" fill="#fff"><path fill-rule="evenodd" clip-rule="evenodd" d="M593.352 2.595a.376.376 0 01-.167.63l-2.218.604a.367.367 0 00-.167.097l-.058.058a.373.373 0 01.146-.029h6.051c.208 0 .376.168.376.376v3.511c0 .29-.312.47-.563.327l-1.996-1.14a.37.37 0 00-.186-.05h-.083a.386.386 0 01.124.082l4.279 4.28a.376.376 0 010 .531l-2.483 2.482a.376.376 0 01-.629-.167l-.605-2.218a.367.367 0 00-.097-.167l-.058-.058a.373.373 0 01.029.146v6.051a.376.376 0 01-.376.376h-4.159l1.462-2.559a.372.372 0 00.05-.187v-.082a.386.386 0 01-.083.124l-4.279 4.28a.376.376 0 01-.532 0l-2.482-2.484a.376.376 0 01.167-.629l2.218-.605a.367.367 0 00.167-.097l.058-.058a.373.373 0 01-.146.03h-6.051a.376.376 0 01-.376-.377v-3.51c0-.29.312-.47.563-.328l1.996 1.141c.057.033.121.05.187.05h.082a.386.386 0 01-.124-.083l-4.279-4.279a.376.376 0 010-.532l2.483-2.482a.376.376 0 01.629.167l.605 2.218c.017.063.05.121.097.167l.058.058a.373.373 0 01-.029-.146v-6.05c0-.209.168-.377.376-.377h4.159l-1.462 2.56a.37.37 0 00-.05.185v.083a.386.386 0 01.083-.124l4.279-4.279a.376.376 0 01.532 0l2.482 2.483zm-9.681 5.895l1.896.316c.077.013.149.05.204.105l.825.825a.376.376 0 010 .532l-2.434 2.434 1.565-1.118a.373.373 0 01.219-.07h1.166c.208 0 .376.168.376.376v3.441l.316-1.896a.379.379 0 01.105-.204l.825-.825a.376.376 0 01.532 0l2.434 2.434-1.118-1.565a.373.373 0 01-.07-.219V11.89c0-.208.168-.376.376-.376h3.441l-1.896-.316a.379.379 0 01-.204-.105l-.825-.825a.376.376 0 010-.532l2.434-2.433-1.565 1.117a.373.373 0 01-.219.07h-1.166a.376.376 0 01-.376-.376V4.672l-.316 1.897a.379.379 0 01-.105.204l-.825.825a.376.376 0 01-.532 0L586.3 5.164l1.118 1.565c.046.064.07.14.07.22v1.165a.376.376 0 01-.376.376h-3.441z"/></mask><path fill-rule="evenodd" clip-rule="evenodd" d="M593.352 2.595a.376.376 0 01-.167.63l-2.218.604a.367.367 0 00-.167.097l-.058.058a.373.373 0 01.146-.029h6.051c.208 0 .376.168.376.376v3.511c0 .29-.312.47-.563.327l-1.996-1.14a.37.37 0 00-.186-.05h-.083a.386.386 0 01.124.082l4.279 4.28a.376.376 0 010 .531l-2.483 2.482a.376.376 0 01-.629-.167l-.605-2.218a.367.367 0 00-.097-.167l-.058-.058a.373.373 0 01.029.146v6.051a.376.376 0 01-.376.376h-4.159l1.462-2.559a.372.372 0 00.05-.187v-.082a.386.386 0 01-.083.124l-4.279 4.28a.376.376 0 01-.532 0l-2.482-2.484a.376.376 0 01.167-.629l2.218-.605a.367.367 0 00.167-.097l.058-.058a.373.373 0 01-.146.03h-6.051a.376.376 0 01-.376-.377v-3.51c0-.29.312-.47.563-.328l1.996 1.141c.057.033.121.05.187.05h.082a.386.386 0 01-.124-.083l-4.279-4.279a.376.376 0 010-.532l2.483-2.482a.376.376 0 01.629.167l.605 2.218c.017.063.05.121.097.167l.058.058a.373.373 0 01-.029-.146v-6.05c0-.209.168-.377.376-.377h4.159l-1.462 2.56a.37.37 0 00-.05.185v.083a.386.386 0 01.083-.124l4.279-4.279a.376.376 0 01.532 0l2.482 2.483zm-9.681 5.895l1.896.316c.077.013.149.05.204.105l.825.825a.376.376 0 010 .532l-2.434 2.434 1.565-1.118a.373.373 0 01.219-.07h1.166c.208 0 .376.168.376.376v3.441l.316-1.896a.379.379 0 01.105-.204l.825-.825a.376.376 0 01.532 0l2.434 2.434-1.118-1.565a.373.373 0 01-.07-.219V11.89c0-.208.168-.376.376-.376h3.441l-1.896-.316a.379.379 0 01-.204-.105l-.825-.825a.376.376 0 010-.532l2.434-2.433-1.565 1.117a.373.373 0 01-.219.07h-1.166a.376.376 0 01-.376-.376V4.672l-.316 1.897a.379.379 0 01-.105.204l-.825.825a.376.376 0 01-.532 0L586.3 5.164l1.118 1.565c.046.064.07.14.07.22v1.165a.376.376 0 01-.376.376h-3.441z" fill="#fff" fill-opacity=".2" stroke="#fff" stroke-opacity=".2" stroke-width="2" mask="url(#b)"/><path d="M631.17 10.608l3.67 7.674h-5.76l-3.012-6.297a3.32 3.32 0 00-1.341 2.672c0 .827.3 1.584.796 2.164a3.378 3.378 0 01-3.148 2.181c-1.864 0-3.375-1.528-3.375-3.414 0-.408.071-.799.201-1.162.682-2.495 3.02-4.529 5.629-5.03l-3.67-7.674h5.76l3.012 6.297a3.313 3.313 0 001.341-2.672c0-.827-.3-1.584-.796-2.164a3.378 3.378 0 013.148-2.181c1.864 0 3.375 1.528 3.375 3.414 0 .408-.071.799-.2 1.161-.683 2.495-3.021 4.53-5.63 5.03z" fill="#fff" fill-opacity=".2"/><path d="M633.625 1.502c1.583 0 2.875 1.299 2.875 2.914 0 .35-.061.684-.171.993l-.007.018-.005.018c-.628 2.295-2.803 4.204-5.241 4.672l-.637.122.28.584 3.327 6.96h-4.65l-2.876-6.014-.263-.547-.486.361a3.823 3.823 0 00-1.544 3.074c0 .834.266 1.607.717 2.236a2.87 2.87 0 01-2.569 1.609c-1.583 0-2.875-1.299-2.875-2.914 0-.35.061-.683.172-.993l.012-.037c.627-2.295 2.801-4.203 5.24-4.671l.637-.122-.28-.584-3.327-6.96h4.65l2.876 6.013.262.547.487-.36a3.812 3.812 0 001.544-3.074c0-.835-.267-1.608-.718-2.237a2.871 2.871 0 012.57-1.608z" stroke="#fff" stroke-opacity=".2"/><path d="M662.925 14V8.144h3.427V6.013h-9.348v2.13h3.426V14h2.495zm6.92-7.987h-2.495V14h2.495V6.013zm1.826 0V14h2.296V9.587L678.241 14h2.129V6.013h-2.295v4.379l-4.175-4.38h-2.229zm13.603 4.967l2.878 3.02h3.21l-4.009-4.161 3.859-3.826h-3.027l-2.911 3.003h-.665V6.013h-2.412V14h2.412v-3.02h.665zm11.051-5.185c-3.244 0-5.19 1.846-5.19 4.228 0 2.383 1.946 4.229 5.19 4.229 3.227 0 5.173-1.846 5.173-4.23 0-2.381-1.946-4.227-5.173-4.227zm0 6.51c-1.614 0-2.645-.973-2.645-2.282 0-1.31 1.031-2.265 2.645-2.265 1.596 0 2.644.956 2.644 2.265 0 1.309-1.048 2.282-2.644 2.282zm14.319-6.292h-8V14h2.412v-2.786h5.239V9.453h-5.239v-1.41h5.588v-2.03zm9.08 0h-8V14h2.412v-2.786h5.239V9.453h-5.239v-1.41h5.588v-2.03z" fill="#fff" fill-opacity=".2"/><path d="M696.325 6.295c1.52 0 2.69.434 3.472 1.101a3.372 3.372 0 011.201 2.627 3.375 3.375 0 01-1.201 2.627c-.782.668-1.952 1.102-3.472 1.102-1.529 0-2.703-.434-3.487-1.102-.779-.663-1.203-1.58-1.203-2.627 0-1.047.424-1.964 1.203-2.627.784-.667 1.958-1.101 3.487-1.101zm22.899.218v1.03h-5.588v2.41h5.239v.76h-5.239V13.5h-1.412V6.513h7zm-9.08 0v1.03h-5.588v2.41h5.239v.76h-5.239V13.5h-1.412V6.513h7zm-26.035 0v3.003h1.376l.148-.152 2.764-2.851h1.6l-2.996 2.97-.351.348.343.354 3.194 3.315h-1.821l-2.73-2.865-.148-.155h-1.379v3.02h-1.412V6.513h1.412zm-10.423 0l4.027 4.224.862.904V6.513h1.295V13.5h-1.418l-4.126-4.26-.859-.888V13.5h-1.296V6.513h1.515zm-4.341 0V13.5h-1.495V6.513h1.495zm-3.493 0v1.13h-3.427V13.5h-1.495V7.644h-3.426V6.513h8.348zm30.473.745c-.904 0-1.691.269-2.258.765-.571.501-.887 1.206-.887 2 0 .793.315 1.502.885 2.006.567.502 1.353.776 2.26.776.899 0 1.684-.275 2.251-.775a2.633 2.633 0 00.893-2.007c0-.796-.322-1.501-.895-2-.568-.496-1.352-.765-2.249-.765z" stroke="#fff" stroke-opacity=".2"/></svg>